<svg width="356" height="290" viewBox="0 0 356 290" fill="none" xmlns="http://www.w3.org/2000/svg">
<path d="M280.291 225.264C280.213 225.134 280.09 225.042 279.943 225.004C279.797 224.966 279.643 224.987 279.513 225.065L277.627 226.179L276.513 224.294C276.435 224.164 276.312 224.072 276.165 224.034C276.019 223.996 275.865 224.017 275.735 224.095C275.605 224.173 275.513 224.296 275.475 224.443C275.437 224.59 275.458 224.744 275.536 224.874L276.65 226.759L274.765 227.873C274.635 227.951 274.543 228.074 274.505 228.221C274.467 228.368 274.488 228.521 274.566 228.651C274.644 228.782 274.767 228.874 274.914 228.912C275.061 228.95 275.214 228.928 275.345 228.85L277.23 227.736L278.344 229.621C278.47 229.834 278.713 229.934 278.943 229.889C279.004 229.877 279.063 229.853 279.12 229.82C279.39 229.662 279.48 229.311 279.321 229.042L278.207 227.156L280.092 226.042C280.362 225.881 280.452 225.534 280.291 225.264Z" fill="#DEDEDE"/>
<path d="M285.069 237.738C283.704 237.738 282.595 236.628 282.595 235.263C282.595 233.899 283.704 232.789 285.069 232.789C286.434 232.789 287.543 233.899 287.543 235.263C287.541 236.628 286.432 237.738 285.069 237.738ZM285.069 234.114C284.435 234.114 283.917 234.629 283.917 235.266C283.917 235.902 284.433 236.418 285.069 236.418C285.703 236.418 286.221 235.902 286.221 235.266C286.221 234.629 285.703 234.114 285.069 234.114Z" fill="#DEDEDE"/>
<path d="M35.2088 274.044C33.8438 274.044 32.7344 272.935 32.7344 271.57C32.7344 270.205 33.8438 269.096 35.2088 269.096C36.5737 269.096 37.6831 270.205 37.6831 271.57C37.6831 272.935 36.5737 274.044 35.2088 274.044ZM35.2088 270.418C34.5748 270.418 34.0567 270.934 34.0567 271.57C34.0567 272.204 34.5724 272.722 35.2088 272.722C35.8427 272.722 36.3608 272.206 36.3608 271.57C36.3608 270.936 35.8451 270.418 35.2088 270.418Z" fill="#DEDEDE"/>
<path d="M309.153 8.02689C307.788 8.02689 306.679 6.91744 306.679 5.55251C306.679 4.18757 307.788 3.07812 309.153 3.07812C310.518 3.07812 311.627 4.18757 311.627 5.55251C311.625 6.91744 310.516 8.02689 309.153 8.02689ZM309.153 4.40284C308.519 4.40284 308.001 4.91853 308.001 5.55487C308.001 6.18884 308.517 6.7069 309.153 6.7069C309.789 6.7069 310.305 6.19121 310.305 5.55487C310.303 4.91853 309.787 4.40284 309.153 4.40284Z" fill="#DEDEDE"/>
<path d="M351.499 70.6802C351.362 70.7464 351.26 70.8623 351.21 71.0066C351.161 71.1509 351.17 71.3047 351.236 71.4395L352.194 73.4077L350.226 74.3657C350.089 74.432 349.987 74.5479 349.938 74.6922C349.888 74.8365 349.898 74.9902 349.964 75.1251C350.03 75.2623 350.146 75.364 350.29 75.4137C350.434 75.4634 350.588 75.4539 350.723 75.3877L352.691 74.4296L353.649 76.3978C353.716 76.535 353.831 76.6367 353.976 76.6864C354.12 76.736 354.274 76.7266 354.409 76.6603C354.546 76.5941 354.648 76.4782 354.697 76.3339C354.747 76.1896 354.737 76.0358 354.671 75.901L353.713 73.9328L355.681 72.9748C355.904 72.866 356.024 72.6318 355.996 72.3999C355.989 72.3384 355.972 72.2769 355.942 72.2178C355.804 71.9363 355.464 71.818 355.182 71.9552L353.214 72.9133L352.256 70.9451C352.121 70.6613 351.781 70.543 351.499 70.6802Z" fill="#DEDEDE"/>
<path d="M315.758 117.759C314.393 117.759 313.283 116.65 313.283 115.285C313.283 113.92 314.393 112.811 315.758 112.811C317.123 112.811 318.232 113.92 318.232 115.285C318.23 116.65 317.12 117.759 315.758 117.759ZM315.758 114.133C315.124 114.133 314.606 114.649 314.606 115.285C314.606 115.921 315.121 116.437 315.758 116.437C316.392 116.437 316.91 115.921 316.91 115.285C316.91 114.649 316.392 114.133 315.758 114.133Z" fill="#DEDEDE"/>
<path d="M0.304956 152.248C0.193775 152.352 0.129902 152.491 0.125171 152.643C0.12044 152.794 0.174846 152.939 0.278931 153.05L1.77634 154.647L0.179581 156.144C0.0683999 156.248 0.00452733 156.388 -0.000203798 156.539C-0.00493493 156.69 0.0494716 156.835 0.153556 156.946C0.257641 157.057 0.397213 157.121 0.548609 157.126C0.700005 157.13 0.844305 157.076 0.955486 156.972L2.55224 155.474L4.04964 157.071C4.15373 157.182 4.2933 157.246 4.44469 157.251C4.59609 157.256 4.74039 157.201 4.85157 157.097C4.96275 156.993 5.02662 156.854 5.03135 156.702C5.03608 156.551 4.98167 156.406 4.87759 156.295L3.38019 154.699L4.97695 153.201C5.15673 153.033 5.20167 152.773 5.10705 152.558C5.08103 152.501 5.04791 152.447 5.0006 152.399C4.78533 152.17 4.42577 152.16 4.19867 152.373L2.60192 153.871L1.10451 152.274C0.893975 152.044 0.53205 152.033 0.304956 152.248Z" fill="#DEDEDE"/>
<path d="M24.6797 179.447C23.3148 179.447 22.2053 178.337 22.2053 176.972C22.2053 175.608 23.3148 174.498 24.6797 174.498C26.0446 174.498 27.1541 175.608 27.1541 176.972C27.1541 178.337 26.0446 179.447 24.6797 179.447ZM24.6797 175.82C24.0457 175.82 23.5277 176.336 23.5277 176.972C23.5277 177.609 24.0434 178.124 24.6797 178.124C25.3137 178.124 25.8317 177.609 25.8317 176.972C25.8317 176.336 25.316 175.82 24.6797 175.82Z" fill="#DEDEDE"/>
<path d="M67.2717 257.202C67.0068 257.202 66.7844 256.994 66.7702 256.726C66.7537 256.45 66.9666 256.211 67.2457 256.197C68.9063 256.104 70.5859 255.936 72.2394 255.704C72.5138 255.667 72.7693 255.858 72.8072 256.133C72.845 256.407 72.6534 256.662 72.379 256.7C70.6971 256.937 68.9891 257.107 67.3001 257.202C67.2907 257.202 67.2812 257.202 67.2717 257.202ZM60.1892 257.181C60.1798 257.181 60.168 257.181 60.1561 257.181C58.4648 257.074 56.7568 256.894 55.082 256.646C54.8076 256.606 54.6183 256.348 54.6586 256.073C54.6988 255.799 54.9566 255.61 55.231 255.65C56.8775 255.896 58.557 256.071 60.22 256.175C60.4968 256.192 60.7073 256.431 60.6907 256.71C60.6765 256.977 60.4542 257.181 60.1892 257.181ZM79.251 255.309C79.0286 255.309 78.8228 255.16 78.7637 254.933C78.6927 254.664 78.8536 254.389 79.1232 254.318C80.7365 253.895 82.3499 253.398 83.9182 252.842C84.1808 252.75 84.467 252.887 84.5617 253.147C84.6539 253.41 84.5167 253.696 84.2565 253.791C82.6621 254.356 81.0228 254.862 79.3811 255.293C79.3361 255.305 79.2935 255.309 79.251 255.309ZM48.2242 255.193C48.1793 255.193 48.1367 255.189 48.0917 255.175C46.4571 254.727 44.8225 254.207 43.2305 253.623C42.9703 253.528 42.8355 253.237 42.9301 252.977C43.0247 252.717 43.3157 252.582 43.5759 252.677C45.1419 253.249 46.7481 253.762 48.3567 254.202C48.624 254.276 48.7825 254.552 48.7092 254.82C48.65 255.047 48.4466 255.193 48.2242 255.193ZM90.608 251.063C90.4235 251.063 90.2438 250.962 90.1562 250.784C90.0332 250.536 90.1349 250.233 90.3833 250.11C91.876 249.369 93.3545 248.558 94.7809 247.695C95.0198 247.55 95.3273 247.626 95.4716 247.865C95.6159 248.104 95.5403 248.411 95.3013 248.556C93.8536 249.433 92.3491 250.259 90.8304 251.011C90.7594 251.044 90.6837 251.063 90.608 251.063ZM36.9097 250.829C36.834 250.829 36.756 250.812 36.6826 250.775C35.1734 250.008 33.676 249.168 32.233 248.279C31.9964 248.132 31.9231 247.822 32.0698 247.586C32.2164 247.349 32.5263 247.276 32.7629 247.423C34.1822 248.298 35.6536 249.126 37.1392 249.878C37.3876 250.003 37.4869 250.306 37.3615 250.555C37.2693 250.73 37.0919 250.829 36.9097 250.829ZM100.865 244.605C100.716 244.605 100.567 244.539 100.468 244.411C100.297 244.191 100.335 243.877 100.555 243.704C101.868 242.677 103.153 241.582 104.373 240.449C104.577 240.26 104.896 240.272 105.085 240.475C105.275 240.678 105.263 240.998 105.059 241.187C103.817 242.339 102.512 243.453 101.177 244.496C101.083 244.572 100.974 244.605 100.865 244.605ZM26.6999 244.286C26.5911 244.286 26.4799 244.25 26.3877 244.177C25.0606 243.124 23.7619 242.001 22.5271 240.839C22.3237 240.648 22.3142 240.331 22.5058 240.127C22.6974 239.924 23.0144 239.914 23.2178 240.106C24.4314 241.246 25.7088 242.351 27.0146 243.387C27.2322 243.56 27.2677 243.877 27.095 244.094C26.9956 244.22 26.849 244.286 26.6999 244.286ZM109.611 236.21C109.495 236.21 109.379 236.17 109.284 236.089C109.071 235.909 109.048 235.592 109.227 235.38C110.306 234.109 111.345 232.78 112.314 231.424C112.475 231.197 112.79 231.145 113.017 231.308C113.244 231.469 113.296 231.784 113.133 232.011C112.147 233.39 111.091 234.743 109.994 236.032C109.894 236.151 109.753 236.21 109.611 236.21ZM18.0112 235.831C17.8669 235.831 17.725 235.77 17.6256 235.652C16.5351 234.353 15.4895 232.993 14.5149 231.606C14.3541 231.379 14.4085 231.065 14.6379 230.904C14.865 230.743 15.1796 230.797 15.3381 231.027C16.2962 232.389 17.3252 233.726 18.3968 235.003C18.5766 235.216 18.5482 235.533 18.3353 235.713C18.2407 235.791 18.1248 235.831 18.0112 235.831ZM116.497 226.23C116.414 226.23 116.331 226.208 116.255 226.168C116.012 226.033 115.924 225.728 116.057 225.484C116.861 224.025 117.611 222.513 118.29 220.99C118.403 220.737 118.701 220.621 118.955 220.734C119.208 220.848 119.324 221.146 119.21 221.399C118.522 222.946 117.758 224.484 116.939 225.969C116.847 226.135 116.674 226.23 116.497 226.23ZM11.2031 225.797C11.0233 225.797 10.8507 225.7 10.7584 225.532C9.95411 224.041 9.2066 222.497 8.53241 220.94C8.42123 220.685 8.5395 220.389 8.79498 220.278C9.05047 220.167 9.34616 220.285 9.45735 220.54C10.1197 222.068 10.8554 223.587 11.6455 225.054C11.778 225.3 11.6857 225.605 11.4421 225.735C11.3664 225.778 11.2859 225.797 11.2031 225.797ZM121.244 215.069C121.195 215.069 121.145 215.062 121.095 215.045C120.83 214.962 120.681 214.681 120.764 214.416C121.259 212.824 121.689 211.192 122.046 209.564C122.106 209.292 122.375 209.122 122.645 209.181C122.917 209.24 123.087 209.51 123.028 209.779C122.666 211.433 122.226 213.094 121.725 214.712C121.658 214.929 121.46 215.069 121.244 215.069ZM6.57135 214.591C6.35372 214.591 6.15501 214.449 6.08878 214.231C5.60384 212.613 5.18277 210.95 4.83266 209.287C4.77589 209.015 4.94857 208.748 5.22298 208.691C5.49502 208.634 5.76233 208.81 5.81911 209.082C6.16211 210.716 6.57845 212.353 7.05393 213.943C7.13436 214.21 6.98296 214.489 6.71565 214.57C6.66597 214.584 6.61867 214.591 6.57135 214.591ZM123.643 203.177C123.627 203.177 123.61 203.177 123.593 203.175C123.317 203.149 123.113 202.903 123.142 202.626C123.303 200.968 123.395 199.283 123.414 197.616C123.416 197.339 123.646 197.112 123.922 197.119C124.201 197.121 124.424 197.351 124.419 197.627C124.4 199.324 124.306 201.036 124.142 202.723C124.119 202.983 123.899 203.177 123.643 203.177ZM4.27439 202.683C4.01655 202.683 3.79654 202.486 3.77289 202.224C3.61913 200.535 3.53634 198.82 3.52687 197.126C3.52451 196.849 3.74924 196.622 4.02837 196.62H4.03074C4.30751 196.62 4.53223 196.842 4.5346 197.121C4.54406 198.787 4.6245 200.471 4.77589 202.134C4.80191 202.411 4.59611 202.654 4.31934 202.68C4.30515 202.683 4.29095 202.683 4.27439 202.683ZM123.582 191.051C123.329 191.051 123.109 190.86 123.083 190.602C122.905 188.948 122.657 187.278 122.342 185.639L122.33 185.575C122.278 185.303 122.456 185.038 122.728 184.986C123.002 184.934 123.265 185.111 123.317 185.383L123.329 185.45C123.65 187.12 123.903 188.816 124.083 190.498C124.112 190.774 123.913 191.023 123.636 191.051C123.617 191.049 123.598 191.051 123.582 191.051ZM4.41396 190.552C4.39504 190.552 4.37611 190.552 4.35718 190.55C4.08041 190.519 3.8817 190.268 3.91482 189.994C4.10643 188.31 4.37374 186.613 4.70729 184.953C4.7617 184.681 5.02664 184.503 5.30105 184.558C5.57309 184.612 5.7505 184.877 5.69609 185.151C5.36728 186.786 5.10471 188.454 4.91783 190.107C4.88471 190.363 4.66708 190.552 4.41396 190.552ZM121.077 179.119C120.864 179.119 120.665 178.982 120.596 178.769C120.09 177.18 119.513 175.595 118.877 174.057C118.77 173.799 118.893 173.506 119.149 173.399C119.406 173.293 119.7 173.416 119.806 173.671C120.454 175.235 121.041 176.846 121.557 178.464C121.642 178.729 121.495 179.013 121.23 179.096C121.178 179.112 121.126 179.119 121.077 179.119ZM7.00662 178.703C6.95458 178.703 6.90253 178.696 6.85049 178.677C6.58555 178.589 6.44362 178.306 6.52878 178.041C7.0563 176.432 7.66188 174.823 8.32424 173.265C8.43305 173.009 8.72875 172.888 8.98423 172.997C9.23971 173.106 9.36035 173.402 9.25154 173.657C8.59864 175.192 8.00489 176.773 7.48683 178.353C7.41586 178.57 7.21715 178.703 7.00662 178.703ZM116.248 167.996C116.073 167.996 115.901 167.904 115.808 167.739C114.992 166.286 114.105 164.85 113.168 163.473C113.012 163.244 113.071 162.929 113.301 162.773C113.53 162.617 113.845 162.676 114.001 162.906C114.952 164.309 115.856 165.768 116.686 167.244C116.823 167.485 116.736 167.793 116.494 167.93C116.416 167.975 116.331 167.996 116.248 167.996ZM11.9341 167.623C11.8489 167.623 11.7638 167.601 11.6857 167.556C11.4444 167.419 11.3616 167.112 11.4988 166.87C12.3386 165.399 13.2541 163.947 14.2145 162.551C14.373 162.321 14.6852 162.265 14.9147 162.423C15.1442 162.582 15.2009 162.894 15.0424 163.123C14.0962 164.495 13.1973 165.924 12.3717 167.372C12.2795 167.533 12.1091 167.623 11.9341 167.623ZM109.27 158.087C109.13 158.087 108.988 158.028 108.889 157.914C107.796 156.658 106.637 155.431 105.443 154.269C105.244 154.075 105.239 153.756 105.433 153.557C105.627 153.358 105.946 153.354 106.145 153.548C107.361 154.728 108.539 155.977 109.651 157.254C109.833 157.465 109.812 157.782 109.601 157.964C109.504 158.044 109.386 158.087 109.27 158.087ZM18.9811 157.756C18.8628 157.756 18.7446 157.716 18.6499 157.631C18.4418 157.446 18.4205 157.129 18.605 156.921C19.7239 155.648 20.9114 154.406 22.132 153.233C22.3331 153.039 22.6501 153.046 22.8441 153.247C23.0357 153.448 23.031 153.765 22.8299 153.959C21.6282 155.114 20.462 156.334 19.362 157.586C19.2602 157.697 19.123 157.756 18.9811 157.756ZM100.435 149.782C100.328 149.782 100.219 149.748 100.129 149.677C98.8071 148.665 97.4232 147.695 96.0205 146.796C95.7863 146.647 95.7177 146.335 95.8691 146.101C96.0181 145.867 96.3303 145.798 96.5645 145.949C97.991 146.862 99.3961 147.849 100.742 148.878C100.962 149.046 101.005 149.363 100.837 149.583C100.735 149.713 100.586 149.782 100.435 149.782ZM27.8638 149.505C27.7124 149.505 27.561 149.436 27.4617 149.306C27.2937 149.084 27.3386 148.769 27.5586 148.601C28.9117 147.579 30.3216 146.602 31.7552 145.701C31.9893 145.552 32.3016 145.623 32.4506 145.859C32.5997 146.094 32.5287 146.406 32.2921 146.555C30.8823 147.442 29.4937 148.402 28.1666 149.408C28.0767 149.472 27.9703 149.505 27.8638 149.505ZM90.1136 143.413C90.0403 143.413 89.9646 143.397 89.8936 143.364C88.3939 142.635 86.8468 141.963 85.2926 141.365C85.0324 141.266 84.9047 140.975 85.004 140.714C85.1034 140.454 85.3943 140.326 85.6545 140.426C87.2347 141.034 88.8102 141.72 90.3336 142.46C90.5844 142.581 90.6885 142.884 90.5655 143.132C90.4803 143.309 90.3005 143.413 90.1136 143.413ZM38.2297 143.215C38.0405 143.215 37.8607 143.108 37.7755 142.926C37.6572 142.675 37.7637 142.375 38.0144 142.254C39.545 141.528 41.1252 140.859 42.7125 140.265C42.9727 140.168 43.2636 140.3 43.3606 140.561C43.4576 140.821 43.3251 141.112 43.0649 141.209C41.5036 141.793 39.9495 142.451 38.445 143.165C38.3764 143.198 38.303 143.215 38.2297 143.215ZM78.7234 139.248C78.6832 139.248 78.6406 139.243 78.5981 139.231C76.9824 138.82 75.3312 138.474 73.6871 138.202C73.4128 138.157 73.2282 137.897 73.2732 137.623C73.3181 137.348 73.5783 137.164 73.8527 137.209C75.5228 137.485 77.2048 137.838 78.8465 138.257C79.1161 138.325 79.2794 138.6 79.2108 138.869C79.154 139.094 78.9482 139.248 78.7234 139.248ZM49.653 139.153C49.4259 139.153 49.2201 138.999 49.1633 138.77C49.0971 138.5 49.2627 138.228 49.5324 138.162C50.533 137.916 51.5549 137.694 52.5721 137.497C53.2203 137.372 53.8803 137.256 54.5332 137.154C54.8076 137.112 55.0654 137.298 55.1104 137.573C55.153 137.847 54.9661 138.105 54.6917 138.15C54.0506 138.252 53.4001 138.365 52.7614 138.488C51.7607 138.68 50.7554 138.9 49.7713 139.141C49.7334 139.148 49.6932 139.153 49.653 139.153ZM66.7229 137.469C66.7158 137.469 66.7087 137.469 66.6993 137.469C65.8169 137.429 64.9227 137.41 64.0404 137.41C63.2574 137.41 62.4649 137.426 61.6819 137.457C61.4075 137.469 61.171 137.251 61.1591 136.974C61.1473 136.698 61.3649 136.463 61.6417 136.452C62.4389 136.421 63.2456 136.404 64.0404 136.404C64.9369 136.404 65.8477 136.426 66.7442 136.466C67.021 136.478 67.2363 136.714 67.2244 136.991C67.215 137.256 66.9926 137.469 66.7229 137.469Z" fill="#DEDEDE"/>
<path d="M248.232 211.472C247.941 211.491 247.653 211.507 247.364 211.524C247.087 211.54 246.849 211.328 246.834 211.051C246.818 210.774 247.028 210.537 247.305 210.521C247.307 210.521 247.307 210.521 247.31 210.521C248.956 210.429 250.622 210.294 252.263 210.124C252.54 210.093 252.789 210.296 252.817 210.573C252.845 210.85 252.644 211.098 252.367 211.127C250.995 211.266 249.604 211.382 248.232 211.472ZM240.381 211.687C240.369 211.687 240.355 211.69 240.343 211.687C238.678 211.671 236.991 211.614 235.328 211.517C235.051 211.5 234.839 211.264 234.855 210.985C234.872 210.708 235.111 210.495 235.387 210.511C237.034 210.606 238.704 210.663 240.353 210.679C240.629 210.682 240.854 210.909 240.852 211.188C240.849 211.455 240.641 211.671 240.381 211.687ZM259.273 210.176C259.019 210.192 258.788 210.015 258.745 209.757C258.698 209.482 258.882 209.222 259.157 209.175C260.786 208.898 262.426 208.576 264.034 208.224C264.306 208.165 264.574 208.335 264.635 208.607C264.694 208.879 264.524 209.147 264.252 209.206C262.629 209.563 260.973 209.885 259.329 210.166C259.306 210.173 259.289 210.173 259.273 210.176ZM228.43 210.88C228.4 210.883 228.366 210.88 228.336 210.878C226.682 210.67 225.012 210.422 223.375 210.135C223.101 210.088 222.919 209.828 222.966 209.553C223.013 209.279 223.276 209.097 223.548 209.144C225.171 209.428 226.824 209.674 228.461 209.88C228.738 209.915 228.932 210.166 228.899 210.443C228.868 210.684 228.667 210.866 228.43 210.88ZM270.944 207.495C270.715 207.51 270.495 207.365 270.429 207.133C270.35 206.866 270.504 206.587 270.772 206.509C272.356 206.05 273.948 205.544 275.51 205.009C275.772 204.919 276.059 205.059 276.148 205.321C276.238 205.584 276.099 205.87 275.836 205.96C274.261 206.499 272.652 207.01 271.053 207.474C271.018 207.488 270.98 207.493 270.944 207.495ZM216.643 208.707C216.593 208.709 216.541 208.707 216.491 208.692C214.873 208.297 213.241 207.855 211.64 207.382C211.372 207.304 211.221 207.022 211.299 206.757C211.377 206.49 211.658 206.339 211.923 206.417C213.508 206.885 215.126 207.323 216.73 207.715C217 207.782 217.165 208.054 217.099 208.323C217.045 208.543 216.856 208.692 216.643 208.707ZM282.237 203.502C282.029 203.516 281.826 203.398 281.741 203.195C281.632 202.939 281.752 202.644 282.01 202.535C283.531 201.896 285.057 201.212 286.545 200.503C286.796 200.382 287.096 200.489 287.217 200.739C287.338 200.99 287.231 201.29 286.98 201.411C285.478 202.128 283.938 202.819 282.403 203.464C282.346 203.486 282.292 203.5 282.237 203.502ZM205.174 205.191C205.106 205.196 205.035 205.187 204.966 205.161C203.405 204.581 201.834 203.956 200.299 203.304C200.044 203.195 199.925 202.899 200.034 202.644C200.143 202.388 200.439 202.267 200.694 202.379C202.215 203.027 203.769 203.644 205.316 204.219C205.577 204.316 205.709 204.605 205.614 204.867C205.543 205.056 205.368 205.179 205.174 205.191ZM292.987 198.244C292.8 198.255 292.613 198.163 292.516 197.988C292.379 197.747 292.466 197.439 292.707 197.302C294.141 196.495 295.574 195.644 296.97 194.769C297.207 194.622 297.517 194.693 297.663 194.927C297.81 195.164 297.739 195.474 297.505 195.62C296.097 196.503 294.65 197.364 293.202 198.18C293.133 198.218 293.06 198.239 292.987 198.244ZM194.191 200.389C194.104 200.394 194.014 200.377 193.931 200.335C192.445 199.58 190.957 198.781 189.507 197.96C189.266 197.823 189.181 197.515 189.318 197.274C189.455 197.032 189.763 196.947 190.004 197.085C191.438 197.901 192.911 198.691 194.385 199.438C194.633 199.564 194.733 199.866 194.607 200.115C194.525 200.278 194.361 200.377 194.191 200.389ZM303.059 191.793C302.891 191.805 302.723 191.731 302.619 191.585C302.456 191.36 302.506 191.045 302.73 190.882C304.064 189.915 305.392 188.904 306.678 187.875C306.896 187.703 307.213 187.736 307.386 187.953C307.558 188.171 307.525 188.488 307.308 188.661C306.009 189.699 304.668 190.721 303.322 191.696C303.241 191.755 303.151 191.786 303.059 191.793ZM183.828 194.371C183.721 194.378 183.612 194.352 183.518 194.288C182.127 193.371 180.741 192.408 179.395 191.426C179.17 191.263 179.12 190.948 179.286 190.724C179.449 190.499 179.764 190.449 179.988 190.615C181.32 191.587 182.694 192.54 184.071 193.449C184.303 193.602 184.367 193.915 184.213 194.146C184.126 194.281 183.981 194.362 183.828 194.371ZM312.335 184.228C312.188 184.237 312.036 184.183 311.93 184.064C311.743 183.859 311.757 183.542 311.961 183.352C313.177 182.241 314.381 181.084 315.545 179.913C315.741 179.717 316.06 179.714 316.257 179.911C316.453 180.107 316.455 180.426 316.259 180.623C315.086 181.803 313.87 182.972 312.642 184.095C312.552 184.178 312.443 184.221 312.335 184.228ZM174.219 187.218C174.093 187.225 173.966 187.187 173.864 187.102C172.586 186.035 171.318 184.921 170.093 183.795C169.89 183.606 169.875 183.289 170.065 183.083C170.254 182.879 170.571 182.865 170.777 183.054C171.99 184.171 173.246 185.273 174.512 186.331C174.725 186.508 174.753 186.827 174.576 187.04C174.481 187.149 174.351 187.208 174.219 187.218ZM320.692 175.655C320.564 175.662 320.434 175.622 320.33 175.532C320.12 175.35 320.098 175.03 320.28 174.822C321.364 173.578 322.431 172.291 323.453 170.997C323.625 170.779 323.942 170.742 324.16 170.914C324.378 171.087 324.415 171.404 324.243 171.622C323.211 172.927 322.133 174.226 321.04 175.482C320.948 175.589 320.822 175.645 320.692 175.655ZM165.485 179.026C165.341 179.035 165.194 178.983 165.088 178.87C163.94 177.663 162.807 176.414 161.719 175.158C161.537 174.948 161.561 174.631 161.771 174.448C161.982 174.266 162.299 174.29 162.481 174.5C163.559 175.747 164.681 176.984 165.816 178.179C166.008 178.38 166.001 178.699 165.8 178.891C165.71 178.971 165.599 179.019 165.485 179.026ZM328.03 166.186C327.921 166.193 327.81 166.164 327.713 166.098C327.484 165.939 327.427 165.627 327.583 165.398C328.517 164.038 329.433 162.637 330.301 161.237C330.448 161 330.758 160.927 330.994 161.074C331.231 161.22 331.304 161.53 331.157 161.767C330.28 163.181 329.357 164.596 328.413 165.968C328.321 166.103 328.177 166.176 328.03 166.186ZM157.74 169.897C157.577 169.907 157.411 169.838 157.305 169.698C156.304 168.371 155.32 167.002 154.383 165.63C154.227 165.4 154.286 165.088 154.516 164.929C154.745 164.773 155.058 164.832 155.216 165.062C156.146 166.422 157.118 167.778 158.109 169.093C158.277 169.315 158.232 169.63 158.01 169.798C157.929 169.859 157.837 169.892 157.74 169.897ZM334.247 155.943C334.157 155.947 334.065 155.931 333.979 155.883C333.733 155.753 333.641 155.448 333.771 155.202C334.547 153.743 335.297 152.248 336.002 150.757C336.12 150.507 336.421 150.398 336.671 150.516C336.922 150.634 337.031 150.935 336.913 151.185C336.203 152.69 335.444 154.202 334.661 155.673C334.576 155.839 334.415 155.933 334.247 155.943ZM151.093 159.952C150.908 159.964 150.726 159.874 150.627 159.706C149.785 158.275 148.964 156.804 148.193 155.332C148.063 155.086 148.157 154.781 148.403 154.653C148.649 154.523 148.954 154.618 149.082 154.864C149.849 156.321 150.66 157.778 151.495 159.195C151.637 159.434 151.557 159.744 151.318 159.884C151.244 159.924 151.169 159.948 151.093 159.952ZM339.262 145.056C339.191 145.061 339.117 145.049 339.046 145.023C338.789 144.921 338.661 144.63 338.763 144.37C339.368 142.833 339.943 141.26 340.471 139.696C340.56 139.433 340.844 139.291 341.109 139.381C341.372 139.471 341.514 139.757 341.424 140.02C340.889 141.598 340.31 143.185 339.699 144.739C339.624 144.926 339.451 145.044 339.262 145.056ZM145.624 149.307C145.42 149.321 145.219 149.208 145.132 149.009C144.457 147.488 143.812 145.927 143.211 144.375C143.111 144.115 143.239 143.824 143.499 143.724C143.76 143.623 144.051 143.753 144.15 144.013C144.746 145.551 145.385 147.095 146.052 148.602C146.165 148.855 146.049 149.153 145.796 149.267C145.74 149.291 145.683 149.305 145.624 149.307ZM343.002 133.664C342.95 133.666 342.895 133.661 342.841 133.647C342.571 133.576 342.413 133.299 342.484 133.032C342.907 131.433 343.3 129.805 343.645 128.19C343.704 127.918 343.972 127.745 344.244 127.804C344.516 127.863 344.688 128.131 344.629 128.403C344.279 130.033 343.884 131.677 343.456 133.292C343.399 133.503 343.212 133.65 343.002 133.664ZM141.411 138.097C141.184 138.111 140.968 137.971 140.897 137.744C140.403 136.155 139.939 134.532 139.521 132.921C139.45 132.651 139.613 132.377 139.88 132.306C140.15 132.235 140.424 132.398 140.495 132.665C140.911 134.262 141.37 135.868 141.86 137.444C141.943 137.709 141.794 137.99 141.529 138.073C141.489 138.087 141.448 138.094 141.411 138.097ZM345.407 121.919C345.372 121.921 345.336 121.919 345.301 121.914C345.027 121.874 344.835 121.618 344.875 121.344C345.112 119.714 345.313 118.053 345.471 116.412C345.497 116.135 345.746 115.931 346.02 115.96C346.297 115.986 346.5 116.232 346.472 116.509C346.311 118.167 346.108 119.842 345.869 121.488C345.838 121.727 345.639 121.905 345.407 121.919ZM138.506 126.477C138.255 126.494 138.028 126.321 137.978 126.068C137.668 124.436 137.392 122.77 137.155 121.119C137.115 120.845 137.306 120.589 137.583 120.549C137.86 120.511 138.113 120.7 138.153 120.977C138.385 122.612 138.659 124.263 138.967 125.881C139.019 126.153 138.839 126.418 138.567 126.47C138.546 126.475 138.527 126.477 138.506 126.477ZM346.448 109.987C346.432 109.987 346.418 109.989 346.401 109.987C346.124 109.98 345.904 109.746 345.914 109.469C345.963 107.82 345.973 106.15 345.942 104.501C345.937 104.222 346.16 103.995 346.436 103.988C346.716 103.983 346.945 104.203 346.95 104.482C346.981 106.147 346.971 107.834 346.921 109.499C346.91 109.762 346.704 109.97 346.448 109.987ZM136.93 114.602C136.656 114.621 136.417 114.413 136.396 114.138C136.365 113.746 136.339 113.353 136.313 112.963C136.23 111.69 136.171 110.401 136.135 109.128C136.128 108.851 136.344 108.62 136.625 108.61C136.902 108.603 137.134 108.821 137.143 109.1C137.179 110.361 137.238 111.638 137.321 112.896C137.347 113.284 137.373 113.672 137.403 114.06C137.425 114.337 137.216 114.578 136.94 114.6C136.935 114.602 136.933 114.602 136.93 114.602ZM346.117 98.0147C345.845 98.0312 345.606 97.8278 345.583 97.5558C345.445 95.9164 345.266 94.2534 345.048 92.6141L345.027 92.4556C344.989 92.1812 345.183 91.9281 345.46 91.8902C345.736 91.8524 345.989 92.0464 346.025 92.3231L346.046 92.484C346.264 94.1375 346.446 95.8147 346.586 97.4706C346.609 97.7474 346.403 97.991 346.127 98.0147C346.124 98.0123 346.122 98.0147 346.117 98.0147ZM136.706 102.628C136.689 102.628 136.67 102.63 136.653 102.628C136.377 102.616 136.159 102.384 136.169 102.105C136.232 100.439 136.336 98.7551 136.481 97.0968C136.504 96.8201 136.748 96.6143 137.025 96.6379C137.302 96.6616 137.507 96.9052 137.484 97.182C137.342 98.8237 137.238 100.494 137.176 102.14C137.164 102.403 136.959 102.611 136.706 102.628ZM344.409 85.9929C344.161 86.0094 343.934 85.8391 343.884 85.5907C343.56 83.9727 343.191 82.3428 342.791 80.7437C342.723 80.474 342.888 80.1996 343.158 80.1334C343.427 80.0648 343.702 80.2304 343.768 80.5C344.173 82.1133 344.544 83.7598 344.873 85.3944C344.927 85.6664 344.752 85.9314 344.478 85.9881C344.454 85.9905 344.43 85.9929 344.409 85.9929ZM137.848 90.7051C137.813 90.7075 137.775 90.7051 137.739 90.7004C137.465 90.6578 137.276 90.3999 137.318 90.1255C137.574 88.4767 137.872 86.8114 138.205 85.1744C138.26 84.9024 138.527 84.7273 138.799 84.7817C139.071 84.8361 139.246 85.1034 139.192 85.3755C138.861 86.9959 138.565 88.6447 138.314 90.2793C138.276 90.5158 138.078 90.6885 137.848 90.7051ZM341.386 74.4063C341.161 74.4205 340.946 74.2833 340.875 74.0586C340.369 72.4879 339.818 70.91 339.236 69.3677C339.139 69.1075 339.269 68.8165 339.529 68.7195C339.789 68.6225 340.08 68.7526 340.177 69.0129C340.764 70.5718 341.32 72.1638 341.833 73.7487C341.918 74.0137 341.774 74.2975 341.509 74.3827C341.469 74.3945 341.429 74.4016 341.386 74.4063ZM140.358 78.9719C140.304 78.9743 140.247 78.9695 140.192 78.9553C139.925 78.882 139.767 78.6052 139.84 78.3355C140.282 76.727 140.77 75.1089 141.288 73.524C141.375 73.259 141.659 73.1147 141.922 73.2023C142.187 73.2898 142.331 73.5737 142.243 73.8362C141.73 75.407 141.247 77.0108 140.81 78.6029C140.753 78.8134 140.566 78.9577 140.358 78.9719ZM337.059 63.2385C336.856 63.2527 336.657 63.1415 336.57 62.9452C335.886 61.4431 335.157 59.9385 334.403 58.4743C334.275 58.2282 334.372 57.9231 334.62 57.7953C334.869 57.6676 335.172 57.7646 335.299 58.013C336.061 59.4938 336.797 61.0125 337.488 62.5288C337.603 62.782 337.49 63.08 337.239 63.1959C337.178 63.2196 337.119 63.2338 337.059 63.2385ZM144.197 67.6101C144.124 67.6148 144.048 67.603 143.977 67.5746C143.719 67.4705 143.594 67.1772 143.698 66.9193C144.32 65.3746 144.99 63.8228 145.688 62.3065C145.803 62.0534 146.102 61.9422 146.355 62.0605C146.608 62.1764 146.719 62.4744 146.601 62.7276C145.91 64.2273 145.248 65.7649 144.63 67.2955C144.557 67.4823 144.384 67.5983 144.197 67.6101ZM331.481 52.6479C331.299 52.6597 331.117 52.5722 331.018 52.4042C330.168 50.9943 329.274 49.5868 328.356 48.2172C328.203 47.9854 328.264 47.6731 328.494 47.5193C328.726 47.3656 329.038 47.4271 329.192 47.6565C330.116 49.038 331.02 50.4597 331.876 51.8838C332.021 52.1227 331.943 52.4302 331.706 52.5745C331.638 52.6195 331.559 52.6431 331.481 52.6479ZM149.307 56.7663C149.215 56.7734 149.122 56.7521 149.035 56.7072C148.791 56.5747 148.699 56.2696 148.834 56.0235C149.629 54.5593 150.468 53.095 151.334 51.6709C151.478 51.4343 151.788 51.3563 152.025 51.5006C152.264 51.6449 152.34 51.9548 152.195 52.1913C151.339 53.6036 150.506 55.0537 149.721 56.5037C149.631 56.6622 149.472 56.7569 149.307 56.7663ZM324.732 42.7716C324.572 42.7811 324.406 42.7149 324.302 42.5777C323.297 41.2719 322.244 39.9756 321.179 38.7194C321 38.5065 321.026 38.1895 321.236 38.0098C321.449 37.83 321.766 37.856 321.946 38.0665C323.022 39.3345 324.082 40.645 325.099 41.9626C325.269 42.1826 325.229 42.4996 325.007 42.6676C324.924 42.7314 324.829 42.7645 324.732 42.7716ZM155.613 46.5778C155.502 46.5849 155.389 46.5565 155.292 46.4879C155.065 46.3295 155.008 46.0148 155.169 45.7877C156.124 44.4252 157.125 43.065 158.145 41.7474C158.315 41.5274 158.632 41.4871 158.852 41.6575C159.072 41.8278 159.112 42.1448 158.942 42.3648C157.932 43.6682 156.941 45.0166 155.994 46.3673C155.902 46.495 155.76 46.5684 155.613 46.5778ZM316.895 33.7234C316.753 33.7328 316.609 33.6808 316.5 33.572C315.353 32.3892 314.161 31.2182 312.957 30.0922C312.753 29.903 312.744 29.5836 312.933 29.3802C313.122 29.1767 313.442 29.1673 313.645 29.3565C314.859 30.4944 316.063 31.6771 317.222 32.8694C317.416 33.0681 317.411 33.3875 317.212 33.5814C317.125 33.669 317.011 33.7163 316.895 33.7234ZM163.032 37.1724C162.902 37.1818 162.769 37.1392 162.665 37.047C162.457 36.8625 162.438 36.5455 162.623 36.3373C163.725 35.0907 164.875 33.8535 166.034 32.6612C166.228 32.4625 166.547 32.4578 166.746 32.6518C166.945 32.8457 166.949 33.1651 166.755 33.3638C165.606 34.5442 164.468 35.7696 163.375 37.0044C163.285 37.1085 163.162 37.1653 163.032 37.1724ZM308.079 25.6189C307.956 25.626 307.83 25.5906 307.726 25.5054C306.451 24.4598 305.134 23.4308 303.809 22.4467C303.587 22.2811 303.539 21.9665 303.705 21.7418C303.871 21.5194 304.185 21.4721 304.41 21.6377C305.746 22.6312 307.076 23.6697 308.365 24.7248C308.58 24.8998 308.611 25.2192 308.436 25.4321C308.344 25.548 308.214 25.6095 308.079 25.6189ZM171.467 28.6729C171.318 28.6823 171.167 28.6256 171.061 28.5073C170.874 28.3015 170.893 27.9821 171.098 27.7953C172.336 26.6834 173.615 25.5858 174.905 24.5331C175.12 24.3581 175.437 24.3888 175.612 24.6041C175.787 24.8194 175.756 25.1364 175.541 25.3114C174.266 26.3523 172.998 27.4404 171.773 28.5428C171.683 28.6232 171.576 28.6658 171.467 28.6729ZM298.397 18.5648C298.292 18.5719 298.186 18.5459 298.091 18.4844C296.705 17.5902 295.279 16.7173 293.852 15.8894C293.611 15.7498 293.531 15.4423 293.67 15.201C293.81 14.9597 294.117 14.8793 294.359 15.0188C295.799 15.8539 297.24 16.7362 298.64 17.6399C298.874 17.7913 298.941 18.1012 298.789 18.3354C298.697 18.4749 298.55 18.5554 298.397 18.5648ZM180.809 21.1906C180.641 21.2024 180.471 21.1267 180.367 20.9801C180.206 20.753 180.258 20.4384 180.485 20.2775C181.84 19.3147 183.236 18.3708 184.634 17.4719C184.868 17.3205 185.181 17.3891 185.33 17.6233C185.479 17.8575 185.412 18.1698 185.178 18.3188C183.792 19.2083 182.411 20.1427 181.069 21.096C180.989 21.1551 180.899 21.1859 180.809 21.1906ZM287.974 12.6509C287.889 12.6556 287.801 12.6415 287.718 12.5989C286.24 11.8679 284.721 11.1606 283.207 10.5006C282.952 10.3894 282.836 10.0937 282.947 9.83826C283.058 9.58278 283.354 9.46686 283.609 9.57804C285.138 10.2451 286.668 10.9572 288.163 11.6952C288.412 11.8182 288.516 12.121 288.39 12.3694C288.31 12.5397 288.147 12.6391 287.974 12.6509ZM190.936 14.8272C190.747 14.8391 190.56 14.7444 190.463 14.567C190.328 14.3234 190.418 14.0182 190.662 13.8834C192.121 13.0791 193.619 12.3008 195.114 11.5675C195.364 11.4445 195.665 11.5486 195.788 11.7969C195.911 12.0477 195.807 12.3481 195.558 12.4711C194.078 13.1974 192.594 13.9685 191.149 14.7634C191.08 14.8036 191.007 14.8225 190.936 14.8272ZM276.941 7.96C276.875 7.96473 276.806 7.95527 276.737 7.93161C275.183 7.37334 273.594 6.84582 272.016 6.36324C271.751 6.28281 271.599 6.00131 271.682 5.734C271.763 5.46906 272.044 5.31766 272.312 5.40046C273.906 5.88776 275.51 6.42002 277.08 6.98539C277.343 7.08001 277.478 7.36861 277.383 7.62882C277.312 7.8228 277.135 7.94817 276.941 7.96ZM201.742 9.66084C201.531 9.67503 201.328 9.55439 201.243 9.34858C201.136 9.09074 201.262 8.79741 201.517 8.69096C203.057 8.06172 204.635 7.4585 206.203 6.90259C206.466 6.81033 206.752 6.94754 206.847 7.20775C206.939 7.47033 206.802 7.75656 206.542 7.85118C204.988 8.40236 203.424 8.99848 201.9 9.62299C201.848 9.64428 201.794 9.65611 201.742 9.66084ZM265.44 4.56305C265.392 4.56541 265.343 4.56305 265.293 4.55122C263.682 4.1751 262.043 3.83209 260.417 3.53403C260.143 3.48435 259.963 3.22177 260.013 2.94737C260.063 2.67296 260.325 2.49318 260.6 2.54286C262.241 2.84328 263.897 3.18866 265.522 3.56951C265.792 3.63338 265.962 3.90306 265.898 4.1751C265.846 4.39746 265.655 4.54885 265.44 4.56305ZM213.068 5.76712C212.836 5.78131 212.616 5.63465 212.553 5.40046C212.477 5.13315 212.633 4.85401 212.9 4.78068C214.502 4.33122 216.136 3.91252 217.762 3.53876C218.034 3.47725 218.303 3.64521 218.365 3.91725C218.426 4.18929 218.258 4.45896 217.986 4.52047C216.378 4.8895 214.757 5.30347 213.172 5.75056C213.137 5.76002 213.101 5.76475 213.068 5.76712ZM253.628 2.50974C253.598 2.5121 253.569 2.5121 253.538 2.50737C251.901 2.31813 250.236 2.1691 248.59 2.05792C248.313 2.03899 248.102 1.80007 248.121 1.52093C248.14 1.24416 248.379 1.03363 248.658 1.05255C250.321 1.16373 252.001 1.31513 253.654 1.50674C253.931 1.53749 254.13 1.78824 254.097 2.06501C254.068 2.31103 253.867 2.49554 253.628 2.50974ZM224.764 3.19102C224.508 3.20758 224.276 3.0278 224.234 2.76995C224.189 2.49554 224.376 2.2377 224.65 2.19275C225.674 2.02716 226.718 1.8734 227.749 1.73856C228.371 1.65577 229 1.58007 229.62 1.5091C229.895 1.47835 230.145 1.67706 230.178 1.95146C230.209 2.22824 230.01 2.47662 229.736 2.50974C229.121 2.58071 228.499 2.6564 227.884 2.73683C226.862 2.87167 225.828 3.02307 224.813 3.18629C224.794 3.18866 224.78 3.18866 224.764 3.19102ZM241.67 1.82609C241.659 1.82609 241.649 1.82609 241.637 1.82609C239.991 1.82609 238.318 1.8663 236.67 1.94437C236.393 1.95856 236.156 1.7433 236.142 1.46652C236.128 1.19212 236.338 0.957928 236.613 0.939003C236.615 0.939003 236.617 0.939003 236.622 0.939003C238.288 0.858574 239.974 0.818359 241.637 0.818359C241.916 0.818359 242.141 1.04309 242.141 1.32222C242.141 1.5919 241.935 1.80953 241.67 1.82609Z" fill="#DEDEDE"/>
<path d="M258.211 63.4138V236.606H257.757L244.642 223.846L231.53 236.606H230.165L217.052 223.846L203.938 236.606H202.589L189.501 223.87L176.41 236.606H175.071L161.966 223.856L148.863 236.606H147.479L134.374 223.856L121.271 236.606H119.903L106.824 223.88L93.745 236.606H92.8816V15.2793H210.076L258.211 63.4138Z" fill="#F2F2F2"/>
<path d="M258.211 63.4138H210.077V15.2793L258.211 63.4138Z" fill="#DEDEDE"/>
<path d="M174.259 287.446C171.981 289.724 168.289 289.724 166.013 287.446L130.607 252.041L126.108 247.541C129.384 245.379 132.192 242.569 134.355 239.295L174.259 279.2C176.535 281.475 176.535 285.168 174.259 287.446Z" fill="#9C9C9C"/>
<path d="M136.148 241.086L145.374 250.314C143.211 253.59 140.403 256.398 137.13 258.56L132.403 253.832L127.904 249.332C131.175 247.173 133.986 244.362 136.148 241.086Z" fill="#5E5E5E"/>
<path d="M145.34 221.874C145.279 220.381 145.12 218.912 144.877 217.472C143.49 209.287 139.277 202.062 133.273 196.844C127.097 191.469 119.028 188.217 110.2 188.217C90.7761 188.217 75.0286 203.964 75.0286 223.388C75.0286 224.732 75.1043 226.059 75.2509 227.365C75.7122 231.457 76.8737 235.336 78.6171 238.88C81.1199 243.973 84.8173 248.371 89.345 251.711C90.0806 252.255 90.84 252.768 91.6183 253.256C97.0118 256.617 103.38 258.559 110.2 258.559C117.807 258.559 124.85 256.144 130.603 252.04C133.787 249.769 136.576 246.98 138.849 243.796C141.132 240.595 142.892 236.997 144.004 233.125C144.891 230.033 145.369 226.768 145.369 223.393C145.373 222.882 145.362 222.376 145.34 221.874ZM110.202 252.305C103.874 252.305 98.0242 250.273 93.2623 246.826C88.6424 243.481 85.0491 238.802 83.0478 233.352C81.9076 230.246 81.2878 226.891 81.2878 223.39C81.2878 222.073 81.3754 220.776 81.5481 219.506C82.9863 208.783 90.303 199.924 100.148 196.272C103.281 195.11 106.668 194.476 110.205 194.476C111.484 194.476 112.743 194.559 113.978 194.72C119.839 195.481 125.15 198.001 129.366 201.734C135.35 207.03 139.121 214.77 139.121 223.39C139.121 223.83 139.112 224.268 139.09 224.703C138.996 226.825 138.672 228.888 138.144 230.868C137.335 233.903 136.044 236.739 134.359 239.294C132.197 242.57 129.389 245.381 126.113 247.54C125.309 248.07 124.478 248.56 123.62 249.009C121.789 249.97 119.842 250.739 117.805 251.292C115.378 251.952 112.83 252.305 110.202 252.305Z" fill="#B8B8B8"/>
<path d="M88.3061 226.569C86.8157 226.569 85.6069 225.36 85.6069 223.87C85.6069 217.173 88.2161 210.876 92.952 206.14C97.6879 201.404 103.985 198.795 110.682 198.795C112.172 198.795 113.381 200.004 113.381 201.494C113.381 202.984 112.172 204.193 110.682 204.193C105.426 204.193 100.486 206.239 96.77 209.956C93.0537 213.672 91.0075 218.611 91.0075 223.868C91.0052 225.36 89.7964 226.569 88.3061 226.569Z" fill="white"/>
<path d="M133.759 140.619V135.467L146.677 115.116H151.119V122.247H148.49L140.347 135.135V135.377H158.704V140.619H133.759ZM148.611 146.059V139.048L148.732 136.767V115.116H154.866V146.059H148.611ZM175.195 146.738C172.597 146.728 170.36 146.089 168.487 144.82C166.624 143.551 165.188 141.712 164.181 139.305C163.184 136.898 162.69 134.002 162.7 130.617C162.7 127.243 163.199 124.367 164.196 121.99C165.203 119.613 166.639 117.805 168.502 116.566C170.376 115.317 172.607 114.693 175.195 114.693C177.784 114.693 180.01 115.317 181.873 116.566C183.747 117.815 185.187 119.628 186.195 122.005C187.202 124.372 187.7 127.243 187.69 130.617C187.69 134.012 187.187 136.913 186.179 139.32C185.182 141.727 183.752 143.566 181.889 144.835C180.025 146.104 177.794 146.738 175.195 146.738ZM175.195 141.314C176.968 141.314 178.383 140.423 179.441 138.64C180.498 136.857 181.022 134.183 181.012 130.617C181.012 128.27 180.77 126.316 180.287 124.755C179.814 123.194 179.139 122.02 178.262 121.235C177.396 120.449 176.374 120.056 175.195 120.056C173.433 120.056 172.022 120.938 170.965 122.7C169.907 124.463 169.373 127.102 169.363 130.617C169.363 132.995 169.6 134.979 170.073 136.57C170.557 138.152 171.237 139.34 172.113 140.136C172.989 140.922 174.017 141.314 175.195 141.314ZM191.887 140.619V135.467L204.805 115.116H209.247V122.247H206.618L198.474 135.135V135.377H216.831V140.619H191.887ZM206.739 146.059V139.048L206.86 136.767V115.116H212.994V146.059H206.739Z" fill="#66686C"/>
</svg>
