<svg width="32" height="34" viewBox="0 0 32 34" fill="none" xmlns="http://www.w3.org/2000/svg">
<path d="M10.5914 4.53672C11.0868 4.25663 11.3945 3.7291 11.3945 3.16003V0.5042C11.3945 0.229354 11.1717 0.00653076 10.8969 0.00653076C10.622 0.00653076 10.3992 0.229354 10.3992 0.5042V3.16003C10.3992 3.37098 10.2851 3.56646 10.1015 3.67031L5.54308 6.24844C3.57781 7.3599 2.06005 9.04262 1.1539 11.1148C1.04374 11.3666 1.15861 11.66 1.41049 11.7701C1.47539 11.7985 1.54307 11.8119 1.60963 11.8119C1.8014 11.8119 1.98414 11.7004 2.06583 11.5135C2.88499 9.64035 4.25683 8.11934 6.03298 7.11478L10.5914 4.53672Z" fill="#C32C31"/>
<path d="M1.35123 16.4065C1.23007 15.4226 1.2663 14.4286 1.459 13.4521C1.51215 13.1824 1.3367 12.9207 1.06703 12.8675C0.797361 12.8141 0.535653 12.9898 0.482436 13.2594C0.269367 14.3397 0.229288 15.4395 0.363393 16.5282L0.605062 18.4907V28.5339C0.605062 28.8087 0.827885 29.0316 1.10273 29.0316C1.37758 29.0316 1.6004 28.8087 1.6004 28.5339V18.4601C1.6004 18.4398 1.59914 18.4195 1.59669 18.3993L1.35123 16.4065Z" fill="#C32C31"/>
<path d="M7.55434 30.0388C7.28068 30.0201 7.0424 30.2266 7.02336 30.5007L6.81739 33.4612C6.79828 33.7354 7.00511 33.9732 7.27929 33.9922C7.29104 33.993 7.30271 33.9935 7.31433 33.9935C7.57345 33.9935 7.79202 33.7927 7.81027 33.5303L8.01624 30.5698C8.03535 30.2956 7.82852 30.058 7.55434 30.0388Z" fill="#C32C31"/>
<path d="M7.77042 23.4979C7.44933 22.1467 7.28609 19.3644 7.28609 19.3644C7.28609 19.3642 7.28609 14.7899 7.28609 14.7899C7.28609 14.5151 7.06327 14.2922 6.78842 14.2922C6.51358 14.2922 6.29075 14.5151 6.29075 14.7899V21.9343C6.29075 22.8925 6.09042 23.8211 5.69527 24.6942C5.58194 24.9446 5.69308 25.2394 5.94351 25.3528C6.01007 25.3829 6.07981 25.3972 6.14842 25.3972C6.33786 25.3972 6.51888 25.2884 6.60209 25.1045C6.72804 24.8263 6.83607 24.543 6.92737 24.2556L6.96984 24.4342C7.21403 25.4618 7.30062 26.517 7.2273 27.5705L7.17096 28.3799C7.15185 28.6541 7.35869 28.8918 7.63287 28.9109C7.64461 28.9116 7.65629 28.9121 7.6679 28.9121C7.92702 28.9121 8.1456 28.7114 8.16385 28.4489L8.22019 27.6396C8.30048 26.4856 8.20559 25.3298 7.93817 24.2042L7.77042 23.4979Z" fill="#C32C31"/>
<path d="M21.4067 4.53672L24.0632 6.03915C24.1406 6.08294 24.2247 6.10371 24.3078 6.10371C24.4813 6.10371 24.6498 6.01274 24.7414 5.85096C24.8767 5.61175 24.7925 5.30804 24.5532 5.17274L21.8967 3.67031C21.7131 3.56653 21.5991 3.37098 21.5991 3.16003V0.5042C21.5991 0.229354 21.3763 0.00653076 21.1014 0.00653076C20.8265 0.00653076 20.6038 0.229354 20.6038 0.5042V3.16003C20.6038 3.72917 20.9115 4.2567 21.4067 4.53672Z" fill="#C32C31"/>
<path d="M26.4551 6.24838L26.4051 6.22011C26.166 6.08487 25.8622 6.16908 25.7269 6.40836C25.5916 6.64757 25.6759 6.95122 25.9152 7.08652L25.9651 7.11478C29.2742 8.98629 31.112 12.6335 30.6473 16.4065L30.402 18.3992C30.3994 18.4194 30.3982 18.4397 30.3982 18.4601V28.5338C30.3982 28.8087 30.6209 29.0315 30.8958 29.0315C31.1708 29.0315 31.3935 28.8087 31.3935 28.5338V18.4907L31.6352 16.5282C32.1493 12.354 30.116 8.31895 26.4551 6.24838Z" fill="#C32C31"/>
<path d="M25.1225 32.6241C25.1035 32.3499 24.865 32.1433 24.5915 32.1622C24.3174 32.1813 24.1105 32.4191 24.1296 32.6932L24.1879 33.5303C24.2061 33.7928 24.4247 33.9935 24.6838 33.9935C24.6955 33.9935 24.7072 33.9931 24.7189 33.9922C24.9931 33.9731 25.1999 33.7354 25.1808 33.4613L25.1225 32.6241Z" fill="#C32C31"/>
<path d="M24.7125 19.3644C24.7125 20.7545 24.5495 22.1453 24.2281 23.4981L24.0603 24.2041C23.9514 24.6625 23.87 25.1353 23.8184 25.6092C23.7887 25.8825 23.986 26.1281 24.2593 26.1579C24.2776 26.1599 24.2958 26.1608 24.3137 26.1608C24.5644 26.1608 24.7802 25.9719 24.8079 25.717C24.855 25.2841 24.9293 24.8525 25.0287 24.4343L25.0711 24.2557C25.1625 24.5432 25.2705 24.8264 25.3965 25.1047C25.4797 25.2885 25.6607 25.3973 25.8502 25.3973C25.9188 25.3973 25.9885 25.383 26.0551 25.3529C26.3055 25.2396 26.4166 24.9447 26.3033 24.6943C25.9082 23.8213 25.7078 22.8928 25.7078 21.9344V14.79C25.7078 14.5152 25.4851 14.2924 25.2101 14.2924C24.9352 14.2924 24.7125 14.5152 24.7125 14.79V19.3644Z" fill="#C32C31"/>
<path d="M12.7769 8.99707C12.502 8.99707 12.2792 9.21989 12.2792 9.49474V12.0338C12.2792 12.9223 12.0824 13.8183 11.7101 14.6249L11.315 15.481C11.1998 15.7305 11.3087 16.0262 11.5583 16.1414C11.6259 16.1726 11.6967 16.1873 11.7665 16.1873C11.9546 16.1873 12.1347 16.0801 12.2187 15.8981L12.6138 15.042C13.0461 14.1055 13.2745 13.0653 13.2745 12.0338V9.49474C13.2745 9.21989 13.0517 8.99707 12.7769 8.99707Z" fill="#C32C31"/>
<path d="M19.7797 15.8981C19.8637 16.0801 20.0437 16.1873 20.2318 16.1873C20.3016 16.1873 20.3725 16.1725 20.44 16.1414C20.6896 16.0262 20.7986 15.7306 20.6834 15.481L20.2883 14.6249C19.916 13.8184 19.7192 12.9224 19.7192 12.0338V9.49474C19.7192 9.21989 19.4965 8.99707 19.2215 8.99707C18.9466 8.99707 18.7239 9.21989 18.7239 9.49474V12.0338C18.7239 13.0654 18.9523 14.1056 19.3846 15.042L19.7797 15.8981Z" fill="#C32C31"/>
<path d="M15.2347 6.95548C16.0623 6.95548 16.7356 6.28223 16.7356 5.45464C16.7356 4.62704 16.0623 3.9538 15.2347 3.9538C14.4071 3.9538 13.7339 4.62704 13.7339 5.45464C13.7339 6.28223 14.4071 6.95548 15.2347 6.95548ZM15.2347 4.94914C15.5135 4.94914 15.7402 5.17587 15.7402 5.45464C15.7402 5.7334 15.5135 5.96014 15.2347 5.96014C14.956 5.96014 14.7292 5.7334 14.7292 5.45464C14.7292 5.17587 14.956 4.94914 15.2347 4.94914Z" fill="#C32C31"/>
<path d="M10.5899 12.9409C10.5899 12.1467 9.94383 11.5005 9.14955 11.5005C8.35534 11.5005 7.70923 12.1466 7.70923 12.9409C7.70923 13.7351 8.35534 14.3812 9.14955 14.3812C9.94383 14.3812 10.5899 13.7351 10.5899 12.9409ZM9.14962 13.3859C8.90423 13.3859 8.70463 13.1863 8.70463 12.9409C8.70463 12.6955 8.90423 12.4958 9.14962 12.4958C9.395 12.4958 9.59467 12.6954 9.59467 12.9409C9.5946 13.1863 9.395 13.3859 9.14962 13.3859Z" fill="#C32C31"/>
<path d="M14.8905 22.0092C15.7762 22.0092 16.4969 21.2886 16.4969 20.4029C16.4969 19.5171 15.7762 18.7965 14.8905 18.7965C14.0048 18.7965 13.2842 19.5171 13.2842 20.4029C13.2842 21.2886 14.0048 22.0092 14.8905 22.0092ZM14.8905 19.7918C15.2274 19.7918 15.5015 20.066 15.5015 20.4029C15.5015 20.7397 15.2274 21.0139 14.8905 21.0139C14.5536 21.0139 14.2795 20.7397 14.2795 20.4029C14.2795 20.066 14.5536 19.7918 14.8905 19.7918Z" fill="#C32C31"/>
<path d="M11.1103 25.6154C10.3128 25.6154 9.66406 26.2641 9.66406 27.0615C9.66406 27.8589 10.3128 28.5077 11.1103 28.5077C11.9078 28.5077 12.5565 27.859 12.5565 27.0615C12.5565 26.2641 11.9078 25.6154 11.1103 25.6154ZM11.1103 27.5124C10.8617 27.5124 10.6594 27.3102 10.6594 27.0615C10.6594 26.8129 10.8617 26.6107 11.1103 26.6107C11.3589 26.6107 11.5612 26.8129 11.5612 27.0615C11.5612 27.3101 11.3589 27.5124 11.1103 27.5124Z" fill="#C32C31"/>
<path d="M18.7783 22.6967C17.9808 22.6967 17.332 23.3455 17.332 24.1429C17.332 24.9404 17.9808 25.5892 18.7783 25.5892C19.5757 25.5892 20.2245 24.9404 20.2245 24.1429C20.2245 23.3455 19.5757 22.6967 18.7783 22.6967ZM18.7783 24.5938C18.5296 24.5938 18.3274 24.3916 18.3274 24.1429C18.3274 23.8943 18.5296 23.6921 18.7783 23.6921C19.0269 23.6921 19.2291 23.8943 19.2291 24.1429C19.2291 24.3916 19.0269 24.5938 18.7783 24.5938Z" fill="#C32C31"/>
<path d="M18.0057 29.6633H17.912C17.8939 29.4197 17.8276 29.1893 17.7226 28.9817L17.8852 28.819C18.0796 28.6247 18.0796 28.3095 17.8852 28.1152C17.6908 27.9209 17.3758 27.9209 17.1814 28.1152L17.0482 28.2484C16.9084 28.1624 16.756 28.0951 16.5947 28.0492V27.8775C16.5947 27.6026 16.3719 27.3798 16.097 27.3798C15.8222 27.3798 15.5993 27.6026 15.5993 27.8775V28.0492C15.438 28.0951 15.2856 28.1624 15.1458 28.2484L15.0126 28.1152C14.8183 27.9209 14.5031 27.9209 14.3088 28.1152C14.1145 28.3096 14.1145 28.6247 14.3088 28.819L14.4715 28.9817C14.3665 29.1893 14.3003 29.4197 14.282 29.6633H14.1883C13.9135 29.6633 13.6907 29.8861 13.6907 30.1609C13.6907 30.4358 13.9135 30.6586 14.1883 30.6586H14.282C14.3002 30.9022 14.3664 31.1325 14.4715 31.3402L14.3088 31.5028C14.1145 31.6972 14.1145 32.0123 14.3088 32.2066C14.406 32.3038 14.5334 32.3524 14.6607 32.3524C14.7881 32.3524 14.9155 32.3038 15.0126 32.2066L15.1458 32.0734C15.2856 32.1594 15.438 32.2268 15.5993 32.2727V32.4444C15.5993 32.7192 15.8222 32.942 16.097 32.942C16.3719 32.942 16.5947 32.7192 16.5947 32.4444V32.2727C16.756 32.2268 16.9084 32.1595 17.0482 32.0734L17.1814 32.2066C17.2786 32.3038 17.406 32.3524 17.5333 32.3524C17.6607 32.3524 17.7881 32.3038 17.8853 32.2066C18.0797 32.0123 18.0797 31.6971 17.8853 31.5028L17.7227 31.3402C17.8276 31.1325 17.8939 30.9022 17.9121 30.6586H18.0058C18.2807 30.6586 18.5035 30.4358 18.5035 30.1609C18.5035 29.8861 18.2806 29.6633 18.0057 29.6633ZM16.097 31.3471C15.6419 31.3471 15.2717 30.9768 15.2717 30.5218V29.8002C15.2717 29.3451 15.6419 28.9748 16.097 28.9748C16.5521 28.9748 16.9223 29.3451 16.9223 29.8002V30.5218C16.9223 30.9768 16.5521 31.3471 16.097 31.3471Z" fill="#C32C31"/>
<path d="M26.7677 28.667H26.3314C26.2835 28.4794 26.2088 28.3024 26.1121 28.1399L26.4213 27.8307C26.6157 27.6363 26.6157 27.3212 26.4213 27.1269C26.2269 26.9325 25.9119 26.9325 25.7175 27.1269L25.4083 27.436C25.2459 27.3394 25.0689 27.2647 24.8812 27.2167V26.7804C24.8812 26.5056 24.6585 26.2828 24.3835 26.2828C24.1086 26.2828 23.8859 26.5056 23.8859 26.7804V27.2167C23.6982 27.2647 23.5213 27.3394 23.3587 27.436L23.0496 27.1269C22.8552 26.9325 22.5401 26.9325 22.3458 27.1269C22.1514 27.3212 22.1514 27.6364 22.3458 27.8307L22.6549 28.1398C22.5582 28.3023 22.4836 28.4793 22.4356 28.6669H21.9994C21.7245 28.6669 21.5017 28.8898 21.5017 29.1646C21.5017 29.4395 21.7245 29.6623 21.9994 29.6623H22.4356C22.4836 29.8499 22.5582 30.027 22.6549 30.1894L22.3458 30.4986C22.1514 30.6929 22.1514 31.008 22.3458 31.2023C22.443 31.2995 22.5704 31.3481 22.6977 31.3481C22.825 31.3481 22.9524 31.2996 23.0497 31.2023L23.3588 30.8932C23.5213 30.9899 23.6983 31.0645 23.8859 31.1125V31.5488C23.8859 31.8236 24.1087 32.0465 24.3836 32.0465C24.6585 32.0465 24.8813 31.8236 24.8813 31.5488V31.1125C25.0689 31.0645 25.246 30.9899 25.4084 30.8932L25.7176 31.2023C25.8148 31.2995 25.9422 31.3481 26.0695 31.3481C26.1969 31.3481 26.3243 31.2996 26.4215 31.2023C26.6158 31.008 26.6158 30.6929 26.4215 30.4986L26.1123 30.1894C26.2089 30.0269 26.2836 29.8499 26.3316 29.6622H26.7679C27.0428 29.6622 27.2655 29.4394 27.2655 29.1645C27.2655 28.8897 27.0426 28.667 26.7677 28.667ZM24.3835 28.1496C24.9432 28.1496 25.3985 28.605 25.3985 29.1647C25.3985 29.7244 24.9432 30.1797 24.3835 30.1797C23.8238 30.1797 23.3684 29.7244 23.3684 29.1647C23.3684 28.605 23.8238 28.1496 24.3835 28.1496Z" fill="#C32C31"/>
</svg>
