<svg width="18" height="18" viewBox="0 0 18 18" fill="none" xmlns="http://www.w3.org/2000/svg">
<path d="M13.6538 0.638144C13.9023 0.576103 14.1616 0.571444 14.4122 0.62452C14.6628 0.677595 14.898 0.787013 15.1 0.944481C15.302 1.10195 15.4655 1.30333 15.5781 1.53338C15.6907 1.76342 15.7495 2.01608 15.75 2.27221V3.64471H16.3125C16.7601 3.64471 17.1893 3.8225 17.5057 4.13896C17.8222 4.45543 18 4.88465 18 5.33221V15.4572C18 15.9048 17.8222 16.334 17.5057 16.6504C17.1893 16.9669 16.7601 17.1447 16.3125 17.1447H1.6875C1.23995 17.1447 0.810725 16.9669 0.494257 16.6504C0.177789 16.334 0 15.9048 0 15.4572V5.33221C5.3434e-05 4.89767 0.167726 4.47991 0.468101 4.16591C0.768475 3.85192 1.1784 3.66589 1.6125 3.64658L13.6547 0.637206L13.6538 0.638144ZM6.25688 3.64564H14.625V2.27314C14.6247 2.18788 14.605 2.1038 14.5674 2.02727C14.5298 1.95074 14.4753 1.88375 14.4081 1.83137C14.3408 1.77899 14.2625 1.74259 14.1791 1.72493C14.0956 1.70726 14.0093 1.70879 13.9266 1.72939L6.25781 3.64564H6.25688ZM1.6875 4.77064C1.61363 4.77064 1.54049 4.78519 1.47224 4.81346C1.40399 4.84173 1.34199 4.88316 1.28975 4.9354C1.23752 4.98763 1.19609 5.04964 1.16782 5.11788C1.13955 5.18613 1.125 5.25927 1.125 5.33314V15.4581C1.125 15.532 1.13955 15.6052 1.16782 15.6734C1.19609 15.7416 1.23752 15.8037 1.28975 15.8559C1.34199 15.9081 1.40399 15.9496 1.47224 15.9778C1.54049 16.0061 1.61363 16.0206 1.6875 16.0206H16.3125C16.4617 16.0206 16.6048 15.9614 16.7102 15.8559C16.8157 15.7504 16.875 15.6073 16.875 15.4581V5.33314C16.875 5.18396 16.8157 5.04088 16.7102 4.9354C16.6048 4.82991 16.4617 4.77064 16.3125 4.77064H1.6875Z" fill="#00040A"/>
</svg>
