<svg width="17" height="18" viewBox="0 0 17 18" fill="none" xmlns="http://www.w3.org/2000/svg">
<path d="M12.8939 1.50631H12.626V1.17131C12.626 0.893353 12.4006 0.667969 12.1227 0.667969C11.8447 0.667969 11.6193 0.893353 11.6193 1.17131V1.50631H5.20901V1.17131C5.20901 0.893353 4.98363 0.667969 4.70568 0.667969C4.42772 0.667969 4.20234 0.893353 4.20234 1.17131V1.50631H3.93613C2.04134 1.50631 0.5 3.04764 0.5 4.94243V13.8985C0.5 15.7933 2.04134 17.3346 3.93613 17.3346H12.8922C14.787 17.3346 16.3283 15.7933 16.3283 13.8985V4.9402C16.3278 3.04708 14.7876 1.50631 12.8939 1.50631ZM3.93613 2.51299H4.20234V2.84799C4.20234 3.12594 4.42772 3.35132 4.70568 3.35132C4.98363 3.35132 5.20901 3.12594 5.20901 2.84799V2.51299H11.6193V2.84799C11.6193 3.12594 11.8447 3.35132 12.1227 3.35132C12.4006 3.35132 12.626 3.12594 12.626 2.84799V2.51299H12.8939C14.2322 2.51299 15.3211 3.60188 15.3211 4.9402V6.11913H1.50668V4.94243C1.50668 3.60299 2.59669 2.51299 3.93613 2.51299ZM12.8922 16.3274H3.93613C2.59669 16.3274 1.50668 15.2374 1.50668 13.898V7.12581H15.3211V13.898C15.3216 15.2374 14.2316 16.3274 12.8922 16.3274Z" fill="#323232"/>
<path d="M5.264 9.56836H4.476C4.19804 9.56836 3.97266 9.79374 3.97266 10.0717C3.97266 10.3497 4.19804 10.575 4.476 10.575H5.264C5.54195 10.575 5.76734 10.3497 5.76734 10.0717C5.76734 9.79374 5.54195 9.56836 5.264 9.56836Z" fill="#323232"/>
<path d="M8.80843 9.56836H8.02043C7.74247 9.56836 7.51709 9.79374 7.51709 10.0717C7.51709 10.3497 7.74247 10.575 8.02043 10.575H8.80843C9.08639 10.575 9.31177 10.3497 9.31177 10.0717C9.31177 9.79374 9.08639 9.56836 8.80843 9.56836Z" fill="#323232"/>
<path d="M11.5649 10.575H12.3529C12.6308 10.575 12.8562 10.3497 12.8562 10.0717C12.8562 9.79374 12.6308 9.56836 12.3529 9.56836H11.5649C11.2869 9.56836 11.0615 9.79374 11.0615 10.0717C11.0615 10.3497 11.2869 10.575 11.5649 10.575Z" fill="#323232"/>
<path d="M5.264 12.8789H4.476C4.19804 12.8789 3.97266 13.1043 3.97266 13.3822C3.97266 13.6602 4.19804 13.8856 4.476 13.8856H5.264C5.54195 13.8856 5.76734 13.6602 5.76734 13.3822C5.76734 13.1043 5.54195 12.8789 5.264 12.8789Z" fill="#323232"/>
<path d="M8.80843 12.8789H8.02043C7.74247 12.8789 7.51709 13.1043 7.51709 13.3822C7.51709 13.6602 7.74247 13.8856 8.02043 13.8856H8.80843C9.08639 13.8856 9.31177 13.6602 9.31177 13.3822C9.31177 13.1043 9.08639 12.8789 8.80843 12.8789Z" fill="#323232"/>
<path d="M12.3529 12.8789H11.5649C11.2869 12.8789 11.0615 13.1043 11.0615 13.3822C11.0615 13.6602 11.2869 13.8856 11.5649 13.8856H12.3529C12.6308 13.8856 12.8562 13.6602 12.8562 13.3822C12.8562 13.1043 12.6314 12.8789 12.3529 12.8789Z" fill="#323232"/>
</svg>
