<svg width="20" height="20" viewBox="0 0 20 20" fill="none" xmlns="http://www.w3.org/2000/svg">
<path d="M18.9867 14.4856V17.2007C18.9877 17.4527 18.9361 17.7022 18.8351 17.9332C18.7341 18.1641 18.586 18.3714 18.4003 18.5418C18.2146 18.7122 17.9953 18.8419 17.7565 18.9227C17.5178 19.0034 17.2647 19.0334 17.0137 19.0107C14.2288 18.7081 11.5537 17.7565 9.20329 16.2323C7.01658 14.8428 5.16263 12.9888 3.7731 10.8021C2.24357 8.44106 1.29172 5.75293 0.994651 2.95548C0.972034 2.70521 1.00178 2.45297 1.08199 2.21482C1.1622 1.97668 1.29111 1.75784 1.46053 1.57225C1.62995 1.38665 1.83615 1.23837 2.06602 1.13684C2.29588 1.0353 2.54437 0.982746 2.79566 0.98251H5.51076C5.94998 0.978187 6.37578 1.13372 6.70881 1.42012C7.04183 1.70652 7.25935 2.10425 7.32082 2.53916C7.43542 3.40806 7.64795 4.26119 7.95435 5.0823C8.07611 5.40624 8.10247 5.75829 8.03028 6.09674C7.9581 6.43519 7.79041 6.74585 7.54708 6.99192L6.39769 8.14131C7.68605 10.4071 9.56209 12.2831 11.8279 13.5715L12.9773 12.4221C13.2233 12.1788 13.534 12.0111 13.8725 11.9389C14.2109 11.8667 14.563 11.8931 14.8869 12.0148C15.708 12.3212 16.5611 12.5338 17.43 12.6484C17.8697 12.7104 18.2712 12.9318 18.5582 13.2706C18.8452 13.6093 18.9977 14.0417 18.9867 14.4856Z" stroke="#66686C" stroke-width="1.81006" stroke-linecap="round" stroke-linejoin="round"/>
</svg>
