<svg width="18" height="18" viewBox="0 0 18 18" fill="none" xmlns="http://www.w3.org/2000/svg">
<path d="M9.11584 18C8.6725 17.9976 8.2319 17.9312 7.808 17.803C7.34315 17.6622 6.89383 17.4756 6.46686 17.2459C5.88298 16.9495 5.32519 16.6055 4.79931 16.2175C4.32599 15.8515 3.87864 15.4539 3.46039 15.0275C2.89386 14.4681 2.3654 13.896 1.93083 13.3705C1.45019 12.8112 1.03518 12.2 0.693728 11.5485L0.664862 11.489V11.4871L0.658201 11.4734V11.4702V11.4671L0.624577 11.396L0.622357 11.3913L0.620136 11.3866L0.588416 11.318L0.584292 11.3093V11.3068L0.560819 11.2554L0.553523 11.2394L0.548131 11.2272L0.54369 11.2175V11.2156L0.519265 11.1608L0.516727 11.1546L0.510066 11.1486L0.4812 11.0822L0.476442 11.0713L0.448211 11.0039L0.446308 10.9995L0.444404 10.9952L0.417759 10.9294L0.414587 10.9216L0.388894 10.8567V10.8546L0.385404 10.8458L0.360979 10.7832L0.358759 10.7769L0.355904 10.7697C0.348291 10.7496 0.340996 10.7296 0.333383 10.7089V10.7049L0.328942 10.6926C0.320377 10.6695 0.313716 10.6504 0.307689 10.6335V10.6297L0.302931 10.6156L0.278189 10.5536L0.272162 10.5354L0.252813 10.4778L0.24964 10.4687L0.247103 10.4597C0.240124 10.4384 0.234415 10.4199 0.229022 10.403L0.22363 10.3851L0.208087 10.3344L0.205232 10.3247V10.3228L0.20206 10.3118L0.186199 10.2617L0.183662 10.2533L0.181124 10.2404C0.175732 10.2207 0.170974 10.2035 0.166533 10.1872L0.163361 10.1778L0.160506 10.1675C0.156382 10.1515 0.151624 10.1343 0.146866 10.1149L0.142108 10.0961V10.0917C0.138619 10.0776 0.133861 10.0604 0.12942 10.0403L0.122758 10.0156C0.118952 10.0002 0.115145 9.98427 0.111022 9.96486L0.108484 9.95296L0.105629 9.94043C0.101823 9.92352 0.0983336 9.90661 0.0948443 9.89001L0.0910379 9.86684C0.0885002 9.85494 0.0862798 9.84303 0.0837422 9.83113V9.82487V9.81955V9.81767L0.0789841 9.79262V9.78948L0.0723228 9.75284C0.0701023 9.74126 0.0681991 9.72967 0.0662959 9.71808L0.0599518 9.67988C0.0580485 9.66892 0.0564625 9.65796 0.0545593 9.64856C0.0526561 9.63917 0.0504356 9.62132 0.0482152 9.60754L0.046312 9.59407L0.0444087 9.5806C0.0421883 9.56463 0.0399679 9.54929 0.0380646 9.53332L0.0307689 9.50889V9.50451C0.0275968 9.48634 0.0275969 9.47131 0.0244248 9.45753C0.0244248 9.44908 0.0225216 9.44062 0.02157 9.43217V9.42903C0.0199839 9.414 0.0183979 9.39772 0.0168119 9.38269C0.0168119 9.37392 0.0152258 9.36483 0.0142742 9.35607V9.35419C0.0130054 9.34124 0.0118423 9.3283 0.010785 9.31536C0.010785 9.30377 0.00888174 9.29249 0.00824733 9.28091C0.00761292 9.26932 0.00666131 9.25805 0.00570969 9.24677C0.00570969 9.23393 0.00412367 9.22109 0.00348926 9.20794C0.00285485 9.19479 0.00348926 9.18633 0.00158603 9.17662C-0.000317206 9.16691 0.00158603 9.15063 0 9.13779V9.13591C0 9.12495 0 9.11399 0 9.10303C0 9.09207 0 9.08581 0 9.07735V9.06482C0 9.05292 0 9.04071 0 9.02881C0 9.01691 0 9.00939 0 8.99969V8.92672C0 8.91169 0 8.89666 0 8.88162C0 8.87098 0 8.86033 0 8.85031C0 8.84029 0 8.82369 0 8.81022C0 8.80271 0 8.7955 0 8.78799V8.77703C0 8.76012 -2.9542e-10 8.74571 0.00222044 8.73131C0.00222044 8.72285 0.00222044 8.71408 0.00222044 8.70563C0.00222044 8.69185 0.00380646 8.67713 0.00507528 8.65959C0.00507528 8.65145 0.00507528 8.64299 0.00697851 8.63485C0.00697851 8.61919 0.00951615 8.60353 0.010785 8.58788V8.57253V8.56157C0.0122653 8.54591 0.0138513 8.53025 0.0155431 8.5146L0.0180807 8.48986V8.48485C0.0180807 8.47075 0.0212527 8.45541 0.0237904 8.43725C0.0237904 8.43161 0.0237904 8.42597 0.0260108 8.42033V8.41219V8.40906C0.0279141 8.3934 0.0301345 8.37774 0.0323549 8.36209L0.035527 8.33985C0.0380646 8.32294 0.0406023 8.30603 0.0431399 8.28943L0.046312 8.27064V8.26782C0.0488496 8.25216 0.0517044 8.23494 0.0551937 8.21521L0.0590002 8.19329C0.0621722 8.17513 0.0656615 8.15665 0.0691507 8.13817L0.0720056 8.12377V8.11594C0.0754948 8.09778 0.0793013 8.07899 0.0831077 8.06082L0.0862798 8.04517V8.04235C0.0900863 8.02418 0.0942099 8.00539 0.0983336 7.98692V7.98097L0.100871 7.96938C0.104678 7.95216 0.109119 7.93399 0.114194 7.9127L0.118318 7.8961C0.122758 7.87825 0.127516 7.85883 0.133543 7.83503L0.135764 7.82658L0.137667 7.81969C0.14306 7.79871 0.148769 7.77741 0.155113 7.75424L0.156699 7.74829L0.158603 7.74171C0.164947 7.71885 0.170656 7.69849 0.176049 7.67908L0.180173 7.66467C0.185565 7.64619 0.192226 7.62427 0.198888 7.60204V7.59953L0.202377 7.58826C0.209355 7.56571 0.216334 7.54379 0.222678 7.52375L0.226167 7.51279C0.233146 7.49118 0.240759 7.468 0.24964 7.4417L0.251544 7.43575V7.43356C0.259474 7.40976 0.268038 7.38564 0.275651 7.36341L0.279458 7.35307C0.287388 7.33021 0.295952 7.30704 0.303883 7.28543L0.305786 7.28042L0.307689 7.27541C0.317522 7.2491 0.32577 7.2275 0.333383 7.20683L0.336555 7.19837C0.345754 7.17488 0.35527 7.15046 0.365103 7.12572L0.367006 7.12102C0.376523 7.09691 0.38699 7.07154 0.398727 7.04335L0.400947 7.03803C0.411732 7.01204 0.421883 6.98761 0.432668 6.96381L0.436157 6.95567C0.445356 6.93406 0.455507 6.91089 0.467878 6.88302L0.471684 6.87456C0.4812 6.85327 0.491668 6.82946 0.505308 6.80003L0.508163 6.79376C0.522437 6.76245 0.534491 6.73677 0.545593 6.71328C1.20665 5.31031 2.19506 4.33324 3.1527 3.38874L3.17173 3.36995C3.72875 2.82004 4.24865 2.3506 4.76093 1.93504C5.34684 1.45464 5.97112 1.0218 6.62768 0.640732C6.99267 0.42631 7.38431 0.259567 7.79278 0.144681C8.14283 0.0491533 8.50429 0.000490849 8.86747 0C9.35585 0.00348041 9.84046 0.0849101 10.3025 0.241136C10.7446 0.390274 11.1725 0.577755 11.5812 0.801385C12.2338 1.14742 12.86 1.54013 13.4546 1.97637C14.0142 2.38793 14.543 2.83891 15.0368 3.32579C15.5522 3.84056 16.024 4.3962 16.4474 4.98713C16.8431 5.51471 17.1696 6.08953 17.4193 6.69794C17.5821 7.12342 17.7204 7.55763 17.8336 7.9985C17.9323 8.3817 17.9878 8.7745 17.9992 9.16973C18.007 9.55707 17.9595 9.94355 17.858 10.3178C17.7385 10.746 17.5687 11.1589 17.3521 11.5482C17.0435 12.1194 16.6825 12.6615 16.2736 13.1676C15.8663 13.6643 15.4304 14.1374 14.968 14.5846C14.4684 15.0778 13.9421 15.5438 13.3914 15.9807C12.8151 16.4389 12.2106 16.8614 11.5815 17.2459C10.8487 17.723 9.99352 17.9845 9.11584 18ZM10.4655 16.0051C10.0996 16.2178 9.70421 16.3769 9.29189 16.4774C9.70421 16.3769 10.0996 16.2179 10.4655 16.0051ZM5.08068 15.2868C5.11906 15.3124 5.15871 15.3384 5.19836 15.3638C5.15458 15.3356 5.1162 15.3102 5.08068 15.2868ZM3.74143 14.1835L3.809 14.2483L3.74143 14.1835ZM4.38758 7.87794L4.36665 7.92272V7.92616L4.34793 7.9675L4.34603 7.9722L4.32826 8.0126V8.01479V8.01698L4.31082 8.05832V8.06114L4.29337 8.10404V8.10592L4.27751 8.14632V8.14913V8.15164L4.26324 8.18953L4.26133 8.19423L4.24769 8.23181V8.23494V8.23745C4.24325 8.24935 4.23913 8.26219 4.23437 8.27628V8.27941C4.22898 8.29538 4.22486 8.30728 4.22137 8.31887L4.21946 8.32482L4.20836 8.36083L4.20614 8.36835C4.20255 8.37983 4.19906 8.39131 4.19567 8.4028V8.40687V8.41094L4.18584 8.44539L4.16966 8.45541L4.16776 8.46292L4.16015 8.49111L4.15793 8.49957C4.15507 8.51084 4.15222 8.52211 4.14936 8.53339L4.14714 8.54247L4.13984 8.57378L4.13794 8.58255L4.1354 8.59445L4.13128 8.61356V8.61857V8.62389L4.12589 8.64988V8.65489L4.11954 8.67118L4.11574 8.69122L4.11383 8.70187V8.70657V8.71314C4.11225 8.72285 4.11066 8.73225 4.10908 8.74195L4.10717 8.75385L4.10305 8.78204L4.10115 8.79394C4.10115 8.80333 4.09861 8.81242 4.09734 8.82181V8.82901V8.83622C4.09734 8.84498 4.09512 8.85375 4.09417 8.86252V8.87129V8.87912V8.88757C4.09417 8.89352 4.09417 8.89947 4.09258 8.90511V8.91983V8.92766C4.09258 8.93361 4.09258 8.93987 4.09258 8.94582C4.09258 8.95177 4.09258 8.9549 4.09258 8.9596C4.09258 8.9643 4.09258 8.97589 4.09099 8.98403C4.09099 8.98716 4.09099 8.99029 4.09099 8.99374V8.99937C4.09099 9.00751 4.09099 9.01566 4.09099 9.02411C4.09099 9.03257 4.09099 9.03601 4.09099 9.04196C4.09099 9.04885 4.09099 9.05606 4.09099 9.06295V9.08267C4.09099 9.0905 4.09099 9.09833 4.09099 9.10616V9.16284C4.09099 9.16942 4.09099 9.17631 4.09099 9.18289C4.09099 9.18946 4.09099 9.19698 4.09099 9.20418V9.22235C4.09099 9.22986 4.09099 9.23738 4.09099 9.24489V9.25397V9.26306C4.09099 9.26807 4.09099 9.27276 4.09099 9.27777V9.28529V9.295V9.30439C4.09099 9.31066 4.09099 9.31723 4.09099 9.3235V9.33414V9.34573V9.36014C4.09099 9.36859 4.09258 9.37705 4.09353 9.3855C4.09353 9.38895 4.09353 9.39208 4.09353 9.39552V9.40116C4.09353 9.40993 4.09544 9.41839 4.0967 9.42684V9.43342V9.44219L4.09861 9.45534L4.10019 9.46724L4.10241 9.48227V9.48979L4.10463 9.50419V9.51171V9.52079L4.10654 9.53144V9.54052V9.5496L4.10844 9.55994L4.11257 9.58123V9.58718L4.11479 9.59908V9.60503L4.11796 9.62132L4.1205 9.63322C4.1224 9.64261 4.12441 9.6519 4.12652 9.66109L4.12938 9.67455L4.13382 9.69366L4.13572 9.70243V9.709V9.71495L4.14238 9.74251L4.14555 9.75535C4.14841 9.76662 4.15095 9.77602 4.15317 9.78447L4.15634 9.79637L4.16427 9.82487L4.16586 9.83051L4.16744 9.83615C4.16998 9.84554 4.17283 9.85462 4.17537 9.86402L4.17886 9.87623L4.18743 9.90473L4.18901 9.91005V9.91475L4.19884 9.94607V9.95076V9.95577L4.20392 9.97081L4.20931 9.98678L4.21153 9.99304V9.9968L4.21978 10.0209L4.22232 10.0281L4.22581 10.0378V10.0422L4.23564 10.0698L4.23881 10.0788L4.2515 10.1127L4.2534 10.1174V10.1205L4.26704 10.1559L4.26958 10.1621L4.28386 10.1982L4.28576 10.2025L4.29845 10.2339L4.30067 10.2392V10.2414V10.2442C4.30574 10.2564 4.31114 10.2689 4.31653 10.2815L4.31843 10.2862L4.33429 10.3231L4.33651 10.3284L4.34888 10.3563L4.35237 10.3641L4.35554 10.371L4.37236 10.4083V10.4105L4.37426 10.4146L4.39202 10.4528V10.4559V10.4581L4.3971 10.4687L4.41074 10.4979V10.4997L4.4174 10.5132L4.43072 10.5411C4.8449 11.2556 5.36219 11.9068 5.96631 12.4742C6.44566 12.9783 7.01094 13.3952 7.6364 13.7062C8.08373 13.965 8.58966 14.109 9.10791 14.1249C9.59545 14.1164 10.0705 13.9712 10.4776 13.7062C11.1598 13.2861 11.7909 12.7902 12.3586 12.2281C12.8862 11.7372 13.3332 11.1681 13.6833 10.5414C14.2035 9.5806 14.1039 8.88162 13.7207 7.84819C13.4101 7.15913 12.9726 6.53304 12.4303 6.00177C11.8632 5.44442 11.2166 4.97197 10.5109 4.59943C10.0537 4.33045 9.53618 4.17755 9.0045 4.15442C8.56768 4.15899 8.14023 4.28007 7.7674 4.50485C7.06284 4.92478 6.41738 5.4345 5.84768 6.02088L5.83753 6.0309C5.24466 6.55452 4.75371 7.18069 4.38885 7.87856L4.38758 7.87794ZM3.53684 13.9846L3.65452 14.0999L3.53684 13.9846ZM13.8669 13.2988C13.7746 13.3927 13.6766 13.4911 13.5723 13.5944C13.4501 13.715 13.3248 13.8349 13.1976 13.953C13.3245 13.8349 13.4514 13.715 13.5723 13.5944C13.6773 13.4904 13.775 13.3921 13.8669 13.2982V13.2988ZM15.7207 10.816C15.6985 10.8589 15.6756 10.9025 15.6522 10.946C15.4989 11.2299 15.3305 11.5057 15.1478 11.7721C15.3305 11.5057 15.4989 11.2299 15.6522 10.946C15.676 10.9018 15.6975 10.8583 15.721 10.8151L15.7207 10.816ZM15.9307 7.349C16.0455 7.6978 16.1296 8.05571 16.1822 8.41877C16.1303 8.05528 16.0462 7.697 15.9307 7.34806V7.349ZM13.1469 3.31953C13.3137 3.46734 13.4756 3.61881 13.6325 3.77393C14.0823 4.22298 14.4939 4.70771 14.8633 5.22325C15.0238 5.44748 15.1688 5.667 15.294 5.8762C14.8281 5.11184 14.2702 4.40596 13.6325 3.77393C13.476 3.61839 13.3142 3.46693 13.1469 3.31953ZM10.2549 1.38669C10.3707 1.4418 10.4897 1.50193 10.6181 1.5702C10.9743 1.7581 11.3249 1.96604 11.6595 2.18431C11.3255 1.9651 10.975 1.75966 10.6184 1.5702C10.4897 1.50318 10.371 1.44055 10.2549 1.38669ZM4.60074 10.0156C4.54093 9.87814 4.49048 9.73691 4.44975 9.59282C4.3987 9.41402 4.36962 9.22981 4.36316 9.04416C4.38078 9.37952 4.46146 9.70873 4.60106 10.015L4.60074 10.0156Z" fill="#53B7D1"/>
</svg>
