<svg width="20" height="20" viewBox="0 0 20 20" fill="none" xmlns="http://www.w3.org/2000/svg">
<circle opacity="0.2" cx="10" cy="10" r="7" fill="white"/>
<path d="M19.4118 9.41177H17.6171C17.5451 8.47117 17.2981 7.55229 16.8888 6.70235L18.4447 5.80353C18.6282 5.6992 18.7417 5.50455 18.7422 5.29346C18.7427 5.08237 18.63 4.88722 18.447 4.78209C18.2639 4.67695 18.0386 4.67795 17.8565 4.78471L16.3047 5.68118C15.77 4.90352 15.0971 4.2306 14.3194 3.69588L15.2153 2.14353C15.3221 1.96143 15.3231 1.73609 15.2179 1.55305C15.1128 1.37001 14.9176 1.25733 14.7065 1.2578C14.4955 1.25826 14.3008 1.37179 14.1965 1.55529L13.2976 3.11118C12.4478 2.70163 11.5289 2.45464 10.5882 2.38294V0.588235C10.5882 0.263362 10.3249 0 10 0C9.67513 0 9.41177 0.263362 9.41177 0.588235V2.38294C8.47112 2.45464 7.55219 2.70163 6.70235 3.11118L5.80353 1.55529C5.6992 1.37179 5.50455 1.25826 5.29346 1.2578C5.08238 1.25733 4.88722 1.37001 4.78209 1.55305C4.67695 1.73609 4.67795 1.96143 4.78471 2.14353L5.68059 3.69588C4.90293 4.2306 4.23002 4.90352 3.6953 5.68118L2.14353 4.78471C1.96143 4.67795 1.73609 4.67695 1.55305 4.78209C1.37001 4.88722 1.25733 5.08237 1.2578 5.29346C1.25826 5.50455 1.37179 5.6992 1.55529 5.80353L3.11118 6.70235C2.7019 7.55229 2.45492 8.47117 2.38294 9.41177H0.588235C0.263362 9.41177 0 9.67513 0 10C0 10.3249 0.263362 10.5882 0.588235 10.5882H2.38294C2.45492 11.5288 2.7019 12.4477 3.11118 13.2976L1.55529 14.1965C1.37179 14.3008 1.25826 14.4955 1.2578 14.7065C1.25733 14.9176 1.37001 15.1128 1.55305 15.2179C1.73609 15.323 1.96143 15.3221 2.14353 15.2153L3.6953 14.3188C4.23002 15.0965 4.90293 15.7694 5.68059 16.3041L4.78471 17.8565C4.67795 18.0386 4.67695 18.2639 4.78209 18.447C4.88722 18.63 5.08238 18.7427 5.29346 18.7422C5.50455 18.7417 5.6992 18.6282 5.80353 18.4447L6.70235 16.8888C7.55219 17.2984 8.47112 17.5454 9.41177 17.6171V19.4118C9.41177 19.7366 9.67513 20 10 20C10.3249 20 10.5882 19.7366 10.5882 19.4118V17.6171C11.5289 17.5454 12.4478 17.2984 13.2976 16.8888L14.1965 18.4447C14.3008 18.6282 14.4955 18.7417 14.7065 18.7422C14.9176 18.7427 15.1128 18.63 15.2179 18.447C15.3231 18.2639 15.3221 18.0386 15.2153 17.8565L14.3194 16.3041C15.0971 15.7694 15.77 15.0965 16.3047 14.3188L17.8565 15.2153C18.0386 15.3221 18.2639 15.323 18.447 15.2179C18.63 15.1128 18.7427 14.9176 18.7422 14.7065C18.7417 14.4955 18.6282 14.3008 18.4447 14.1965L16.8888 13.2976C17.2981 12.4477 17.5451 11.5288 17.6171 10.5882H19.4118C19.7366 10.5882 20 10.3249 20 10C20 9.67513 19.7366 9.41177 19.4118 9.41177ZM10 16.4706C6.42639 16.4706 3.52941 13.5736 3.52941 10C3.52941 6.42639 6.42639 3.52941 10 3.52941C13.5736 3.52941 16.4706 6.42639 16.4706 10C16.4664 13.5719 13.5719 16.4664 10 16.4706Z" fill="white"/>
<path d="M7.64752 6.4707C6.6729 6.4707 5.88281 7.26079 5.88281 8.23541C5.88281 9.21003 6.6729 10.0001 7.64752 10.0001C8.62214 10.0001 9.41222 9.21003 9.41222 8.23541C9.41222 7.26079 8.62214 6.4707 7.64752 6.4707ZM7.64752 8.82364C7.32265 8.82364 7.05928 8.56028 7.05928 8.23541C7.05928 7.91054 7.32265 7.64717 7.64752 7.64717C7.97239 7.64717 8.23575 7.91054 8.23575 8.23541C8.23575 8.56028 7.97239 8.82364 7.64752 8.82364Z" fill="white"/>
<path d="M12.3529 9.41156C11.0534 9.41156 10 10.465 10 11.7645C10 13.064 11.0534 14.1174 12.3529 14.1174C13.6524 14.1174 14.7059 13.064 14.7059 11.7645C14.7059 10.465 13.6524 9.41156 12.3529 9.41156ZM12.3529 12.941C11.7032 12.941 11.1765 12.4142 11.1765 11.7645C11.1765 11.1148 11.7032 10.588 12.3529 10.588C13.0027 10.588 13.5294 11.1148 13.5294 11.7645C13.5294 12.4142 13.0027 12.941 12.3529 12.941Z" fill="white"/>
<path d="M11.1761 7.05867C11.501 7.05867 11.7644 6.79531 11.7644 6.47044C11.7644 6.14556 11.501 5.8822 11.1761 5.8822C10.8513 5.8822 10.5879 6.14556 10.5879 6.47044C10.5879 6.79531 10.8513 7.05867 11.1761 7.05867Z" fill="white"/>
<path d="M7.64683 12.9412C7.9717 12.9412 8.23506 12.6779 8.23506 12.353C8.23506 12.0281 7.9717 11.7648 7.64683 11.7648C7.32196 11.7648 7.05859 12.0281 7.05859 12.353C7.05859 12.6779 7.32196 12.9412 7.64683 12.9412Z" fill="white"/>
</svg>
