<svg width="20" height="21" viewBox="0 0 20 21" fill="none" xmlns="http://www.w3.org/2000/svg">
<path d="M2.30634 16.0991C1.63804 16.0991 0.985137 15.9285 0.393421 15.5963C0.0889738 15.4395 -0.0289437 15.0472 0.152932 14.7521C0.757222 13.7865 0.975434 12.6062 0.698759 11.4961C0.411985 10.3453 -0.00295436 9.37606 1.58573e-05 8.15778C0.0103126 3.88359 3.56789 0.418539 7.83772 0.501458C11.9619 0.584525 15.3607 4.05136 15.3608 8.17659C15.3608 13.5642 9.71455 17.3468 4.72988 15.2663C4.04282 15.8056 3.17923 16.0991 2.30634 16.0991ZM1.49428 14.7837C2.43326 15.0753 3.48932 14.8423 4.21341 14.1423C4.39182 13.9698 4.6587 13.9264 4.88255 14.0335C9.15011 16.0738 14.1727 12.8757 14.1726 8.17659C14.1726 4.67005 11.32 1.75989 7.81381 1.6893C4.20044 1.61752 1.19681 4.54397 1.1881 8.16065C1.18528 9.31779 1.63675 10.2426 1.88348 11.3387C2.14342 12.4939 2.00649 13.7154 1.49428 14.7837Z" fill="#00040A"/>
<path d="M17.6939 20.4997C16.821 20.4997 15.9574 20.2062 15.2704 19.667C12.6195 20.7733 9.46624 20.2695 7.29269 18.3924C7.04438 18.178 7.01696 17.8029 7.23136 17.5545C7.44581 17.3062 7.82089 17.2787 8.0692 17.4932C9.99697 19.158 12.8202 19.5325 15.1177 18.4341C15.3415 18.327 15.6083 18.3705 15.7869 18.543C16.5109 19.243 17.567 19.4761 18.506 19.1843C17.9017 17.924 17.818 16.4801 18.2863 15.1434C18.2905 15.1314 18.2951 15.1196 18.3001 15.1078C18.642 14.3016 18.8143 13.4448 18.8122 12.5613C18.8085 11.0035 18.2903 9.5625 17.3135 8.39397C17.1032 8.1422 17.1367 7.7676 17.3884 7.55721C17.6401 7.34677 18.0148 7.38034 18.2252 7.63206C19.3655 8.99643 19.9959 10.7459 20.0003 12.5584C20.0028 13.5965 19.8014 14.604 19.4017 15.5533C18.9818 16.7688 19.1749 18.0702 19.8473 19.1527C20.0293 19.4478 19.9113 19.8401 19.6068 19.997C19.0151 20.3291 18.3621 20.4997 17.6939 20.4997Z" fill="#00040A"/>
<path d="M7.68045 9.14556C8.19958 9.14556 8.62043 8.72494 8.62043 8.20608C8.62043 7.68722 8.19958 7.2666 7.68045 7.2666C7.16132 7.2666 6.74048 7.68722 6.74048 8.20608C6.74048 8.72494 7.16132 9.14556 7.68045 9.14556Z" fill="#00040A"/>
<path d="M4.21829 9.14556C4.73743 9.14556 5.15827 8.72494 5.15827 8.20608C5.15827 7.68722 4.73743 7.2666 4.21829 7.2666C3.69916 7.2666 3.27832 7.68722 3.27832 8.20608C3.27832 8.72494 3.69916 9.14556 4.21829 9.14556Z" fill="#00040A"/>
<path d="M11.1436 9.14556C11.6627 9.14556 12.0836 8.72494 12.0836 8.20608C12.0836 7.68722 11.6627 7.2666 11.1436 7.2666C10.6245 7.2666 10.2036 7.68722 10.2036 8.20608C10.2036 8.72494 10.6245 9.14556 11.1436 9.14556Z" fill="#00040A"/>
</svg>
