<svg width="14" height="12" viewBox="0 0 14 12" fill="none" xmlns="http://www.w3.org/2000/svg">
<path d="M1.0001 7.40039C1.10618 7.40039 1.20793 7.44253 1.28294 7.51755C1.35795 7.59256 1.4001 7.6943 1.4001 7.80039V9.80039C1.4001 10.0126 1.48438 10.216 1.63441 10.3661C1.78444 10.5161 1.98792 10.6004 2.2001 10.6004H11.8001C12.0123 10.6004 12.2158 10.5161 12.3658 10.3661C12.5158 10.216 12.6001 10.0126 12.6001 9.80039V7.80039C12.6001 7.6943 12.6422 7.59256 12.7173 7.51755C12.7923 7.44253 12.894 7.40039 13.0001 7.40039C13.1062 7.40039 13.2079 7.44253 13.2829 7.51755C13.358 7.59256 13.4001 7.6943 13.4001 7.80039V9.80039C13.4001 10.2247 13.2315 10.6317 12.9315 10.9318C12.6314 11.2318 12.2244 11.4004 11.8001 11.4004H2.2001C1.77575 11.4004 1.36878 11.2318 1.06873 10.9318C0.768668 10.6317 0.600098 10.2247 0.600098 9.80039V7.80039C0.600098 7.6943 0.64224 7.59256 0.717255 7.51755C0.792269 7.44253 0.894011 7.40039 1.0001 7.40039Z" fill="black"/>
<path d="M6.71742 8.96263C6.75459 8.99992 6.79874 9.02951 6.84736 9.0497C6.89598 9.06989 6.94811 9.08028 7.00076 9.08028C7.0534 9.08028 7.10553 9.06989 7.15415 9.0497C7.20277 9.02951 7.24693 8.99992 7.28409 8.96263L9.68409 6.56263C9.7213 6.52542 9.75081 6.48125 9.77095 6.43264C9.79109 6.38402 9.80145 6.33192 9.80145 6.2793C9.80145 6.22668 9.79109 6.17457 9.77095 6.12596C9.75081 6.07734 9.7213 6.03317 9.68409 5.99596C9.64688 5.95876 9.60271 5.92924 9.5541 5.9091C9.50548 5.88897 9.45338 5.8786 9.40076 5.8786C9.34814 5.8786 9.29603 5.88897 9.24742 5.9091C9.1988 5.92924 9.15463 5.95876 9.11742 5.99596L7.40009 7.71396V0.679297C7.40009 0.57321 7.35795 0.471469 7.28293 0.396454C7.20792 0.32144 7.10618 0.279297 7.00009 0.279297C6.894 0.279297 6.79226 0.32144 6.71725 0.396454C6.64223 0.471469 6.60009 0.57321 6.60009 0.679297V7.71396L4.88276 5.99596C4.84555 5.95876 4.80138 5.92924 4.75276 5.9091C4.70415 5.88897 4.65204 5.8786 4.59942 5.8786C4.5468 5.8786 4.4947 5.88897 4.44609 5.9091C4.39747 5.92924 4.3533 5.95876 4.31609 5.99596C4.27888 6.03317 4.24937 6.07734 4.22923 6.12596C4.20909 6.17457 4.19873 6.22668 4.19873 6.2793C4.19873 6.33192 4.20909 6.38402 4.22923 6.43264C4.24937 6.48125 4.27888 6.52542 4.31609 6.56263L6.71609 8.96263H6.71742Z" fill="black"/>
</svg>
