<svg width="34" height="40" viewBox="0 0 34 40" fill="none" xmlns="http://www.w3.org/2000/svg">
<path d="M32.1949 11.103C31.161 8.51422 29.0143 6.63224 26.3051 5.9396C23.5849 5.24406 20.7697 5.86197 18.5848 7.67116C18.1663 8.01784 17.5596 7.98027 17.2036 7.58565C16.0695 6.32868 15.2691 4.85053 14.8248 3.1923L14.123 0.573545C14.0326 0.235853 13.7254 0 13.3757 0H10.8248C10.3162 0 9.94579 0.481859 10.0776 0.973793L10.9503 4.23044C11.034 4.54283 11.355 4.72823 11.6677 4.64459C11.9801 4.56087 12.1655 4.23966 12.0818 3.92719L11.3433 1.17146H13.0705L13.6933 3.49547C14.186 5.33434 15.0744 6.97454 16.3339 8.37045C17.1119 9.23256 18.4288 9.32167 19.3335 8.57217C21.2447 6.99024 23.6872 6.47956 26.015 7.07458C28.3576 7.67343 30.2135 9.30019 31.1071 11.5375C33.5537 17.6638 33.0893 23.6712 29.7996 28.4529C27.3951 31.9472 23.5734 34.1245 19.3146 34.4266C15.4255 34.7027 11.6625 33.3894 8.80542 30.7966C8.32067 30.3405 8.04358 29.6946 8.04358 29.0164C8.04358 28.6929 7.78141 28.4307 7.45785 28.4307C7.1343 28.4307 6.87213 28.6929 6.87213 29.0164C6.87213 29.0707 6.87337 29.1249 6.8758 29.1789C6.45142 29.0052 5.98572 28.9372 5.51175 28.9875C4.62301 29.0815 3.8525 29.5768 3.39782 30.3463C2.74594 31.4496 2.93775 32.8672 3.86422 33.7938L8.89906 38.8286H6.53998L2.64949 34.9381C1.22008 33.5087 0.927688 31.2878 1.93842 29.5373C2.55914 28.4621 3.55729 27.7143 4.7489 27.4316C5.93566 27.1501 7.2031 27.3492 8.13948 27.9644C9.38154 28.7804 10.8688 29.0565 12.2194 28.7216C13.6321 28.3715 14.8942 27.5455 15.7735 26.3956C16.1788 25.8654 16.53 25.2808 16.817 24.6579C17.8701 22.3728 17.9385 19.8836 17.0147 17.4594C16.451 15.9803 16.3402 14.3974 16.6911 12.8663C17.5252 12.3591 18.2268 11.6495 18.7245 10.8088C18.8892 10.5305 18.7972 10.1711 18.5187 10.0064C18.2404 9.84172 17.8812 9.93371 17.7164 10.2121C17.4483 10.6651 17.1064 11.0707 16.7083 11.4116C16.5922 11.0625 16.3862 10.7423 16.1005 10.485C14.8486 9.35775 13.8292 8.02354 13.0705 6.51939C12.925 6.23051 12.5727 6.11461 12.2839 6.26018C11.9951 6.40584 11.8789 6.75805 12.0247 7.04694C12.8489 8.68119 13.9564 10.1308 15.3166 11.3556C15.5934 11.6048 15.7074 11.982 15.6142 12.3397C15.135 14.1793 15.2407 16.0939 15.9201 17.8767C16.7292 19.9998 16.6715 22.1752 15.7532 24.1677C15.5022 24.7123 15.1959 25.2225 14.8429 25.6842C14.1248 26.6234 13.093 27.2983 11.9377 27.5846C10.9028 27.8411 9.75274 27.6226 8.78285 26.9854C7.58218 26.1966 5.97315 25.9373 4.47861 26.2919C2.97 26.6498 1.70764 27.5944 0.924017 28.9516C-0.351309 31.1604 0.0176224 33.9629 1.8212 35.7665L5.82812 39.7734C5.97424 39.9196 6.16847 40 6.37512 40H9.85973C10.1738 40 10.4543 39.8126 10.5744 39.5224C10.6945 39.2323 10.6287 38.9014 10.4067 38.6795L4.69251 32.9653C4.14419 32.417 4.0265 31.585 4.40629 30.9421C4.67057 30.4949 5.11838 30.2069 5.63483 30.1523C6.15933 30.0968 6.66689 30.2893 7.02691 30.6801C7.34461 31.0249 7.67551 31.3532 8.01843 31.6645C8.03562 31.6805 8.05725 31.7005 8.07201 31.7129C11.084 34.4214 15.1108 35.8993 19.3974 35.5951C24.0137 35.2676 28.1569 32.9064 30.7645 29.1169C34.2835 24.0021 34.7914 17.6046 32.1949 11.103Z" fill="#C32C31"/>
</svg>
