<svg width="28" height="40" viewBox="0 0 28 40" fill="none" xmlns="http://www.w3.org/2000/svg">
<path d="M14 0C6.56898 0 0.523438 6.04555 0.523438 13.4766C0.523438 16.7551 1.71477 19.9148 3.87797 22.3735C5.90758 24.6805 8.65383 26.2214 11.6562 26.7488V30.5469H9.23438C7.94203 30.5469 6.89062 31.5983 6.89062 32.8906C6.89062 33.5166 7.13445 34.1052 7.57711 34.5479C8.01977 34.9905 8.60836 35.2344 9.23438 35.2344H11.6562V37.6562C11.6562 38.9486 12.7077 40 14 40C15.2923 40 16.3438 38.9486 16.3438 37.6562V35.2344H18.7656C19.3917 35.2344 19.9802 34.9905 20.4229 34.5479C20.8655 34.1052 21.1094 33.5166 21.1094 32.8906C21.1094 31.5983 20.058 30.5469 18.7656 30.5469H16.3438V26.7489C19.3462 26.2215 22.0923 24.6805 24.122 22.3736C26.2852 19.9148 27.4766 16.7551 27.4766 13.4766C27.4766 6.04555 21.431 0 14 0ZM15.6786 25.6668C15.3883 25.7064 15.1719 25.9544 15.1719 26.2473V31.1328C15.1719 31.4564 15.4341 31.7188 15.7578 31.7188H18.7656C19.4118 31.7188 19.9375 32.2445 19.9375 32.8906C19.9375 33.2036 19.8155 33.4979 19.5942 33.7193C19.3729 33.9406 19.0787 34.0625 18.7656 34.0625H15.7578C15.4341 34.0625 15.1719 34.3248 15.1719 34.6484V37.6562C15.1719 38.3024 14.6462 38.8281 14 38.8281C13.3538 38.8281 12.8281 38.3024 12.8281 37.6562V34.6484C12.8281 34.3248 12.5659 34.0625 12.2422 34.0625H9.23438C8.92133 34.0625 8.62711 33.9406 8.40578 33.7193C8.18445 33.4979 8.0625 33.2036 8.0625 32.8906C8.0625 32.2445 8.5882 31.7188 9.23438 31.7188H12.2422C12.5659 31.7188 12.8281 31.4564 12.8281 31.1328V26.2473C12.8281 25.9544 12.6116 25.7064 12.3214 25.6668C6.26352 24.8406 1.69531 19.6 1.69531 13.4766C1.69531 6.69172 7.21516 1.17188 14 1.17188C20.7848 1.17188 26.3047 6.69172 26.3047 13.4766C26.3047 19.6 21.7365 24.8406 15.6786 25.6668Z" fill="#C32C31"/>
<path d="M14 3.51562C11.7652 3.51562 9.65305 4.23922 7.89195 5.6082C7.63641 5.8068 7.59031 6.17492 7.78891 6.43039C7.9875 6.68586 8.3557 6.73195 8.61109 6.53336C10.1647 5.32578 12.0281 4.6875 14 4.6875C18.8463 4.6875 22.7891 8.63023 22.7891 13.4766C22.7891 18.3229 18.8463 22.2656 14 22.2656C9.15375 22.2656 5.21094 18.3229 5.21094 13.4766C5.21094 11.5046 5.84922 9.64117 7.05688 8.08766C7.25547 7.83211 7.2093 7.46406 6.95383 7.26547C6.69844 7.06687 6.33031 7.11289 6.13164 7.36844C4.76266 9.12953 4.03906 11.2417 4.03906 13.4766C4.03906 18.9691 8.5075 23.4375 14 23.4375C19.4925 23.4375 23.9609 18.9691 23.9609 13.4766C23.9609 7.98406 19.4925 3.51562 14 3.51562Z" fill="#C32C31"/>
</svg>
