<svg width="24" height="24" viewBox="0 0 24 24" fill="none" xmlns="http://www.w3.org/2000/svg">
<path d="M12 8.03201C9.8152 8.03201 8.03224 9.81497 8.03224 11.9998C8.03224 14.1846 9.8152 15.9675 12 15.9675C14.1848 15.9675 15.9678 14.1846 15.9678 11.9998C15.9678 9.81497 14.1848 8.03201 12 8.03201ZM23.9003 11.9998C23.9003 10.3567 23.9152 8.72853 23.8229 7.08844C23.7306 5.18344 23.2961 3.49275 21.903 2.09972C20.507 0.703713 18.8193 0.272112 16.9143 0.179838C15.2712 0.087565 13.6431 0.102448 12.003 0.102448C10.3599 0.102448 8.73173 0.087565 7.09164 0.179838C5.18664 0.272112 3.49596 0.70669 2.10293 2.09972C0.706918 3.49573 0.275316 5.18344 0.183043 7.08844C0.0907694 8.7315 0.105652 10.3597 0.105652 11.9998C0.105652 13.6399 0.0907694 15.271 0.183043 16.9111C0.275316 18.8161 0.709894 20.5068 2.10293 21.8998C3.49893 23.2958 5.18664 23.7274 7.09164 23.8197C8.73471 23.912 10.3629 23.8971 12.003 23.8971C13.646 23.8971 15.2742 23.912 16.9143 23.8197C18.8193 23.7274 20.51 23.2928 21.903 21.8998C23.299 20.5038 23.7306 18.8161 23.8229 16.9111C23.9182 15.271 23.9003 13.6428 23.9003 11.9998ZM12 18.1047C8.6216 18.1047 5.89507 15.3782 5.89507 11.9998C5.89507 8.62137 8.6216 5.89484 12 5.89484C15.3784 5.89484 18.1049 8.62137 18.1049 11.9998C18.1049 15.3782 15.3784 18.1047 12 18.1047ZM18.355 7.07058C17.5662 7.07058 16.9292 6.4336 16.9292 5.64481C16.9292 4.85602 17.5662 4.21903 18.355 4.21903C19.1437 4.21903 19.7807 4.85602 19.7807 5.64481C19.781 5.83211 19.7442 6.01762 19.6727 6.1907C19.6011 6.36379 19.4961 6.52106 19.3637 6.6535C19.2312 6.78595 19.0739 6.89096 18.9009 6.96253C18.7278 7.0341 18.5423 7.07081 18.355 7.07058Z" fill="#C32C31"/>
</svg>
