<svg width="30" height="40" viewBox="0 0 30 40" fill="none" xmlns="http://www.w3.org/2000/svg">
<path d="M27.0865 20.7237L26.1801 19.1537C26.0183 18.8735 25.6599 18.7774 25.3797 18.9393C25.0995 19.1011 25.0034 19.4594 25.1652 19.7397L26.0717 21.3096C29.2585 26.8292 28.3264 33.8133 23.8052 38.2936C23.0754 39.0169 21.8823 39.0061 21.1457 38.2694L21.0486 38.1724C19.8934 37.0172 18.5119 36.1032 16.9427 35.4559C10.2619 32.7 7.79805 27.175 7.59023 26.9289C7.11279 25.9962 7.43171 24.8213 8.37502 24.2767L12.1702 22.0855C13.632 21.2415 14.2774 19.5722 13.9267 18.055C15.4339 18.6742 17.1559 18.5729 18.5972 17.741L22.0416 15.7523C22.2062 15.6572 22.398 15.6319 22.5816 15.6812C22.7652 15.7304 22.9185 15.8482 23.0136 16.0127L23.8073 17.3874C23.9696 17.6685 24.3283 17.7633 24.6077 17.6019C24.888 17.4401 24.984 17.0817 24.8222 16.8015L24.0285 15.4267C23.7848 15.0046 23.3961 14.699 22.9302 14.562C23.0395 14.1086 22.9821 13.6143 22.7311 13.1795C22.1048 12.0948 21.1236 11.2993 19.9621 10.9108C20.9525 9.77308 22.4077 9.074 23.988 9.074H24.8944C25.4602 9.074 25.9207 8.6136 25.9207 8.04772V6.23329C25.9207 5.66734 25.4602 5.20694 24.8944 5.20694H22.185C21.5518 5.20694 20.932 5.29429 20.3394 5.46312L21.3077 1.84919C21.4105 1.46512 21.1818 1.06886 20.7975 0.965808L18.3876 0.320009C18.0033 0.21735 17.6072 0.446028 17.5042 0.830179L16.7702 3.56955C16.7549 3.6269 16.6952 3.65619 16.6388 3.63924C16.467 3.58752 16.2908 3.54205 16.1151 3.50392C16.0639 3.49283 16.0282 3.45142 16.0282 3.4033V0.721348C16.0282 0.323603 15.7046 0 15.3068 0H12.8119C12.4142 0 12.0906 0.323603 12.0906 0.721348V2.05592L11.3184 0.718379C11.1191 0.373057 10.6784 0.254929 10.333 0.454231L8.1722 1.70177C7.82641 1.90154 7.7093 2.34272 7.90836 2.6871L9.48231 5.41327C9.52724 5.49109 9.51395 5.59187 9.44919 5.66422C9.22957 5.90954 9.02847 6.17001 8.8469 6.44283H6.02565C5.46119 6.44283 5.00196 6.90206 5.00196 7.46653V9.07509L2.28946 9.80191C2.02531 9.87269 1.8046 10.0421 1.66788 10.2789C1.53116 10.5157 1.49483 10.7915 1.56553 11.0556L2.19571 13.4074C2.3418 13.9526 2.90385 14.2773 3.44949 14.1313L4.98141 13.7208C4.96055 14.4509 4.92383 15.1588 4.87094 15.8483H1.90843C1.54077 15.8483 1.24162 16.1475 1.24162 16.5151V18.4371C1.24162 18.6449 1.33717 18.8307 1.48655 18.9532L1.36998 18.9844C1.01411 19.0798 0.803013 19.4451 0.898406 19.8011L1.39584 21.6576C1.49123 22.0136 1.85632 22.2245 2.2125 22.1292L4.23467 21.5873C4.28537 22.8748 4.63999 24.1683 5.32767 25.3595C6.1816 26.8349 7.01271 28.2826 7.18342 28.5636V30.5083C7.18342 30.8319 7.44577 31.0943 7.76937 31.0943C8.09298 31.0943 8.35533 30.8319 8.35533 30.5083V30.2801C9.17371 31.3523 10.0994 32.3365 11.1154 33.2174V35.6461C11.1154 35.6639 11.1009 35.6785 11.0831 35.6785H8.3876C8.36978 35.6785 8.35525 35.6639 8.35525 35.6461V33.2428C8.35525 32.9192 8.0929 32.6568 7.7693 32.6568C7.44569 32.6568 7.18334 32.9192 7.18334 33.2428V35.6461C7.18334 36.3101 7.72359 36.8504 8.3876 36.8504H11.0831C11.7471 36.8504 12.2873 36.3101 12.2873 35.6461V34.1578C13.5798 35.1165 14.9923 35.9193 16.4957 36.5394C17.9214 37.1276 19.1745 37.9559 20.2199 39.0013L20.317 39.0983C21.5042 40.2856 23.439 40.3063 24.63 39.1262C29.5292 34.2713 30.5393 26.704 27.0865 20.7237ZM21.7161 13.7655C21.9123 14.1052 21.7954 14.5413 21.4557 14.7374L18.0113 16.726C17.9471 16.7631 17.882 16.7983 17.8161 16.8319L18.8355 13.0276C18.9391 12.6406 19.0843 12.2729 19.2651 11.9289C20.2982 12.1788 21.1778 12.8332 21.7161 13.7655ZM24.7486 6.37885V7.90201H23.9879C21.0579 7.90201 18.4665 9.87613 17.7034 12.7243L16.4922 17.2447C15.2336 17.4134 13.9648 16.9936 13.0569 16.1061L14.0613 12.3577C14.1915 11.8713 14.0513 11.3481 13.6953 10.9921C13.1693 10.4661 13.1693 9.61011 13.6953 9.08408C14.2214 8.55805 15.0773 8.55812 15.6033 9.08408C15.8154 9.29619 16.0973 9.41299 16.3973 9.41299C16.6972 9.41299 16.9792 9.29619 17.1912 9.08415L18.2783 7.99701C19.3074 6.96792 20.6891 6.37892 22.1848 6.37892H24.7486V6.37885ZM3.28902 12.961L2.73557 10.8955L5.49283 10.1568C5.89362 10.0493 6.17347 9.68456 6.17347 9.26963V7.61474H8.21845C7.9275 8.30882 7.74836 9.04939 7.695 9.80371C7.67109 10.1418 7.93852 10.4311 8.28009 10.4311C8.58487 10.4311 8.84214 10.1952 8.86401 9.88644C8.95542 8.59539 9.46216 7.40645 10.3219 6.4458C10.7253 5.99516 10.7956 5.34476 10.4968 4.82732L9.14816 2.49132L10.5284 1.69442L11.8537 3.98987C12.0269 4.2898 12.3679 4.43114 12.7028 4.34145C13.0374 4.25176 13.2622 3.95878 13.2622 3.61229V1.17191H14.856V3.40337C14.856 4.00784 15.2715 4.5202 15.8663 4.64927C16.0122 4.68091 16.1584 4.71872 16.3011 4.76161C16.9928 4.96967 17.7157 4.56794 17.9018 3.87292L18.5192 1.56871L20.0588 1.98123L18.976 6.0222C18.4222 6.32533 17.9085 6.7094 17.4496 7.16824L16.397 8.22093C15.925 7.76654 15.3064 7.51692 14.6493 7.51692C13.976 7.51692 13.3428 7.77912 12.8667 8.25538C12.3905 8.73157 12.1282 9.36463 12.1282 10.038C12.1282 10.7114 12.3905 11.3445 12.8667 11.8206C12.9276 11.8815 12.9515 11.971 12.9293 12.0542L12.1639 14.9106C11.6348 14.2084 10.8325 13.7986 9.9942 13.7448C9.67396 13.3157 9.4159 12.8472 9.22551 12.3489C9.11004 12.0467 8.77135 11.8951 8.469 12.0106C8.16673 12.1261 8.01524 12.4648 8.13071 12.7671C8.28814 13.1793 8.484 13.5743 8.71604 13.9485C8.58682 14.0002 8.45978 14.0617 8.3358 14.1333C7.42124 14.6613 6.64653 15.3398 6.0248 16.1197C6.12847 14.8413 6.17347 13.5508 6.17347 12.2684V11.772C6.17347 11.4484 5.91112 11.1861 5.58752 11.1861C5.26392 11.1861 5.00157 11.4484 5.00157 11.772C5.00157 12.2593 5.00172 12.3468 5.00102 12.5021L3.28902 12.961ZM2.41353 17.0202H4.76336C4.73046 17.3274 4.69421 17.6313 4.65437 17.9321H2.41353V17.0202ZM2.16118 19.9856L4.43241 19.3771C4.36545 19.7588 4.36163 19.7506 4.35741 19.8116C4.32475 19.9941 4.29826 20.1779 4.27795 20.3624L2.3972 20.8664L2.16118 19.9856ZM6.3427 24.7734C4.40006 21.4087 5.55705 17.0909 8.92175 15.1482C9.77732 14.6543 10.8631 14.9573 11.3488 15.7986C11.3593 15.8168 11.2908 15.7083 12.5146 17.6312C13.2035 18.8373 12.7906 20.3742 11.5842 21.0706L7.78898 23.2617C7.14764 23.6321 6.66536 24.2008 6.4066 24.8843L6.3427 24.7734Z" fill="#C32C31"/>
</svg>
