<svg width="16" height="16" viewBox="0 0 16 16" fill="none" xmlns="http://www.w3.org/2000/svg">
<path d="M8.30005 8.30078C9.29461 8.30078 10.2484 7.90569 10.9517 7.20243C11.655 6.49917 12.05 5.54534 12.05 4.55078C12.05 3.55622 11.655 2.60239 10.9517 1.89913C10.2484 1.19587 9.29461 0.800781 8.30005 0.800781C7.30549 0.800781 6.35166 1.19587 5.6484 1.89913C4.94514 2.60239 4.55005 3.55622 4.55005 4.55078C4.55005 5.54534 4.94514 6.49917 5.6484 7.20243C6.35166 7.90569 7.30549 8.30078 8.30005 8.30078ZM10.8 4.55078C10.8 4.87915 10.7354 5.20431 10.6097 5.50769C10.484 5.81107 10.2999 6.08672 10.0677 6.31892C9.83547 6.55111 9.55981 6.7353 9.25644 6.86096C8.95306 6.98662 8.6279 7.0513 8.29953 7.0513C7.97115 7.0513 7.646 6.98662 7.34262 6.86096C7.03924 6.7353 6.76359 6.55111 6.53139 6.31892C6.2992 6.08672 6.11501 5.81107 5.98935 5.50769C5.86368 5.20431 5.79901 4.87915 5.79901 4.55078C5.79901 3.88774 6.0624 3.25186 6.53124 2.78301C7.00008 2.31417 7.63596 2.05078 8.29901 2.05078C8.96205 2.05078 9.59793 2.31417 10.0668 2.78301C10.5356 3.25186 10.799 3.88774 10.799 4.55078H10.8ZM15.8 14.5508C15.8 15.8008 14.55 15.8008 14.55 15.8008H2.05005C2.05005 15.8008 0.800049 15.8008 0.800049 14.5508C0.800049 13.3008 2.05005 9.55078 8.30005 9.55078C14.55 9.55078 15.8 13.3008 15.8 14.5508ZM14.55 14.5456C14.549 14.2383 14.3573 13.3133 13.5094 12.4654C12.6959 11.6508 11.1615 10.8008 8.30005 10.8008C5.43755 10.8008 3.90422 11.6508 3.08963 12.4654C2.24276 13.3133 2.05213 14.2383 2.05005 14.5456H14.55Z" fill="#00040A"/>
</svg>
