<svg width="14" height="18" viewBox="0 0 14 18" fill="none" xmlns="http://www.w3.org/2000/svg">
<path d="M12.9495 7.67C12.9495 12.2937 7.00481 16.2568 7.00481 16.2568C7.00481 16.2568 1.06009 12.2937 1.06009 7.67C1.06009 6.09336 1.68641 4.5813 2.80126 3.46645C3.91611 2.3516 5.42817 1.72528 7.00481 1.72528C8.58145 1.72528 10.0935 2.3516 11.2084 3.46645C12.3232 4.5813 12.9495 6.09336 12.9495 7.67Z" stroke="#00040A" stroke-width="1.5" stroke-linecap="round" stroke-linejoin="round"/>
<path d="M7.0048 9.65156C8.09919 9.65156 8.98637 8.76438 8.98637 7.66999C8.98637 6.5756 8.09919 5.68842 7.0048 5.68842C5.9104 5.68842 5.02322 6.5756 5.02322 7.66999C5.02322 8.76438 5.9104 9.65156 7.0048 9.65156Z" stroke="#00040A" stroke-width="1.5" stroke-linecap="round" stroke-linejoin="round"/>
</svg>
