<svg xmlns="http://www.w3.org/2000/svg" viewBox="0 0 678 183"><defs><style>.cls-1{fill:#fdfdfd;}.cls-2{fill:#2c3d52;}.cls-3{fill:#b82b2b;}</style></defs><g id="Слой_2" data-name="Слой 2"><g id="Слой_1-2" data-name="Слой 1"><path class="cls-1" d="M.07,182.93Q.07,93,0,3.07C0,.5.5,0,3.07,0Q339,.12,674.93,0C677.5,0,678,.5,678,3.07q-.13,88.25,0,176.49c0,2.81-.63,3.44-3.45,3.44Q337.32,182.88.07,182.93ZM133.56,67.7c0-8.74-.07-17.48,0-26.22,0-2.77-.92-4.52-3.62-5.33a197.64,197.64,0,0,0-50.44-8.47c-18.76-.68-37,2.77-54.92,8.3-5.66,1.74-7.08,3.4-7.09,9.29,0,13.49-.08,27,0,40.46.12,17.76,5.79,33.49,17.38,47.06,11,12.86,24.75,22.42,38.36,32.16a4.15,4.15,0,0,0,5.2,0c10.62-7.27,21.11-14.69,30.44-23.62C121.8,129,131.2,114.72,133.17,96.53,134.22,87,133.22,77.31,133.56,67.7Zm117.36,47.93c-.56-1.42-.95-2.34-1.3-3.26q-10.23-26.93-20.49-53.83c-3.34-8.69-1-7.72-11.36-6.83-3,.26-4.21,1.22-2.7,4.22,1.34,2.68,1.2,5.43.65,8.36-4.06,21.7-8,43.41-12,65.13-.17.92-.95,2.21.18,2.71,2.27,1,4.67.12,7-.11,1.87-.19,1.34-1.84,1.48-3q2.25-17.44,4.44-34.91c1-7.58,1.92-15.15,2.91-22.94,1.57.88,1.58,2.15,2,3.13q10.31,27.09,20.52,54.21c.72,1.92,1,4.26,4,4,2.85-.25,5.26-.14,6.69-3.78,7.22-18.33,14.83-36.5,22.3-54.72.33-.8.44-1.76,1.5-2.36.25,1.59.52,2.94.67,4.3,1.87,16.24,3.69,32.48,5.58,48.72.93,8,1,7.82,9,7.4,3.75-.2,4.52-1.54,4.08-5.08-2.8-22.41-5.44-44.84-8.05-67.27-1.11-9.5-1.14-9.56-10.64-8-2.15.36-3.2,1.19-2.52,3.48.86,2.92.07,5.56-1.14,8.28-5.57,12.54-11,25.13-16.49,37.7C255.22,105.91,253.16,110.56,250.92,115.63ZM378.7,95.87q0,16.09,0,32.2c0,1.57-.43,3.48,2.11,3.54,10.7.24,21.34,2.11,32.12.34,20.37-3.34,33.8-16.93,36-36.9,2.32-21.3-7.67-36-28.45-41-16.09-3.89-32.26-2.13-48.37.38-1.26.2-2,.5-1.81,2.11.21,1.43.73,1.7,2.13,1.76,5.44.22,6.26,1.12,6.27,6.46C378.72,75.14,378.7,85.5,378.7,95.87Zm194-4.93c.07-9.55-2.13-21.25-12-30.09-13.15-11.79-39.49-12-53.73-.48-12.12,9.8-14.77,23.19-13.74,37.74.9,12.73,5.66,23.49,17.14,30.31,14,8.32,36.65,6.38,49-4.21C568.73,116.25,572.08,105.67,572.7,90.94Zm21.94-19.79c1.19.17,1.46.93,1.89,1.5l23.67,31.41c6.6,8.77,13.3,17.49,19.75,26.38,2.28,3.13,5.11,2.08,7.79,1.65,2.92-.48,1.41-3.06,1.49-4.63.25-4.86.1-9.74.21-14.61q.67-28.09,1.38-56.19c0-1.19.7-2.9-.5-3.5-2.48-1.24-5.17-.16-7.68.29-1.77.33-.93,2.32-.9,3.57.48,18,1,36,1.52,53.94,0,.65.41,1.45-.35,2-1.28-.28-1.66-1.45-2.3-2.3-13.24-17.53-26.74-34.89-39.49-52.77-3.94-5.52-8-7.55-14.27-6.09-.24.06-.5,0-.74.08-3.91.51-4.38,1.25-1.8,4.16,3.29,3.72,4.1,7.74,3.92,12.65-.73,20.1-1.05,40.21-1.5,60.31,0,1.09-.55,2.66.58,3.12,2.52,1.05,5.23.33,7.71-.33,1.7-.45.85-2.38.82-3.64-.36-15.35-.81-30.71-1.19-46.07C594.56,78.53,594.64,74.93,594.64,71.15ZM313.47,96.74c0,10.49,0,21,0,31.47,0,1.95.16,3.43,2.71,3.44,14,0,28,.12,42,.19a3.59,3.59,0,0,0,3.91-2.83c1.11-4.86,2.06-9.76,3.07-14.64.24-1.15,0-1.87-1.37-2.07-1.05-.16-1.92-.44-2.43.88s-1.2,2.47-1.73,3.73c-2.51,5.94-6.88,9-13.41,8.87-5.24-.07-10.5,0-15.74.15-3.46.13-4.56-1.32-4.49-4.67.17-7.86.18-15.74,0-23.6-.07-2.79.93-3.3,3.44-3.16,6.86.39,13.75.3,20.59.88,4,.33,3.78-2,3.92-4.55.16-3-1.78-3-4-2.92-7,.4-14,.72-21,1.16-1.85.12-3,.09-3-2.38.14-8.11.12-16.23,0-24.35,0-2.45,1.11-2.94,3.21-2.89,4,.09,8,0,12,0,9.78.12,13.39.11,15.94,11,0,.12.07.24.1.36.29,1.25,1.13,1.37,2.27,1.31,1.49-.07,1.49-.94,1.44-2-.21-4.24-.5-8.48-.53-12.72,0-2.7-.91-3.6-3.75-3.54-10.36.21-20.74.11-31.11.15-6.27,0-12.43,1.12-18.6,2.07-1.16.18-2.2.2-2,1.93s.89,1.91,2.42,2c5,.21,6.08,1.39,6.09,6.38C313.49,76.51,313.47,86.62,313.47,96.74ZM477,92.19V56.27c0-1.94.13-3.94-2.75-3.77a140,140,0,0,0-16.69,2.12c-1.31.23-1.62.84-1.5,2s.36,1.7,1.72,1.88c6.54.9,6.67,1.11,6.67,7.91,0,19.34,0,38.67,0,58,0,8.71-1.56,8.43,8.12,7.66,3.64-.29,4.53-1.69,4.47-5.12C476.86,115.39,477,103.79,477,92.19Z"/><path class="cls-2" d="M250.92,115.63c2.24-5.07,4.3-9.72,6.34-14.38,5.49-12.57,10.92-25.16,16.49-37.7,1.21-2.72,2-5.36,1.14-8.28-.68-2.29.37-3.12,2.52-3.48,9.5-1.6,9.53-1.54,10.64,8,2.61,22.43,5.25,44.86,8.05,67.27.44,3.54-.33,4.88-4.08,5.08-8.06.42-8.1.62-9-7.4-1.89-16.24-3.71-32.48-5.58-48.72-.15-1.36-.42-2.71-.67-4.3-1.06.6-1.17,1.56-1.5,2.36-7.47,18.22-15.08,36.39-22.3,54.72-1.43,3.64-3.84,3.53-6.69,3.78-3.05.27-3.3-2.07-4-4Q232,101.45,221.71,74.34c-.37-1-.38-2.25-2-3.13-1,7.79-1.95,15.36-2.91,22.94q-2.22,17.46-4.44,34.91c-.14,1.12.39,2.77-1.48,3-2.33.23-4.73,1.11-7,.11-1.13-.5-.35-1.79-.18-2.71,4-21.72,7.91-43.43,12-65.13.55-2.93.69-5.68-.65-8.36-1.51-3-.27-4,2.7-4.22,10.32-.89,8-1.86,11.36,6.83q10.32,26.88,20.49,53.83C250,113.29,250.36,114.21,250.92,115.63Z"/><path class="cls-2" d="M378.7,95.87c0-10.37,0-20.73,0-31.09,0-5.34-.83-6.24-6.27-6.46-1.4-.06-1.92-.33-2.13-1.76-.23-1.61.55-1.91,1.81-2.11,16.11-2.51,32.28-4.27,48.37-.38,20.78,5,30.77,19.68,28.45,41-2.18,20-15.61,33.56-36,36.9-10.78,1.77-21.42-.1-32.12-.34-2.54-.06-2.11-2-2.11-3.54Q378.7,112,378.7,95.87Zm12.53-3.25v24.73c0,9.93,0,9.93,10.21,9.94,15.41,0,26.58-6.75,31.22-19.32a43.3,43.3,0,0,0,.51-29.38C429.43,67.5,421.37,61,410,58.5c-4.69-1-9.44-.69-14.18-.83-3.61-.1-4.71,1.5-4.65,5C391.34,72.64,391.23,82.63,391.23,92.62Z"/><path class="cls-2" d="M572.7,90.94c-.62,14.73-4,25.31-13.27,33.27-12.39,10.59-35,12.53-49,4.21-11.48-6.82-16.24-17.58-17.14-30.31-1-14.55,1.62-27.94,13.74-37.74,14.24-11.51,40.58-11.31,53.73.48C570.57,69.69,572.77,81.39,572.7,90.94Zm-13.87,1.32c-.09-6.42-1.32-15.15-6.21-22.91q-8-12.69-23.1-11.65c-8.88.61-15.34,5.1-18.61,13-6.65,16.07-5.87,32.1,3.53,46.91,9,14.25,32.48,14.43,40.52-3.14C557.82,108.22,558.88,101.63,558.83,92.26Z"/><path class="cls-2" d="M594.64,71.15c0,3.78-.08,7.38,0,11,.38,15.36.83,30.72,1.19,46.07,0,1.26.88,3.19-.82,3.64-2.48.66-5.19,1.38-7.71.33-1.13-.46-.6-2-.58-3.12.45-20.1.77-40.21,1.5-60.31.18-4.91-.63-8.93-3.92-12.65-2.58-2.91-2.11-3.65,1.8-4.16.24,0,.5,0,.74-.08,6.26-1.46,10.33.57,14.27,6.09,12.75,17.88,26.25,35.24,39.49,52.77.64.85,1,2,2.3,2.3.76-.59.37-1.39.35-2-.49-18-1-36-1.52-53.94,0-1.25-.87-3.24.9-3.57,2.51-.45,5.2-1.53,7.68-.29,1.2.6.53,2.31.5,3.5q-.66,28.1-1.38,56.19c-.11,4.87,0,9.75-.21,14.61-.08,1.57,1.43,4.15-1.49,4.63-2.68.43-5.51,1.48-7.79-1.65-6.45-8.89-13.15-17.61-19.75-26.38L596.53,72.65C596.1,72.08,595.83,71.32,594.64,71.15Z"/><path class="cls-2" d="M313.47,96.74c0-10.12,0-20.23,0-30.35,0-5-1.09-6.17-6.09-6.38-1.53-.06-2.22-.36-2.42-2s.82-1.75,2-1.93c6.17-1,12.33-2,18.6-2.07,10.37,0,20.75.06,31.11-.15,2.84-.06,3.73.84,3.75,3.54,0,4.24.32,8.48.53,12.72.05,1.08.05,1.95-1.44,2-1.14.06-2-.06-2.27-1.31,0-.12-.08-.24-.1-.36-2.55-10.91-6.16-10.9-15.94-11-4,0-8,.06-12,0-2.1-.05-3.25.44-3.21,2.89.1,8.12.12,16.24,0,24.35,0,2.47,1.15,2.5,3,2.38,7-.44,14-.76,21-1.16,2.19-.13,4.13-.09,4,2.92-.14,2.52.07,4.88-3.92,4.55-6.84-.58-13.73-.49-20.59-.88-2.51-.14-3.51.37-3.44,3.16.2,7.86.19,15.74,0,23.6-.07,3.35,1,4.8,4.49,4.67,5.24-.2,10.5-.22,15.74-.15,6.53.08,10.9-2.93,13.41-8.87.53-1.26,1.23-2.45,1.73-3.73s1.38-1,2.43-.88c1.35.2,1.61.92,1.37,2.07-1,4.88-2,9.78-3.07,14.64a3.59,3.59,0,0,1-3.91,2.83c-14-.07-28-.17-42-.19-2.55,0-2.72-1.49-2.71-3.44C313.49,117.72,313.47,107.23,313.47,96.74Z"/><path class="cls-2" d="M477,92.19c0,11.6-.11,23.2.07,34.79.06,3.43-.83,4.83-4.47,5.12-9.68.77-8.1,1.05-8.12-7.66-.06-19.33,0-38.66,0-58,0-6.8-.13-7-6.67-7.91-1.36-.18-1.61-.78-1.72-1.88s.19-1.8,1.5-2a140,140,0,0,1,16.69-2.12c2.88-.17,2.75,1.83,2.75,3.77Z"/><path class="cls-3" d="M133.55,67.7c0-8.74-.06-17.48,0-26.22,0-2.77-.92-4.52-3.62-5.33a197.64,197.64,0,0,0-50.44-8.47c-18.76-.68-37,2.77-54.92,8.3-5.66,1.74-7.08,3.4-7.09,9.29,0,13.49-.08,27,0,40.46.12,17.76,5.79,33.49,17.38,47.06,11,12.86,24.75,22.42,38.36,32.16a4.15,4.15,0,0,0,5.2,0c10.62-7.27,21.11-14.69,30.44-23.62C121.8,129,131.2,114.72,133.17,96.53,134.22,87,133.22,77.31,133.55,67.7Zm-26.86,52.71c0-5.08,0-10.17,0-15.27,0-3.74,1.71-7,3.22-10.27a8.31,8.31,0,0,0-.74-9.08c-4.94-7.05-9.62-14.28-14.4-21.44a11.94,11.94,0,0,0-1.07-1.53C92.46,61.51,90.87,61,89.32,62s-1.06,2.64-.28,4c3,5.3,6.13,10.57,9.16,15.87,1.12,2,2.11,4,3.13,6a5.21,5.21,0,0,1,.49,4c-.33,1.07-.62,2.31-1.91,2.56s-1.94-.89-2.44-1.9a79.62,79.62,0,0,0-8.61-12.67c-1.08-1.4-2.16-3.38-4.09-2.36s-.88,3.18-.16,4.64c7.59,15.32,4.36,31.59,4,47.55,0,.12,0,.24,0,.35-.26,3.49-3.37,2.43-6.94,2.82a2.69,2.69,0,0,1-.54-.06c-1.19-.28-1-1.47-1-3.18v0c-.1-9-.08-18,0-27,0-2.8-.45-5-4-5s-4,2-4,4.92c.08,9.11-.1,18.23.11,27.34.07,3-1.08,3.23-3.49,2.82-5.36-.92-5.37-.86-5.51-6.24-.19-7.49-.43-15-.56-22.46a41.28,41.28,0,0,1,2.93-16.47c.89-2.19,1.8-4.38,2.55-6.63.38-1.13.91-2.6-.43-3.4s-2.68.14-3.52,1.26c-3.06,4.09-6.38,8-8.79,12.56-.71,1.35-1.21,3.67-3.19,3C49.9,93.45,50,91,50.43,89a19.64,19.64,0,0,1,2.18-4.73c3.39-6,6.87-11.88,10.24-17.85.84-1.48,2-3.33-.13-4.56-1.91-1.09-3.63-.13-4.79,1.62-5.26,7.89-10.48,15.8-15.73,23.69a5.87,5.87,0,0,0-.31,6.4c4.75,8.41,3.26,17.68,4.16,26.85-9.25-6.32-16.77-24.25-12.8-40.73,4.48-18.55,20.48-32.49,38.86-33.85C92,44.41,110.16,55.63,117,73.56,123.39,90.3,118.82,110.81,106.69,120.41Z"/><path class="cls-3" d="M76.2,61.5a5.84,5.84,0,0,1-5.84-5.59,5.62,5.62,0,0,1,5.53-5.82,5.72,5.72,0,0,1,5.88,5.52A5.9,5.9,0,0,1,76.2,61.5Z"/></g></g></svg>