<svg width="36" height="40" viewBox="0 0 36 40" fill="none" xmlns="http://www.w3.org/2000/svg">
<path d="M13.3866 0C6.36492 0 0.652344 5.71258 0.652344 12.7342V31.2917C0.652344 33.0158 1.1525 34.6781 2.09867 36.0991C2.27805 36.3684 2.6418 36.4412 2.91117 36.262C3.18047 36.0826 3.25344 35.7188 3.07406 35.4495C2.25641 34.2216 1.82414 32.7838 1.82414 31.2917V12.7342C1.82422 6.35875 7.01109 1.17188 13.3866 1.17188C19.762 1.17188 24.9488 6.35875 24.9488 12.7342C24.9488 18.7885 22.6772 21.8294 20.2721 25.0488C18.634 27.2417 16.9401 29.5092 16.0167 32.7687C15.3948 34.9643 14.5675 36.5006 13.4876 37.4655C12.4471 38.3952 11.1613 38.8281 9.44117 38.8281C7.74906 38.8281 6.14984 38.2975 4.81633 37.2937C4.55766 37.0991 4.19047 37.1509 3.99578 37.4095C3.80117 37.668 3.85297 38.0354 4.11148 38.23C5.64977 39.3879 7.49273 40 9.44117 40C13.4145 40 15.7902 37.8683 17.1443 33.0881C18.0086 30.037 19.5641 27.9548 21.211 25.7502C23.6248 22.5191 26.1208 19.1778 26.1208 12.7341C26.1207 5.71258 20.4082 0 13.3866 0Z" fill="#C32C31"/>
<path d="M18.1378 6.95149C16.6401 5.75555 14.7603 5.09695 12.8446 5.09695C8.15988 5.09695 4.34863 8.9082 4.34863 13.5929C4.34863 13.9165 4.61098 14.1788 4.93457 14.1788C5.25816 14.1788 5.52051 13.9165 5.52051 13.5929C5.52051 12.3884 5.81293 11.2511 6.3302 10.2478C7.61027 9.40563 10.4507 9.57524 12.4934 11.096C15.3103 13.1931 14.695 16.3201 14.0774 17.9973C13.9656 18.301 14.1211 18.6378 14.4248 18.7496C14.4916 18.7742 14.56 18.7859 14.6271 18.7859C14.8657 18.7859 15.0899 18.6391 15.1771 18.4022C15.8446 16.5888 15.9611 14.9151 15.5229 13.4273C15.1436 12.1395 14.3379 11.0082 13.1932 10.1559C11.5165 8.90766 9.26668 8.36617 7.46098 8.63266C8.8002 7.18024 10.7179 6.26875 12.8446 6.26875C14.5195 6.26875 16.097 6.82149 17.4065 7.86719C18.6782 8.88258 19.5869 10.3062 19.9654 11.8755C20.0412 12.1902 20.3577 12.3838 20.6723 12.3078C20.9868 12.232 21.1804 11.9155 21.1046 11.6009C20.6654 9.77969 19.6118 8.12852 18.1378 6.95149Z" fill="#C32C31"/>
<path d="M6.29967 27.8583C6.85561 29.4926 8.20271 30.6008 9.9031 30.8223C10.1404 30.8533 10.3711 30.8687 10.5956 30.8687C11.7415 30.8687 12.7253 30.4647 13.587 29.6437C14.4369 28.8341 15.0334 27.7337 15.5597 26.7628C15.8219 26.2791 16.0697 25.8223 16.3251 25.4401C16.3279 25.436 16.3305 25.4319 16.3331 25.4278C16.732 24.7976 17.1628 24.1738 17.5801 23.5697C19.3947 20.9423 21.1087 18.4606 21.3193 14.4183C21.3361 14.0952 21.0878 13.8195 20.7646 13.8027C20.4421 13.7862 20.1658 14.0342 20.149 14.3574C19.9556 18.068 18.3333 20.4169 16.6151 22.9046C16.1933 23.5155 15.7571 24.1471 15.3468 24.7949C15.0627 25.2207 14.8037 25.6985 14.5294 26.2043C13.524 28.059 12.4851 29.9769 10.0545 29.6602C8.80693 29.4976 7.81803 28.6829 7.40904 27.4808C6.9881 26.2433 7.27428 24.927 8.15576 24.0455C8.76412 23.4373 9.09912 22.6284 9.09912 21.7682C9.09912 19.9923 7.65436 18.5475 5.87842 18.5475C5.55482 18.5475 5.29248 18.8098 5.29248 19.1334C5.29248 19.457 5.55482 19.7194 5.87842 19.7194C7.00811 19.7194 7.92725 20.6384 7.92725 21.7682C7.92725 22.3155 7.71412 22.8299 7.32717 23.2169C6.12756 24.4166 5.73381 26.195 6.29967 27.8583Z" fill="#C32C31"/>
<path d="M27.3633 22.0261C27.3633 19.4174 28.3791 16.9649 30.2237 15.1203C30.4526 14.8915 30.4526 14.5205 30.2237 14.2916C29.9949 14.0628 29.6239 14.0628 29.3951 14.2916C27.3291 16.3576 26.1914 19.1045 26.1914 22.026C26.1914 24.9477 27.3292 27.6945 29.3951 29.7605C29.5095 29.8748 29.6595 29.9321 29.8094 29.9321C29.9593 29.9321 30.1093 29.8749 30.2237 29.7605C30.4525 29.5316 30.4525 29.1606 30.2237 28.9318C28.3791 27.0873 27.3633 24.6348 27.3633 22.0261Z" fill="#C32C31"/>
<path d="M34.3653 22.0261C34.3653 21.2891 34.6532 20.5954 35.176 20.0726C35.4048 19.8437 35.4048 19.4728 35.176 19.244C34.9472 19.0151 34.5762 19.0151 34.3473 19.244C33.6032 19.988 33.1934 20.9762 33.1934 22.0262C33.1934 23.0762 33.6032 24.0642 34.3473 24.8084C34.4617 24.9227 34.6117 24.98 34.7616 24.98C34.9116 24.98 35.0616 24.9228 35.1759 24.8084C35.4048 24.5794 35.4048 24.2084 35.176 23.9797C34.6532 23.4569 34.3653 22.763 34.3653 22.0261Z" fill="#C32C31"/>
<path d="M32.7017 16.7695C32.4729 16.5406 32.1018 16.5406 31.873 16.7695C30.4668 18.1756 29.6924 20.0425 29.6924 22.026C29.6924 24.0096 30.4668 25.8764 31.873 27.2826C31.9874 27.397 32.1374 27.4542 32.2873 27.4542C32.4373 27.4542 32.5872 27.397 32.7016 27.2826C32.9304 27.0538 32.9304 26.6827 32.7016 26.4539C31.5168 25.2691 30.8643 23.6966 30.8643 22.0259C30.8643 20.3553 31.5168 18.7828 32.7016 17.598C32.9305 17.3693 32.9305 16.9983 32.7017 16.7695Z" fill="#C32C31"/>
</svg>
