<svg width="24" height="22" viewBox="0 0 24 22" fill="none" xmlns="http://www.w3.org/2000/svg">
<path d="M21.8906 6.08092H20.4178C19.1651 3.10652 16.4067 0.944972 13.2312 0.532144C10.0843 0.112612 6.9923 1.32386 4.96945 3.76211C4.3748 4.47897 3.90309 5.25832 3.55772 6.08092H2.10938C0.946219 6.08092 0 7.02714 0 8.1903V11.0028C0 12.166 0.946219 13.1122 2.10938 13.1122H4.99692L4.69481 12.19C3.8152 9.50383 4.3103 6.7593 6.05231 4.66024C7.76414 2.59685 10.3782 1.57582 13.0485 1.92602C15.8726 2.29389 18.324 4.2911 19.2952 7.01543L19.3011 7.03122C19.4577 7.44733 19.5675 7.87511 19.6307 8.31527C19.8415 9.63021 19.7213 10.963 19.284 12.1694L19.2809 12.1778C18.1952 15.2603 15.2752 17.3309 12.0137 17.3309C10.843 17.3309 9.89062 18.2771 9.89062 19.4403C9.89062 20.6035 10.8368 21.5497 12 21.5497C13.1632 21.5497 14.1094 20.6035 14.1094 19.4403V18.492C16.9169 17.8247 19.2751 15.8345 20.4086 13.1121H21.8906C23.0538 13.1121 24 12.1659 24 11.0028V8.19025C24 7.0271 23.0538 6.08092 21.8906 6.08092Z" fill="#323232"/>
<path d="M5.67188 14.5184V15.9247H12C15.4895 15.9247 18.3281 13.0861 18.3281 9.59656C18.3281 6.10704 15.4895 3.26843 12 3.26843C8.51048 3.26843 5.67188 6.10704 5.67188 9.59656C5.67188 11.0193 6.14977 12.394 7.02319 13.5057C6.85359 14.0982 6.31252 14.5184 5.67188 14.5184ZM14.1094 8.89343H15.5156V10.2997H14.1094V8.89343ZM11.2969 8.89343H12.7031V10.2997H11.2969V8.89343ZM8.48438 8.89343H9.89062V10.2997H8.48438V8.89343Z" fill="#323232"/>
</svg>
