<svg width="16" height="18" viewBox="0 0 16 18" fill="none" xmlns="http://www.w3.org/2000/svg">
<path fill-rule="evenodd" clip-rule="evenodd" d="M6.43751 9.00065V1.70898H7.47917V8.08065L9.29501 6.98982C9.37585 6.94143 9.4683 6.91587 9.56251 6.91587C9.65672 6.91587 9.74917 6.94143 9.83001 6.98982L11.6458 8.08148V1.70898H12.6875V9.00065C12.6875 9.09275 12.663 9.1832 12.6166 9.26277C12.5702 9.34233 12.5036 9.40817 12.4234 9.45358C12.3433 9.49898 12.2526 9.52232 12.1605 9.52122C12.0684 9.52012 11.9782 9.49462 11.8992 9.44732L9.56251 8.04565L7.22584 9.44898C7.14674 9.49664 7.05637 9.52237 6.96403 9.52353C6.87169 9.52469 6.78071 9.50124 6.70043 9.45559C6.62016 9.40993 6.55349 9.34373 6.50728 9.26377C6.46107 9.18382 6.43699 9.093 6.43751 9.00065Z" fill="#00040A"/>
<path d="M3.31209 0.666016H13.7288C14.2813 0.666016 14.8112 0.885509 15.2019 1.27621C15.5926 1.66691 15.8121 2.19681 15.8121 2.74935V15.2493C15.8121 15.8019 15.5926 16.3318 15.2019 16.7225C14.8112 17.1132 14.2813 17.3327 13.7288 17.3327H3.31209C2.75956 17.3327 2.22965 17.1132 1.83895 16.7225C1.44825 16.3318 1.22876 15.8019 1.22876 15.2493V14.2077H2.27043V15.2493C2.27043 15.5256 2.38017 15.7906 2.57552 15.9859C2.77087 16.1813 3.03583 16.291 3.31209 16.291H13.7288C14.005 16.291 14.27 16.1813 14.4653 15.9859C14.6607 15.7906 14.7704 15.5256 14.7704 15.2493V2.74935C14.7704 2.47308 14.6607 2.20813 14.4653 2.01278C14.27 1.81743 14.005 1.70768 13.7288 1.70768H3.31209C3.03583 1.70768 2.77087 1.81743 2.57552 2.01278C2.38017 2.20813 2.27043 2.47308 2.27043 2.74935V3.79102H1.22876V2.74935C1.22876 2.19681 1.44825 1.66691 1.83895 1.27621C2.22965 0.885509 2.75956 0.666016 3.31209 0.666016Z" fill="#00040A"/>
<path d="M1.22917 5.87565V5.35482C1.22917 5.21668 1.28404 5.08421 1.38172 4.98653C1.47939 4.88886 1.61187 4.83398 1.75 4.83398C1.88813 4.83398 2.02061 4.88886 2.11828 4.98653C2.21596 5.08421 2.27083 5.21668 2.27083 5.35482V5.87565H2.79167C2.9298 5.87565 3.06228 5.93052 3.15995 6.0282C3.25763 6.12587 3.3125 6.25835 3.3125 6.39648C3.3125 6.53462 3.25763 6.66709 3.15995 6.76477C3.06228 6.86244 2.9298 6.91732 2.79167 6.91732H0.708333C0.5702 6.91732 0.437724 6.86244 0.340049 6.76477C0.242373 6.66709 0.1875 6.53462 0.1875 6.39648C0.1875 6.25835 0.242373 6.12587 0.340049 6.0282C0.437724 5.93052 0.5702 5.87565 0.708333 5.87565H1.22917ZM1.22917 9.00065V8.47982C1.22917 8.34168 1.28404 8.20921 1.38172 8.11153C1.47939 8.01386 1.61187 7.95898 1.75 7.95898C1.88813 7.95898 2.02061 8.01386 2.11828 8.11153C2.21596 8.20921 2.27083 8.34168 2.27083 8.47982V9.00065H2.79167C2.9298 9.00065 3.06228 9.05552 3.15995 9.1532C3.25763 9.25087 3.3125 9.38335 3.3125 9.52148C3.3125 9.65962 3.25763 9.79209 3.15995 9.88977C3.06228 9.98744 2.9298 10.0423 2.79167 10.0423H0.708333C0.5702 10.0423 0.437724 9.98744 0.340049 9.88977C0.242373 9.79209 0.1875 9.65962 0.1875 9.52148C0.1875 9.38335 0.242373 9.25087 0.340049 9.1532C0.437724 9.05552 0.5702 9.00065 0.708333 9.00065H1.22917ZM1.22917 12.1257V11.6048C1.22917 11.4667 1.28404 11.3342 1.38172 11.2365C1.47939 11.1389 1.61187 11.084 1.75 11.084C1.88813 11.084 2.02061 11.1389 2.11828 11.2365C2.21596 11.3342 2.27083 11.4667 2.27083 11.6048V12.1257H2.79167C2.9298 12.1257 3.06228 12.1805 3.15995 12.2782C3.25763 12.3759 3.3125 12.5084 3.3125 12.6465C3.3125 12.7846 3.25763 12.9171 3.15995 13.0148C3.06228 13.1124 2.9298 13.1673 2.79167 13.1673H0.708333C0.5702 13.1673 0.437724 13.1124 0.340049 13.0148C0.242373 12.9171 0.1875 12.7846 0.1875 12.6465C0.1875 12.5084 0.242373 12.3759 0.340049 12.2782C0.437724 12.1805 0.5702 12.1257 0.708333 12.1257H1.22917Z" fill="#00040A"/>
</svg>
