<svg width="36" height="38" viewBox="0 0 36 38" fill="none" xmlns="http://www.w3.org/2000/svg">
<path d="M32.4269 21.4575C33.2263 21.3231 34.0382 21.2675 34.8569 21.2919C35.1982 21.2887 35.4894 21.03 35.4994 20.6844C35.5094 20.3394 35.2376 20.0519 34.8926 20.0419C33.4382 20.0019 32.0051 20.1981 30.6163 20.6062C30.5757 20.615 30.5376 20.6269 30.4994 20.6437C30.2669 20.7144 30.0344 20.7837 29.8044 20.8669C28.2038 20.7812 26.8457 19.8844 26.1607 18.4469C25.4582 16.9706 25.6476 15.0419 26.6201 13.755C26.6594 13.7031 26.6919 13.6444 26.7144 13.5794C26.8119 13.2975 26.9226 13.0212 27.0344 12.7462H27.0413C28.1513 12.7462 29.2494 12.59 30.3094 12.3006C31.4757 13.12 32.8513 13.56 34.2707 13.56C34.4907 13.56 34.7113 13.5494 34.9326 13.5281C35.2763 13.4956 35.5282 13.1906 35.4957 12.8469C35.4626 12.5025 35.1538 12.24 34.8144 12.2844C33.7894 12.3819 32.7763 12.1962 31.8638 11.765C32.8663 11.3431 33.8176 10.7944 34.6857 10.1175C34.9582 9.90499 35.0063 9.51249 34.7938 9.24061C34.5813 8.96811 34.1882 8.92061 33.9163 9.13249C32.1026 10.5481 29.8963 11.3681 27.6088 11.4825C28.6069 9.52499 29.9894 7.77749 31.6826 6.35374C31.9469 6.13186 31.9807 5.73749 31.7588 5.47311C31.5369 5.20874 31.1432 5.17499 30.8782 5.39686C28.7963 7.14749 27.1551 9.35499 26.0651 11.8331C26.0588 11.845 26.0538 11.8562 26.0488 11.8687C25.8851 12.2425 25.7338 12.6225 25.5963 13.0081C24.6588 13.8862 23.3588 14.115 22.3926 13.5481C21.3113 12.915 20.7682 11.5994 21.1013 10.4194C21.1038 10.4106 21.1019 10.4025 21.1038 10.3937C21.1057 10.3856 21.1113 10.3794 21.1126 10.3706C21.2182 9.83374 21.2901 9.29186 21.3463 8.74874C23.3069 7.57499 24.7688 5.75124 25.4694 3.56561C25.5744 3.23686 25.3938 2.88436 25.0651 2.77936C24.7357 2.67561 24.3844 2.85561 24.2794 3.18311C23.7638 4.79186 22.7701 6.17249 21.4432 7.17749C21.4476 6.92624 21.4432 6.67561 21.4363 6.42436C21.4351 6.39686 21.4388 6.36999 21.4338 6.34311C21.3832 4.63686 21.1007 2.93811 20.5726 1.30686C20.4663 0.978112 20.1151 0.798112 19.7857 0.904362C19.4576 1.01061 19.2776 1.36249 19.3838 1.69124C19.7869 2.93749 20.0344 4.22624 20.1394 5.52561C18.7338 4.86561 17.6969 3.59874 17.3601 2.04311C17.2869 1.70624 16.9538 1.49124 16.6169 1.56436C16.2794 1.63749 16.0657 1.96999 16.1382 2.30749C16.6051 4.46124 18.1451 6.17124 20.2001 6.89249C20.1994 7.92561 20.1013 8.95874 19.9107 9.97749C18.3801 11.8156 17.0226 12.75 14.0763 12.75C11.4476 12.75 9.34194 11.9712 7.81881 10.435C7.81819 10.4344 7.81819 10.4344 7.81756 10.4344C7.81756 10.4344 7.81694 10.4337 7.81694 10.4331C7.59631 10.2119 7.39506 9.97499 7.18444 9.74561C7.90194 7.69436 8.18631 5.48311 7.99756 3.32061C7.96756 2.97686 7.67381 2.71749 7.32069 2.75249C6.97694 2.78249 6.72194 3.08561 6.75256 3.42936C6.90444 5.17499 6.72069 6.95374 6.22819 8.63811C5.19069 7.34749 4.28944 5.95436 3.56194 4.45624C3.41131 4.14499 3.03631 4.01624 2.72694 4.16749C2.41631 4.31811 2.28694 4.69124 2.43819 5.00249C2.96944 6.09686 3.59006 7.13811 4.27944 8.13061C3.26319 8.10124 2.25194 7.98124 1.25819 7.76499C0.921312 7.68624 0.588187 7.90499 0.514437 8.24249C0.440687 8.57936 0.655062 8.91249 0.991937 8.98624C2.22819 9.25561 3.49131 9.39124 4.75631 9.39124C4.91194 9.39124 5.06756 9.38499 5.22319 9.38061C5.46569 9.68374 5.71381 9.98124 5.97131 10.2719C6.00319 10.315 6.03631 10.3544 6.07881 10.3887C6.35006 10.6906 6.61631 10.9969 6.90381 11.285C6.90381 11.285 6.90381 11.2856 6.90444 11.2856L6.98256 11.3756C8.73069 13.3731 11.1251 16.1075 11.1251 18.375C11.1251 20.2875 9.56069 21.2662 7.74944 22.3994C7.56819 22.5125 7.38569 22.6281 7.20381 22.7437C5.16881 22.7131 3.33694 22.1512 1.45756 20.9706C1.16569 20.7875 0.780062 20.8762 0.596312 21.1669C0.411937 21.46 0.500062 21.8456 0.792562 22.0294C2.37444 23.0231 3.93006 23.6219 5.58194 23.8681C3.85756 25.1194 2.21569 26.4925 0.689437 27.9737C0.441937 28.2144 0.435687 28.61 0.676312 28.8575C0.799437 28.9837 0.961937 29.0469 1.12506 29.0469C1.28194 29.0469 1.43881 28.9881 1.56006 28.8706C2.44381 28.0125 3.37006 27.195 4.32569 26.4131C3.84756 28.2781 3.61194 30.1931 3.62506 32.1294C3.62756 32.4731 3.90694 32.75 4.25006 32.75H4.25444C4.59944 32.7475 4.87756 32.4656 4.87506 32.1206C4.85819 29.7194 5.24944 27.3531 6.03069 25.0844C6.57381 24.6837 7.12444 24.295 7.68444 23.9212C9.29006 23.1125 11.2032 23.3644 12.6882 24.5812C14.0707 25.7144 14.6901 27.4894 14.3313 29.1725C12.3501 29.9256 10.4932 30.955 8.81569 32.2569C8.54256 32.4687 8.49319 32.8612 8.70506 33.1337C8.82756 33.2919 9.01194 33.375 9.19819 33.375C9.33194 33.375 9.46694 33.3325 9.58069 33.2437C11.0226 32.125 12.6088 31.225 14.2919 30.535C14.3051 30.6869 14.3276 30.8375 14.3476 30.9887C13.2107 32.3575 12.9238 35.6512 13.0019 36.5531C13.0307 36.8794 13.3032 37.125 13.6244 37.125C13.6426 37.125 13.6607 37.1244 13.6788 37.1225C14.0226 37.0925 14.2776 36.79 14.2476 36.4462C14.1788 35.6506 14.4038 33.9306 14.8151 32.7562C15.1419 33.5094 15.6169 34.1975 16.2126 34.765C16.7432 35.27 17.2794 35.6012 17.9526 35.8394C18.0219 35.8631 18.0919 35.875 18.1613 35.875C18.4188 35.875 18.6594 35.715 18.7507 35.4587C18.8657 35.1331 18.6957 34.7756 18.3701 34.6612C17.8644 34.4819 17.4769 34.2425 17.0751 33.8594C16.3094 33.1306 15.7932 32.1531 15.6213 31.1062C15.5469 30.6562 15.5107 30.1969 15.5051 29.74C16.1188 28.1287 17.3932 26.9625 19.0238 26.5369C20.6382 26.1125 22.3788 26.4669 23.6369 27.4437C23.6957 29.6819 24.3682 31.8462 25.6038 33.72C25.7232 33.9012 25.9226 34 26.1257 34C26.2438 34 26.3632 33.9662 26.4688 33.8969C26.7569 33.7069 26.8363 33.3187 26.6469 33.0306C25.6763 31.5587 25.0944 29.8862 24.9294 28.145C26.9951 29.2375 28.7244 30.8469 29.9701 32.8456C30.0882 33.0362 30.2926 33.1406 30.5013 33.1406C30.6144 33.1406 30.7282 33.11 30.8313 33.0462C31.1244 32.8637 31.2138 32.4787 31.0313 32.1856C30.2788 30.9775 29.3613 29.9031 28.3132 28.9781C29.4426 28.8412 30.5832 28.8419 31.7201 28.9944C32.0601 29.0387 32.3763 28.7994 32.4226 28.4581C32.4682 28.1156 32.2282 27.8012 31.8857 27.7556C30.2426 27.5362 28.5913 27.6025 26.9713 27.935C26.3113 27.4787 25.6113 27.0769 24.8757 26.7325C24.8744 25.0594 24.8901 23.8425 25.6113 23.1206C26.2888 22.4412 27.6438 22.125 29.8751 22.125C29.9482 22.125 30.0219 22.1119 30.0944 22.0856C30.2926 22.0112 30.4944 21.9569 30.6951 21.8925C32.1119 22.6319 33.3882 23.665 34.3876 24.9112C34.5113 25.0656 34.6926 25.1456 34.8757 25.1456C35.0132 25.1456 35.1507 25.1006 35.2663 25.0081C35.5357 24.7919 35.5788 24.3987 35.3632 24.13C34.5338 23.0956 33.5344 22.1919 32.4269 21.4575V21.4575ZM24.7257 22.2375C23.8063 23.1575 23.6532 24.4381 23.6288 25.9281C22.1726 25.11 20.4076 24.8806 18.7076 25.3262C17.4994 25.6419 16.4276 26.3062 15.6026 27.2169C15.3588 25.8387 14.6232 24.5506 13.4801 23.6137C12.5169 22.8244 11.3782 22.3612 10.2219 22.2431C11.4369 21.3044 12.3751 20.1525 12.3751 18.375C12.3751 16.7137 11.4276 14.9781 10.2626 13.3906C11.4119 13.7931 12.6932 14 14.0763 14C16.7957 14 18.4213 13.2475 19.8338 11.9031C20.0563 13.0144 20.7438 14.0312 21.7607 14.6275C22.6419 15.1431 23.6951 15.2375 24.6869 14.945C24.3344 16.2737 24.4382 17.7344 25.0332 18.9837C25.4619 19.8831 26.0926 20.6206 26.8638 21.155C25.9244 21.375 25.2313 21.7306 24.7257 22.2375V22.2375Z" fill="#C32C31"/>
</svg>
