<svg width="40" height="36" viewBox="0 0 40 36" fill="none" xmlns="http://www.w3.org/2000/svg">
<path d="M22.8196 31.4069C22.8838 31.6759 23.124 31.8569 23.389 31.8569C23.4341 31.8569 23.4799 31.8517 23.5256 31.8408C26.6074 31.1047 29.4003 29.3312 31.3897 26.8472C33.4399 24.2873 34.5235 21.1989 34.5235 17.9158C34.5235 10.0203 28.0863 3.59686 20.1739 3.59686C14.2128 3.59686 8.87213 7.28725 6.7619 12.8197C4.76072 13.0899 3.1958 15.2721 3.1958 17.9158C3.1958 20.5594 4.76072 22.7416 6.7619 23.0118C8.87213 28.5443 14.2128 32.2347 20.1739 32.2347C20.3384 32.2347 20.5174 32.2309 20.721 32.2232C21.0443 32.211 21.2966 31.9388 21.2842 31.6155C21.272 31.2921 20.9999 31.0395 20.6765 31.0523C20.4878 31.0594 20.3233 31.0629 20.1738 31.0629C14.8105 31.0629 9.9944 27.8109 7.97869 22.9025C8.55822 22.6887 9.14963 22.1826 9.52557 21.094C9.80166 20.2945 9.94158 19.2252 9.94158 17.9158C9.94158 14.5577 8.99783 13.3034 7.97924 12.9278C9.99525 8.02022 14.811 4.76882 20.1738 4.76882C23.0884 4.76882 25.7844 5.71835 27.969 7.32272C27.788 7.35952 27.6076 7.39483 27.4298 7.42913C25.5338 7.79397 23.5733 8.17132 22.5108 10.8357C22.3909 11.1363 22.5374 11.4771 22.838 11.597C22.9092 11.6254 22.9826 11.6388 23.0549 11.6388C23.2876 11.6388 23.5078 11.4991 23.5993 11.2698C24.0084 10.2441 24.5648 9.65983 25.2414 9.28889L26.9024 12.0978C27.0117 12.2827 27.2069 12.3856 27.4073 12.3856C27.5086 12.3856 27.6114 12.3593 27.7049 12.304C27.9835 12.1393 28.0758 11.7799 27.9111 11.5014L26.3505 8.8621C26.7571 8.75225 27.1918 8.66835 27.6514 8.57991C28.1238 8.48897 28.6121 8.39468 29.1105 8.26343C31.5783 10.5393 33.1746 13.7423 33.3371 17.3122C31.8558 17.3191 30.826 17.6984 29.9046 18.0383C28.7853 18.4511 27.8997 18.7768 26.417 18.3687C23.8742 17.4427 22.9592 15.7362 21.991 13.9295C21.1374 12.3366 20.2546 10.6894 18.2624 9.55585C17.981 9.39585 17.6234 9.49397 17.4633 9.77538C17.3033 10.0567 17.4015 10.4144 17.6828 10.5744C18.8814 11.2564 19.6154 12.1689 20.2286 13.1786L16.6251 13.035C16.3006 13.0223 16.0292 13.2738 16.0163 13.5971C16.0034 13.9205 16.2551 14.193 16.5784 14.2059L20.9018 14.3783C20.9206 14.4132 20.9392 14.4481 20.9581 14.4831C21.6752 15.8213 22.4099 17.1908 23.7904 18.2636C22.311 18.6487 21.3784 19.8243 20.5346 20.9319L17.7599 20.0762C17.4506 19.9809 17.1226 20.1541 17.0273 20.4634C16.9319 20.7726 17.1053 21.1006 17.4146 21.196L19.7617 21.9199C18.8484 23.0118 17.8576 23.7785 16.0897 23.4539C15.7713 23.3954 15.466 23.6061 15.4076 23.9244C15.3492 24.2426 15.5599 24.548 15.8781 24.6065C16.2378 24.6725 16.5736 24.703 16.889 24.703C19.0169 24.703 20.1937 23.3068 21.2138 21.9741C21.221 21.9649 21.2283 21.9559 21.235 21.9463C21.2857 21.8799 21.3363 21.8137 21.3863 21.7479C22.6363 20.105 23.6237 18.8073 26.0822 19.4925C26.0842 19.493 26.0863 19.4935 26.0884 19.4941C26.0896 19.4944 26.0908 19.4948 26.092 19.4951C27.9463 20.0094 29.148 19.5665 30.3101 19.1379C31.1738 18.8193 32.0635 18.4919 33.3396 18.4844C33.2081 21.5844 32.0062 24.4367 30.0512 26.6402C29.1621 26.5612 28.3438 26.288 27.5515 26.0123L26.7675 23.2724C26.6785 22.9614 26.3541 22.7814 26.043 22.8703C25.7319 22.9594 25.5518 23.2837 25.6409 23.5948L26.2068 25.5726C24.7929 25.1783 23.3009 25.0953 21.5871 26.4344C21.3321 26.6337 21.2869 27.0019 21.4861 27.2569C21.6853 27.5119 22.0535 27.557 22.3085 27.3578C24.0189 26.0215 25.3532 26.4869 27.0425 27.0758C27.651 27.288 28.3126 27.5181 29.031 27.6689C27.4354 29.1094 25.4692 30.172 23.2534 30.7013C22.9386 30.7761 22.7444 31.0923 22.8196 31.4069ZM8.76979 17.9157C8.76979 19.7189 8.49416 21.8684 7.18104 21.8684C5.62971 21.8684 4.3676 20.0952 4.3676 17.9157C4.3676 15.7362 5.62971 13.963 7.18104 13.963C8.49416 13.963 8.76979 16.1125 8.76979 17.9157Z" fill="#C32C31"/>
<path d="M39.7152 29.767L37.5402 27.5946C36.7388 26.7951 36.3167 26.3114 36.2333 25.8873C36.1523 25.4752 36.3452 24.9225 36.6953 23.9191L36.783 23.6674C37.4232 21.8237 37.7478 19.8886 37.7478 17.9158C37.7478 8.22797 29.8493 0.346405 20.1406 0.346405C16.2726 0.346405 12.5957 1.57851 9.50758 3.90953C9.2493 4.10453 9.19797 4.47195 9.39289 4.73023C9.58789 4.98851 9.95531 5.03984 10.2136 4.84492C13.0967 2.66867 16.5295 1.51828 20.1406 1.51828C29.2031 1.51828 36.5759 8.87414 36.5759 17.9158C36.5759 19.7574 36.2732 21.5633 35.6761 23.2829L35.5889 23.533C34.7677 25.8863 34.6774 26.3936 36.7123 28.424L38.7419 30.4509L34.7855 34.3984L33.0184 32.6374C31.7575 31.377 30.9446 30.7173 28.9041 31.8104C25.7982 33.4718 23.59 34.3153 20.1405 34.3153C13.9756 34.3153 8.38328 30.9259 5.54711 25.4719C5.51484 25.4093 5.49062 25.3594 5.47086 25.3187C5.31375 24.9952 5.21305 24.9101 4.89594 24.743L4.7968 24.6905C2.56086 23.4987 1.17188 20.9028 1.17188 17.9157C1.17188 14.9286 2.56086 12.3327 4.79539 11.1416L4.89461 11.0897C5.21242 10.9242 5.31344 10.8393 5.47109 10.5146C5.49086 10.4739 5.515 10.4241 5.54586 10.3643C6.26727 8.97961 7.17867 7.7093 8.25477 6.5882C8.47883 6.35484 8.47125 5.9839 8.23781 5.75976C8.00438 5.53562 7.63344 5.54328 7.40937 5.77672C6.25617 6.97805 5.27953 8.33937 4.50523 9.82531C4.46797 9.89766 4.43992 9.95547 4.41703 10.0026C4.41375 10.0094 4.41062 10.0158 4.40773 10.0219C4.39055 10.0309 4.37148 10.0409 4.35344 10.0503C4.32242 10.0665 4.28719 10.0848 4.2457 10.1068C1.6268 11.5026 0 14.4948 0 17.9157C0 21.3366 1.6268 24.3287 4.24477 25.7242C4.28438 25.7454 4.31922 25.7638 4.35 25.7799C4.36898 25.7899 4.38898 25.8005 4.40688 25.8101C4.41 25.8165 4.41328 25.8234 4.4168 25.8306C4.43969 25.8778 4.46781 25.9357 4.50633 26.0104C5.98242 28.8488 8.2118 31.2334 10.9536 32.9066C13.7205 34.5948 16.8973 35.4873 20.1406 35.4873C23.8384 35.4873 26.1792 34.597 29.4572 32.8436C30.7928 32.1281 31.0242 32.301 32.1906 33.4669L34.1015 35.3713C34.2902 35.5596 34.5378 35.6537 34.7856 35.6537C35.0333 35.6537 35.2811 35.5595 35.4696 35.3714L39.7119 31.1385C39.8977 30.9559 40 30.7116 40 30.451C40 30.1903 39.8976 29.9462 39.7152 29.767Z" fill="#C32C31"/>
</svg>
