<svg width="18" height="18" viewBox="0 0 18 18" fill="none" xmlns="http://www.w3.org/2000/svg">
<path d="M1.5 2.54167C1.15483 2.54167 0.875 2.82149 0.875 3.16667C0.875 3.51184 1.15483 3.79167 1.5 3.79167V2.54167ZM1.5 8.375C1.15483 8.375 0.875 8.65483 0.875 9C0.875 9.34517 1.15483 9.625 1.5 9.625V8.375ZM9 9.625C9.34517 9.625 9.625 9.34517 9.625 9C9.625 8.65483 9.34517 8.375 9 8.375V9.625ZM16.5 9.625C16.8452 9.625 17.125 9.34517 17.125 9C17.125 8.65483 16.8452 8.375 16.5 8.375V9.625ZM16.5 3.79167C16.8452 3.79167 17.125 3.51184 17.125 3.16667C17.125 2.82149 16.8452 2.54167 16.5 2.54167V3.79167ZM9 14.2083C8.65483 14.2083 8.375 14.4882 8.375 14.8333C8.375 15.1785 8.65483 15.4583 9 15.4583V14.2083ZM16.5 15.4583C16.8452 15.4583 17.125 15.1785 17.125 14.8333C17.125 14.4882 16.8452 14.2083 16.5 14.2083V15.4583ZM1.5 14.2083C1.15483 14.2083 0.875 14.4882 0.875 14.8333C0.875 15.1785 1.15483 15.4583 1.5 15.4583V14.2083ZM1.5 3.79167H7.33333V2.54167H1.5V3.79167ZM1.5 9.625H9V8.375H1.5V9.625ZM14.8333 9.625H16.5V8.375H14.8333V9.625ZM10.6667 3.79167H16.5V2.54167H10.6667V3.79167ZM9 15.4583H16.5V14.2083H9V15.4583ZM1.5 15.4583H3.16667V14.2083H1.5V15.4583ZM5.875 14.8333C5.875 15.4087 5.40863 15.875 4.83333 15.875V17.125C6.09898 17.125 7.125 16.099 7.125 14.8333H5.875ZM4.83333 15.875C4.25803 15.875 3.79167 15.4087 3.79167 14.8333H2.54167C2.54167 16.099 3.56768 17.125 4.83333 17.125V15.875ZM3.79167 14.8333C3.79167 14.258 4.25803 13.7917 4.83333 13.7917V12.5417C3.56768 12.5417 2.54167 13.5677 2.54167 14.8333H3.79167ZM4.83333 13.7917C5.40863 13.7917 5.875 14.258 5.875 14.8333H7.125C7.125 13.5677 6.09898 12.5417 4.83333 12.5417V13.7917ZM14.2083 9C14.2083 9.57533 13.742 10.0417 13.1667 10.0417V11.2917C14.4323 11.2917 15.4583 10.2657 15.4583 9H14.2083ZM13.1667 10.0417C12.5913 10.0417 12.125 9.57533 12.125 9H10.875C10.875 10.2657 11.901 11.2917 13.1667 11.2917V10.0417ZM12.125 9C12.125 8.42467 12.5913 7.95833 13.1667 7.95833V6.70833C11.901 6.70833 10.875 7.73433 10.875 9H12.125ZM13.1667 7.95833C13.742 7.95833 14.2083 8.42467 14.2083 9H15.4583C15.4583 7.73433 14.4323 6.70833 13.1667 6.70833V7.95833ZM10.0417 3.16667C10.0417 3.74197 9.57533 4.20833 9 4.20833V5.45833C10.2657 5.45833 11.2917 4.43232 11.2917 3.16667H10.0417ZM9 4.20833C8.42467 4.20833 7.95833 3.74197 7.95833 3.16667H6.70833C6.70833 4.43232 7.73433 5.45833 9 5.45833V4.20833ZM7.95833 3.16667C7.95833 2.59137 8.42467 2.125 9 2.125V0.875C7.73433 0.875 6.70833 1.90102 6.70833 3.16667H7.95833ZM9 2.125C9.57533 2.125 10.0417 2.59137 10.0417 3.16667H11.2917C11.2917 1.90102 10.2657 0.875 9 0.875V2.125Z" fill="#00040A"/>
</svg>
