<svg width="40" height="40" viewBox="0 0 40 40" fill="none" xmlns="http://www.w3.org/2000/svg">
<path d="M19.9995 10.4095L24.7491 6.45161H30.9673V0H15.4834V6.45161H19.9995V10.4095ZM16.7737 5.16129V1.29032H29.6769V5.16129H24.2822L21.2899 7.65499V5.16129H16.7737Z" fill="#C32C31"/>
<path d="M18.0645 2.58203H19.3548V3.87235H18.0645V2.58203Z" fill="#C32C31"/>
<path d="M20.6455 2.58203H25.8068V3.87235H20.6455V2.58203Z" fill="#C32C31"/>
<path d="M27.0967 2.58203H28.387V3.87235H27.0967V2.58203Z" fill="#C32C31"/>
<path d="M32.8418 38.708L32.3201 33.4853C34.4742 33.1448 36.129 31.2795 36.129 29.0306V20.6435H33.5484V19.752C33.5484 18.875 33.0664 18.0874 32.2915 17.6836C33.062 16.9757 33.5484 15.9636 33.5484 14.8371V13.5467C33.5484 11.4119 31.8123 9.67578 29.6774 9.67578C27.5425 9.67578 25.8064 11.4119 25.8064 13.5467V14.8371C25.8064 16.5073 26.8715 17.9293 28.3569 18.4711L24.8942 21.9338H21.2761C21.204 20.8584 20.4653 19.9209 19.4188 19.6216L16.7742 18.8668V17.7145C17.5639 17.0054 18.0645 15.9803 18.0645 14.8371V13.5467C18.0645 11.4119 16.3284 9.67578 14.1935 9.67578C12.0587 9.67578 10.3226 11.4119 10.3226 13.5467V14.8371C10.3226 15.9796 10.8231 17.0047 11.6129 17.7145V18.8674L8.96831 19.6222C7.86637 19.9363 7.09677 20.957 7.09677 22.1036V24.5145H4.51613V28.3855H5.80645V38.708H0V39.9984H40V38.708H32.8418ZM27.0968 28.3855V25.4268L31.6683 20.8552C31.9988 20.5248 32.1954 20.0809 32.2395 19.6178C32.2451 19.6629 32.2581 19.7054 32.2581 19.752V27.7403C32.2581 28.8073 31.3896 29.6758 30.3226 29.6758H25.1613V28.3855H27.0968ZM25.1613 33.5467H28.4485L28.9645 38.708H25.1613V33.5467ZM29.7451 33.5467H31.0292L31.5452 38.708H30.2612L29.7451 33.5467ZM33.5484 27.7403V21.9338H34.8387V29.0306C34.8387 30.8092 33.3915 32.2564 31.6129 32.2564H25.1613V30.9661H30.3226C32.1012 30.9661 33.5484 29.5189 33.5484 27.7403ZM27.0968 14.8371V13.5467C27.0968 12.1235 28.2542 10.9661 29.6774 10.9661C31.1007 10.9661 32.2581 12.1235 32.2581 13.5467V14.8371C32.2581 16.2603 31.1007 17.4177 29.6774 17.4177C28.2542 17.4177 27.0968 16.2603 27.0968 14.8371ZM25.4284 23.2242L29.7329 18.9197C29.8677 18.7849 30.0542 18.708 30.2445 18.708C30.6433 18.708 30.9677 19.0325 30.9677 19.4313C30.9677 19.6216 30.8909 19.8081 30.756 19.9429L26.1845 24.5145H19.3548C18.9989 24.5145 18.7097 24.2253 18.7097 23.8693C18.7097 23.5134 18.9989 23.2242 19.3548 23.2242H25.4284ZM11.6129 13.5467C11.6129 12.1235 12.7703 10.9661 14.1935 10.9661C15.6168 10.9661 16.7742 12.1235 16.7742 13.5467V14.8371C16.7742 16.2603 15.6168 17.4177 14.1935 17.4177C12.7703 17.4177 11.6129 16.2603 11.6129 14.8371V13.5467ZM14.1935 18.708C14.6465 18.708 15.0794 18.6255 15.4839 18.4822V19.1752C15.3238 19.4222 14.8793 19.9984 14.1935 19.9984C13.5077 19.9984 13.0633 19.4222 12.9032 19.1752V18.4822C13.3077 18.6255 13.7405 18.708 14.1935 18.708ZM8.3871 22.1036C8.3871 21.53 8.77237 21.0203 9.32271 20.8628L11.9805 20.1036C12.3548 20.5912 13.0831 21.2887 14.1935 21.2887C15.304 21.2887 16.0323 20.5912 16.4066 20.1029L19.0644 20.8621C19.5587 21.0036 19.9033 21.4333 19.9723 21.9332H19.3548C18.2879 21.9332 17.4194 22.8017 17.4194 23.8687C17.4194 24.0958 17.4657 24.3113 17.5381 24.5139H8.3871V22.1036ZM5.80645 25.8048H25.8064V27.0951H5.80645V25.8048ZM7.09677 30.9661H9.03226V29.6758H7.09677V28.3855H23.871V29.6758H10.3226V30.9661H23.871V38.708H22.3343L21.044 36.1274H9.92377L8.63344 38.708H7.09677V30.9661ZM20.8915 38.708H10.0762L10.7214 37.4177H20.2463L20.8915 38.708Z" fill="#C32C31"/>
</svg>
