<svg width="32" height="40" viewBox="0 0 32 40" fill="none" xmlns="http://www.w3.org/2000/svg">
<path d="M20.3273 31.5174C20.4773 31.5174 20.6273 31.4602 20.7416 31.3459L21.1363 30.9512C21.3651 30.7223 21.3651 30.3513 21.1363 30.1225C20.9075 29.8937 20.5365 29.8937 20.3076 30.1225L19.913 30.5172C19.6841 30.7461 19.6841 31.117 19.913 31.3459C20.0274 31.4602 20.1773 31.5174 20.3273 31.5174ZM19.3212 24.855L19.1766 24.9998C18.9478 25.2287 18.9478 25.5996 19.1766 25.8284C19.2911 25.9428 19.441 25.9999 19.5909 25.9999C19.7409 25.9999 19.8908 25.9427 20.0053 25.8283L20.15 25.6835C20.3787 25.4546 20.3787 25.0837 20.1499 24.8549C19.921 24.626 19.5501 24.6261 19.3212 24.855ZM19.2423 33.7964C19.0134 33.5677 18.6424 33.5677 18.4137 33.7964C18.1848 34.0253 18.1848 34.3962 18.4137 34.6251L18.8828 35.0942C18.9972 35.2086 19.1472 35.2658 19.2971 35.2658C19.447 35.2658 19.597 35.2086 19.7114 35.0942C19.9402 34.8653 19.9402 34.4944 19.7114 34.2655L19.2423 33.7964ZM10.6234 28.9341C10.7378 29.0485 10.8878 29.1057 11.0377 29.1057C11.1876 29.1057 11.3376 29.0485 11.452 28.9341C11.6808 28.7052 11.6808 28.3343 11.452 28.1055L11.0437 27.697C10.8148 27.4683 10.4438 27.4683 10.2151 27.697C9.98624 27.9259 9.98624 28.2969 10.2151 28.5257L10.6234 28.9341ZM13.7683 33.7918L13.29 34.2701C13.0612 34.4989 13.0612 34.8699 13.2899 35.0988C13.4044 35.2132 13.5543 35.2704 13.7043 35.2704C13.8542 35.2704 14.0042 35.2132 14.1186 35.0988L14.5969 34.6205C14.8257 34.3917 14.8257 34.0207 14.5969 33.7919C14.3681 33.563 13.9972 33.563 13.7683 33.7918ZM11.3619 14.4966C11.9623 14.4966 12.5333 14.2366 12.9285 13.7832C13.1412 13.5393 13.1157 13.1692 12.8718 12.9566C12.6279 12.7438 12.2577 12.7693 12.0451 13.0133C11.8726 13.2113 11.6236 13.3248 11.3619 13.3248C11.1003 13.3248 10.8512 13.2113 10.6787 13.0133C10.466 12.7692 10.0958 12.7439 9.85194 12.9566C9.60804 13.1692 9.58257 13.5393 9.79522 13.7832C10.1904 14.2366 10.7614 14.4966 11.3619 14.4966ZM20.6383 14.4966C21.2387 14.4966 21.8097 14.2366 22.2049 13.7833C22.4176 13.5393 22.3922 13.1692 22.1483 12.9566C21.9044 12.7439 21.5342 12.7694 21.3216 13.0132C21.149 13.2113 20.8999 13.3248 20.6383 13.3248C20.3766 13.3248 20.1276 13.2113 19.9551 13.0133C19.7424 12.7692 19.3723 12.7439 19.1283 12.9566C18.8844 13.1692 18.859 13.5393 19.0716 13.7832C19.4669 14.2366 20.0379 14.4966 20.6383 14.4966ZM16.8698 14.9337C16.8698 14.4214 16.4804 14.0062 16.0001 14.0062C15.5197 14.0062 15.1303 14.4215 15.1303 14.9337C15.1303 15.446 15.5197 15.8613 16.0001 15.8613C16.4805 15.8613 16.8698 15.446 16.8698 14.9337ZM27.0709 9.78523C25.4016 5.20617 20.7433 1.99422 15.3766 2.26219C15.5216 1.63844 16.0809 1.17188 16.7481 1.17188C17.0717 1.17188 17.3341 0.909609 17.3341 0.585938C17.3341 0.262266 17.0717 0 16.7481 0C15.3927 0 14.2788 1.05023 14.1755 2.37961C12.3521 2.65156 10.6285 3.33148 9.11476 4.38602C8.84921 4.57102 8.78397 4.93625 8.9689 5.20172C9.15382 5.46719 9.51897 5.53242 9.7846 5.34758C11.1412 4.40242 12.6859 3.79086 14.3213 3.54266C14.7262 4.77148 15.8843 5.66125 17.2469 5.66125C17.5705 5.66125 17.8329 5.39898 17.8329 5.07531C17.8329 4.75172 17.5705 4.48938 17.2469 4.48938C16.4983 4.48938 15.8492 4.05578 15.5369 3.42664C21.6121 3.17812 26.552 7.82859 26.552 13.4837C26.552 19.211 21.6316 22.7337 16.0001 22.7337C10.3123 22.7337 5.44811 19.169 5.44811 13.4837C5.44811 11.1759 6.28733 8.92102 7.81108 7.13445C8.02108 6.88828 7.99171 6.51836 7.74554 6.30844C7.49921 6.09836 7.12944 6.12773 6.91952 6.37398C6.04921 7.39437 5.37913 8.55219 4.93108 9.78523C2.64929 9.67445 0.730225 11.5063 0.730225 13.7921C0.730225 16.1866 2.82952 18.0641 5.22358 17.7748C5.95999 19.3304 7.1046 20.6801 8.62452 21.7302C8.1828 22.4409 7.84968 23.2063 7.63007 24.0145C7.2321 24.264 6.9928 24.664 6.93601 25.0926C6.88343 25.4896 6.85671 25.8952 6.85671 26.2982C6.85671 29.8088 7.36108 33.9232 9.43015 36.7437C10.9925 38.8741 13.2643 40 16.0001 40C18.184 40 20.1167 39.2605 21.5894 37.8613C21.8241 37.6384 21.8336 37.2675 21.6107 37.033C21.3878 36.7984 21.0169 36.789 20.7823 37.0117C19.5137 38.217 17.9046 38.8281 16.0001 38.8281C13.6528 38.8281 11.7076 37.8677 10.375 36.0507C9.99897 35.5382 9.66351 34.948 9.37483 34.2921C13.3089 31.113 18.3776 28.571 23.5531 27.3639C23.7576 27.3162 23.9514 27.478 23.9425 27.6895C23.8169 30.667 23.2746 33.0961 22.3307 34.9092C22.1812 35.1963 22.2929 35.5501 22.5799 35.6995C22.8669 35.849 23.2208 35.7373 23.3701 35.4502C24.3938 33.4837 24.9803 30.8892 25.1133 27.7389C25.1312 27.3137 24.9719 26.912 24.6734 26.6168C24.6745 26.5052 24.6751 26.4002 24.6751 26.2982C24.6751 24.6673 24.2269 23.1008 23.3751 21.7306C24.8969 20.6795 26.041 19.3288 26.7767 17.7748C29.1733 18.0645 31.2701 16.1844 31.2701 13.7921C31.27 11.5089 29.3541 9.67578 27.0709 9.78523ZM1.90202 13.7923C1.90202 12.2814 3.08811 11.0427 4.57804 10.9573C4.12413 12.8403 4.17757 14.8179 4.76851 16.6314C3.18671 16.6468 1.90202 15.3636 1.90202 13.7923ZM8.93819 33.1416C8.33429 31.2832 8.02851 28.9862 8.02851 26.2984C8.02851 25.9468 8.05179 25.593 8.09765 25.2467C8.1253 25.0383 8.32819 24.9152 8.51718 24.9678C10.3454 25.4754 13.7347 26.5517 17.0372 28.3137C13.3046 29.9516 10.5145 31.9009 8.93819 33.1416ZM23.5012 26.1893C23.4298 26.1955 23.3582 26.2062 23.2869 26.2228C21.5441 26.6293 19.9173 27.1534 18.4205 27.7395C14.808 25.6741 10.9515 24.4314 8.90265 23.8588C9.08436 23.329 9.32671 22.8237 9.62397 22.346C13.4276 24.428 18.5729 24.4284 22.3774 22.3454C23.0959 23.5001 23.4817 24.8168 23.5012 26.1893ZM27.2317 16.6314C27.833 14.7862 27.8668 12.7935 27.4252 10.9576C28.9137 11.0444 30.0981 12.2824 30.0981 13.7923C30.0981 15.3616 28.8152 16.6468 27.2317 16.6314Z" fill="#C32C31"/>
</svg>
