<svg width="14" height="18" viewBox="0 0 14 18" fill="none" xmlns="http://www.w3.org/2000/svg">
<path d="M11.7806 1.68485H9.06861C8.7613 0.988492 8.0718 0.539062 7.31058 0.539062C6.54923 0.539062 5.85972 0.988492 5.55241 1.68485H2.84028C1.81723 1.68604 0.988247 2.51515 0.987061 3.5382V15.5607C0.988247 16.5838 1.81723 17.4129 2.84028 17.4141H11.7806C12.8037 17.4129 13.6328 16.5838 13.634 15.5607V3.5382C13.6328 2.51515 12.8037 1.68604 11.7806 1.68485ZM5.85761 2.5286C6.05563 2.5286 6.22702 2.39083 6.2696 2.19717C6.37323 1.72546 6.81105 1.38281 7.31058 1.38281C7.81011 1.38281 8.2478 1.72546 8.35143 2.19717C8.39388 2.39083 8.56526 2.5286 8.76355 2.5286H9.60005V2.8988C9.59939 3.45607 9.14785 3.90761 8.59058 3.90827H6.03045C5.47305 3.90761 5.02151 3.45607 5.02085 2.8988V2.5286H5.85761ZM12.7902 15.5607C12.7897 16.1181 12.338 16.5698 11.7806 16.5703H2.84028C2.28301 16.5698 1.83147 16.1181 1.83081 15.5607V3.5382C1.83147 2.9808 2.28301 2.52926 2.84028 2.5286H4.1771V2.8988C4.17829 3.92185 5.0074 4.75083 6.03045 4.75202H8.59058C9.61363 4.75083 10.4426 3.92185 10.4438 2.8988V2.5286H11.7806C12.338 2.52926 12.7896 2.9808 12.7902 3.5382V15.5607Z" fill="#00040A"/>
<path d="M9.39827 8.33538L6.62866 11.0396L5.22223 9.66679C5.05677 9.50489 4.79178 9.50687 4.62844 9.67088C4.46523 9.83501 4.46457 10.1 4.62712 10.2648L4.63279 10.2703L6.33374 11.9312C6.49774 12.0913 6.75944 12.0913 6.92331 11.9312L9.98758 8.93932C10.1533 8.77637 10.1559 8.51019 9.99377 8.34394C9.83135 8.1777 9.56531 8.17401 9.39827 8.33564V8.33538Z" fill="#00040A"/>
</svg>
