<svg width="14" height="14" viewBox="0 0 14 14" fill="none" xmlns="http://www.w3.org/2000/svg">
<path d="M11.5832 1.16582C11.2517 1.16582 10.9338 1.29752 10.6993 1.53194C10.4649 1.76636 10.3332 2.0843 10.3332 2.41582C10.3332 2.74734 10.4649 3.06528 10.6993 3.2997C10.9338 3.53412 11.2517 3.66582 11.5832 3.66582C11.9147 3.66582 12.2327 3.53412 12.4671 3.2997C12.7015 3.06528 12.8332 2.74734 12.8332 2.41582C12.8332 2.0843 12.7015 1.76636 12.4671 1.53194C12.2327 1.29752 11.9147 1.16582 11.5832 1.16582ZM9.49988 2.41582C9.49978 1.92702 9.67155 1.45374 9.98514 1.07879C10.2987 0.703842 10.7342 0.451097 11.2153 0.364778C11.6964 0.278458 12.1926 0.364058 12.617 0.606604C13.0414 0.849149 13.3669 1.23319 13.5368 1.69155C13.7066 2.1499 13.7098 2.65337 13.546 3.11388C13.3821 3.57439 13.0615 3.96261 12.6403 4.21062C12.219 4.45863 11.724 4.55064 11.2418 4.47054C10.7596 4.39045 10.321 4.14335 10.0026 3.77249L4.40455 6.37249C4.53324 6.78035 4.53324 7.21795 4.40455 7.62582L10.0026 10.2258C10.3391 9.83443 10.8089 9.58191 11.321 9.5172C11.8332 9.45249 12.3511 9.58019 12.7744 9.87557C13.1977 10.1709 13.4963 10.6129 13.6123 11.1159C13.7283 11.6189 13.6534 12.147 13.4022 12.598C13.151 13.0489 12.7413 13.3905 12.2526 13.5566C11.7639 13.7227 11.2309 13.7015 10.757 13.497C10.283 13.2925 9.90183 12.9194 9.68731 12.4499C9.4728 11.9804 9.44022 11.448 9.59588 10.9558L3.99788 8.35582C3.72075 8.6788 3.35134 8.90915 2.93937 9.01589C2.52739 9.12263 2.0926 9.10065 1.6935 8.95289C1.29439 8.80513 0.950114 8.53868 0.706973 8.18939C0.463833 7.84011 0.333496 7.42473 0.333496 6.99915C0.333496 6.57357 0.463833 6.1582 0.706973 5.80891C0.950114 5.45963 1.29439 5.19318 1.6935 5.04542C2.0926 4.89766 2.52739 4.87567 2.93937 4.98242C3.35134 5.08916 3.72075 5.31951 3.99788 5.64249L9.59588 3.04249C9.5321 2.83972 9.49973 2.62838 9.49988 2.41582ZM2.41655 5.74915C2.2524 5.74915 2.08985 5.78149 1.9382 5.8443C1.78654 5.90712 1.64874 5.9992 1.53267 6.11527C1.41659 6.23134 1.32452 6.36914 1.2617 6.5208C1.19888 6.67246 1.16655 6.835 1.16655 6.99915C1.16655 7.16331 1.19888 7.32585 1.2617 7.47751C1.32452 7.62917 1.41659 7.76696 1.53267 7.88304C1.64874 7.99911 1.78654 8.09119 1.9382 8.154C2.08985 8.21682 2.2524 8.24915 2.41655 8.24915C2.74807 8.24915 3.06601 8.11746 3.30043 7.88304C3.53485 7.64862 3.66655 7.33067 3.66655 6.99915C3.66655 6.66763 3.53485 6.34969 3.30043 6.11527C3.06601 5.88085 2.74807 5.74915 2.41655 5.74915ZM11.5832 10.3325C11.2517 10.3325 10.9338 10.4642 10.6993 10.6986C10.4649 10.933 10.3332 11.251 10.3332 11.5825C10.3332 11.914 10.4649 12.232 10.6993 12.4664C10.9338 12.7008 11.2517 12.8325 11.5832 12.8325C11.9147 12.8325 12.2327 12.7008 12.4671 12.4664C12.7015 12.232 12.8332 11.914 12.8332 11.5825C12.8332 11.251 12.7015 10.933 12.4671 10.6986C12.2327 10.4642 11.9147 10.3325 11.5832 10.3325Z" fill="black"/>
</svg>
