<svg width="26" height="40" viewBox="0 0 26 40" fill="none" xmlns="http://www.w3.org/2000/svg">
<path d="M3.77388 16.0328L1.26247 14.8287C0.970831 14.6887 0.620675 14.8118 0.480832 15.1037C0.34091 15.3955 0.464034 15.7455 0.755909 15.8854L3.26732 17.0895C3.55958 17.2298 3.90935 17.1057 4.04896 16.8144C4.1888 16.5226 4.06568 16.1727 3.77388 16.0328Z" fill="#C32C31"/>
<path d="M3.2673 22.9107L0.755897 24.1148C0.4641 24.2547 0.340896 24.6047 0.480818 24.8964C0.581521 25.1065 0.791209 25.2292 1.00957 25.2292C1.09457 25.2292 1.18082 25.2107 1.26246 25.1715L3.77387 23.9674C4.06566 23.8275 4.18887 23.4775 4.04894 23.1857C3.90902 22.8938 3.55871 22.7707 3.2673 22.9107V22.9107Z" fill="#C32C31"/>
<path d="M3.52067 20.715C3.84435 20.715 4.10661 20.4528 4.10661 20.1291C4.10661 19.8054 3.84435 19.5432 3.52067 19.5432H0.837158C0.513486 19.5432 0.251221 19.8054 0.251221 20.1291C0.251221 20.4528 0.513486 20.715 0.837158 20.715H3.52067Z" fill="#C32C31"/>
<path d="M22.7324 17.0895L25.2438 15.8853C25.5356 15.7454 25.6588 15.3954 25.5189 15.1037C25.3791 14.8118 25.0288 14.6887 24.7373 14.8286L22.2259 16.0327C21.9341 16.1727 21.8109 16.5227 21.9508 16.8144C22.0909 17.1068 22.4415 17.2292 22.7324 17.0895Z" fill="#C32C31"/>
<path d="M25.2439 24.1148L22.7324 22.9106C22.4408 22.7706 22.0906 22.8938 21.9508 23.1857C21.8109 23.4774 21.934 23.8274 22.2259 23.9673L24.7373 25.1715C24.819 25.2107 24.9052 25.2292 24.9902 25.2292C25.2085 25.2292 25.4182 25.1066 25.5189 24.8964C25.6588 24.6046 25.5356 24.2547 25.2439 24.1148Z" fill="#C32C31"/>
<path d="M25.1625 19.5432H22.479C22.1553 19.5432 21.8931 19.8054 21.8931 20.1291C21.8931 20.4528 22.1553 20.715 22.479 20.715H25.1625C25.4862 20.715 25.7485 20.4528 25.7485 20.1291C25.7485 19.8054 25.4862 19.5432 25.1625 19.5432Z" fill="#C32C31"/>
<path d="M16.1086 20.3591C14.9782 20.3046 13.8909 20.6395 12.9999 21.3084C12.1089 20.6394 11.0231 20.3049 9.8911 20.3591C7.37149 20.4802 5.36696 22.5524 5.32751 25.0768C5.30407 26.5772 5.96391 27.9741 7.13782 28.9094C8.25704 29.8011 8.89899 31.099 8.89899 32.4703V34.3489C8.89899 34.6726 9.16126 34.9348 9.48493 34.9348C9.8086 34.9348 10.0709 34.6726 10.0709 34.3489V32.4703C10.0709 30.7402 9.26798 29.1081 7.86805 27.9928C6.98048 27.2857 6.48157 26.2295 6.49923 25.0952C6.52907 23.1873 8.04368 21.6212 9.94735 21.5296C11.2584 21.4669 12.4028 22.0958 13.083 23.0494C13.5698 23.7319 14.2958 24.1973 15.1271 24.3598L15.3974 24.4127C15.7127 24.4748 16.0224 24.2695 16.0849 23.9502C16.1471 23.6327 15.94 23.3248 15.6224 23.2627L15.3521 23.2098C14.8161 23.1049 14.3491 22.8063 14.037 22.3688C13.9803 22.2892 13.921 22.2113 13.8594 22.1352C14.5016 21.7042 15.2627 21.4914 16.0524 21.5295C17.9562 21.621 19.4709 23.1871 19.5008 25.095C19.5319 27.0834 17.9263 28.7815 15.8731 28.7815C15.4177 28.7815 14.9738 28.6984 14.554 28.5344C14.2526 28.417 13.9128 28.5655 13.795 28.867C13.6773 29.1684 13.8262 29.5083 14.1277 29.626C14.684 29.8432 15.2713 29.9534 15.8731 29.9534C15.8918 29.9534 15.9105 29.9532 15.9291 29.953V39.4141C15.9291 39.7377 16.1914 40 16.5151 40C16.8388 40 17.101 39.7377 17.101 39.4141V29.7945C19.2024 29.2388 20.7072 27.2937 20.6725 25.0766C20.633 22.5523 18.6283 20.4801 16.1086 20.3591V20.3591Z" fill="#C32C31"/>
<path d="M19.1321 12.1117C18.8581 12.2839 18.7756 12.6456 18.9477 12.9196C19.3207 13.5132 19.5121 14.1998 19.501 14.9049C19.4712 16.8128 17.9566 18.379 16.0528 18.4705C14.7664 18.5329 13.6109 17.9234 12.9173 16.9508C12.4305 16.2683 11.7045 15.8028 10.8731 15.6403L10.6029 15.5874C10.2853 15.5249 9.97742 15.7323 9.91531 16.0499C9.85313 16.3675 10.0602 16.6754 10.3778 16.7375L10.6481 16.7904C11.1841 16.8952 11.6512 17.1939 11.9632 17.6313C12.0199 17.7109 12.0792 17.7888 12.1409 17.8649C11.4988 18.296 10.7382 18.509 9.94766 18.4705C8.04399 18.3791 6.5293 16.813 6.49945 14.9051C6.4682 12.9074 8.08289 11.2187 10.1271 11.2187C10.5826 11.2187 11.0264 11.3018 11.4463 11.4658C11.7503 11.5844 12.0884 11.4321 12.2052 11.1331C12.323 10.8317 12.1741 10.4919 11.8726 10.3741C11.3163 10.157 10.729 10.0468 10.1271 10.0468C10.1084 10.0468 10.0898 10.047 10.0711 10.0472V0.585938C10.0711 0.262266 9.80883 0 9.48516 0C9.16149 0 8.89922 0.262266 8.89922 0.585938V10.2055C6.79781 10.7613 5.29305 12.7063 5.32774 14.9234C5.36727 17.4478 7.37188 19.5201 9.89141 19.641C11.0234 19.6948 12.1092 19.3607 13.0002 18.6916C13.8947 19.3634 14.981 19.6952 16.1091 19.641C18.6287 19.52 20.6332 17.4477 20.6727 14.9233C20.6873 13.9907 20.4338 13.0823 19.9399 12.2962C19.7678 12.0223 19.4061 11.9398 19.1321 12.1117V12.1117Z" fill="#C32C31"/>
<path d="M17.8469 11.5227C17.9867 11.5227 18.127 11.4729 18.2391 11.372C18.4794 11.1553 18.4986 10.7848 18.282 10.5444C17.5206 9.69969 17.1013 8.62898 17.1013 7.52969V0.585938C17.1013 0.262266 16.8391 0 16.5154 0C16.1917 0 15.9294 0.262266 15.9294 0.585938V7.52977C15.9294 8.91937 16.4558 10.2687 17.4116 11.3291C17.5272 11.4573 17.6867 11.5227 17.8469 11.5227V11.5227Z" fill="#C32C31"/>
</svg>
