<svg width="40" height="34" viewBox="0 0 40 34" fill="none" xmlns="http://www.w3.org/2000/svg">
<path d="M38.4613 10.1374C38.3189 9.84697 37.968 9.72681 37.6772 9.86947C37.3866 10.012 37.2667 10.3631 37.4092 10.6536C38.582 13.044 38.8281 15.5032 38.8281 17.1453C38.8281 19.3644 38.3677 23.5475 35.2848 26.6304C34.3002 27.615 32.9912 28.1573 31.5987 28.1573C30.2063 28.1573 28.8972 27.615 27.9126 26.6304C26.9279 25.6458 26.3857 24.3367 26.3857 22.9442C26.3857 22.0565 26.607 21.2031 27.0219 20.4456C27.0341 20.427 27.0448 20.4076 27.0547 20.3878C27.2853 19.9792 27.5717 19.5989 27.9125 19.2581C28.1163 19.0543 28.2857 18.8319 28.4207 18.5949C28.4228 18.5912 28.4251 18.5877 28.4271 18.5838C28.4605 18.5248 28.492 18.4649 28.521 18.4041C29.1284 18.7734 29.4921 19.3381 29.671 19.6876C29.7748 19.8902 29.9801 20.0066 30.193 20.0066C30.2829 20.0066 30.3741 19.9858 30.4596 19.942C30.7477 19.7945 30.8616 19.4415 30.7141 19.1535C30.2637 18.2738 29.5941 17.6039 28.7997 17.2248C28.8004 17.1983 28.8016 17.172 28.8016 17.1453C28.8016 16.9988 28.791 16.8548 28.7706 16.7135C29.5784 16.3372 30.2568 15.6638 30.7141 14.7707C30.8616 14.4827 30.7476 14.1296 30.4595 13.9821C30.1713 13.8345 29.8184 13.9485 29.6709 14.2367C29.4754 14.6187 29.0662 15.245 28.3679 15.6058C28.3413 15.5627 28.3134 15.5201 28.2843 15.4781C28.2774 15.4679 28.2705 15.4579 28.263 15.4482C28.1601 15.3028 28.0437 15.1637 27.9125 15.0326C25.8799 13 25.8799 9.69283 27.9125 7.66025C28.897 6.67564 30.2062 6.13337 31.5986 6.13337C32.991 6.13337 34.3002 6.67564 35.2848 7.66033C35.5358 7.91127 35.7777 8.17853 36.0037 8.45478C36.2087 8.70525 36.578 8.74205 36.8283 8.53705C37.0788 8.33205 37.1156 7.96291 36.9106 7.71252C36.66 7.40627 36.3918 7.10994 36.1135 6.83166C33.624 4.34213 29.5733 4.3422 27.0839 6.83166C24.9834 8.9322 24.6552 12.1442 26.0994 14.592L25.3066 14.3149C24.465 14.0206 23.7583 13.4322 23.3166 12.6578L22.2223 10.7391C21.9115 10.1941 21.7473 9.57447 21.7473 8.94705V2.21447C21.7473 1.2608 21.0162 0.479313 20.0827 0.435406C19.5989 0.41275 19.1414 0.583609 18.7923 0.916656C18.4482 1.24502 18.2508 1.70603 18.2508 2.18166V8.94713C18.2508 9.57447 18.0865 10.1942 17.7757 10.7392L16.6816 12.6577C16.2398 13.4321 15.533 14.0206 14.6915 14.3148L13.9026 14.5905C14.4783 13.6181 14.7861 12.506 14.7861 11.3463C14.7861 9.6408 14.122 8.03744 12.916 6.8315C11.7101 5.62556 10.1067 4.96134 8.40125 4.96134C6.69578 4.96134 5.09234 5.62548 3.88648 6.8315C0.504922 10.2132 0 14.7449 0 17.1453C0 19.2289 0.391328 23.2127 3.01227 26.4829C3.21461 26.7354 3.58344 26.7761 3.83594 26.5737C4.08844 26.3713 4.12906 26.0025 3.92672 25.75C1.52977 22.7593 1.17188 19.0752 1.17188 17.1453C1.17188 14.9263 1.63219 10.7432 4.71516 7.66025C5.69977 6.67564 7.00883 6.13337 8.40133 6.13337C9.79375 6.13337 11.1029 6.67564 12.0875 7.66025C13.0721 8.64486 13.6144 9.95392 13.6144 11.3464C13.6144 12.7389 13.0722 14.048 12.0875 15.0326C11.9566 15.1635 11.8404 15.3024 11.7376 15.4474C11.7302 15.457 11.7233 15.467 11.7165 15.477C11.6872 15.5194 11.659 15.5623 11.6321 15.6058C10.9338 15.245 10.5246 14.6187 10.329 14.2366C10.1815 13.9485 9.82836 13.8347 9.54039 13.9821C9.25234 14.1296 9.13844 14.4827 9.28594 14.7707C9.74328 15.6638 10.4216 16.3372 11.2294 16.7135C11.209 16.8548 11.1985 16.9988 11.1985 17.1453C11.1985 17.1719 11.1998 17.1982 11.2004 17.2248C10.4059 17.6039 9.73633 18.2738 9.28594 19.1535C9.13844 19.4415 9.25242 19.7945 9.54039 19.942C9.62594 19.9858 9.71711 20.0066 9.80695 20.0066C10.0199 20.0066 10.2252 19.8901 10.329 19.6876C10.508 19.3381 10.8716 18.7734 11.4791 18.4041C11.5095 18.4681 11.5429 18.531 11.5782 18.593C11.5826 18.6009 11.587 18.6088 11.5917 18.6164C11.7247 18.8453 11.8898 19.0605 12.0874 19.2581C12.428 19.5987 12.7143 19.9788 12.9448 20.387C12.955 20.4073 12.9659 20.4271 12.9784 20.4461C13.393 21.2035 13.6142 22.0567 13.6142 22.9442C13.6142 24.3367 13.072 25.6458 12.0873 26.6304C10.425 28.2927 7.84227 28.637 5.80672 27.4674C5.52609 27.3063 5.16797 27.403 5.00672 27.6836C4.84555 27.9642 4.94234 28.3224 5.22289 28.4836C6.2118 29.0517 7.30586 29.3283 8.39328 29.3283C10.0481 29.3283 11.6874 28.6877 12.9159 27.4591C14.1219 26.2531 14.786 24.6498 14.786 22.9443C14.786 22.2975 14.69 21.6656 14.5056 21.0642L14.5882 21.0901C15.1052 21.252 15.4527 21.7249 15.4527 22.2667V31.8185C15.4527 32.7824 16.2369 33.5667 17.2009 33.5667C18.1648 33.5667 18.9491 32.7824 18.9491 31.8185V22.2667C18.9491 20.1884 17.6166 18.3747 15.6334 17.7534L15.5369 17.7231L15.8452 17.6154C17.4833 17.0428 18.8589 15.8972 19.7186 14.3899L19.9989 13.8984L20.2791 14.3897C21.1389 15.8972 22.5145 17.0428 24.1527 17.6154L24.4619 17.7235L24.3663 17.7534C22.383 18.3746 21.0506 20.1884 21.0506 22.2667V31.8185C21.0506 32.7824 21.8348 33.5667 22.7988 33.5667C23.7628 33.5667 24.547 32.7824 24.547 31.8185V22.2667C24.547 21.7249 24.8944 21.252 25.4115 21.0901L25.4941 21.0642C25.3097 21.6656 25.2137 22.2975 25.2137 22.9443C25.2137 24.6498 25.8778 26.2532 27.0837 27.4591C28.3286 28.704 29.9632 29.3263 31.5985 29.3262C33.2333 29.326 34.8687 28.7037 36.1133 27.4591C39.4951 24.0775 40 19.5456 40 17.1453C40 15.3792 39.733 12.7297 38.4613 10.1374ZM17.7774 22.2667V31.8185C17.7774 32.1363 17.5188 32.3948 17.201 32.3948C16.8832 32.3948 16.6247 32.1363 16.6247 31.8185V22.2667C16.6247 21.2099 15.9471 20.2877 14.9386 19.9717L13.8635 19.635C13.637 19.2625 13.3699 18.9118 13.0659 18.5869L13.684 18.3709L15.2831 18.8717C16.7751 19.339 17.7774 20.7034 17.7774 22.2667ZM21.2972 13.8092L20.6095 12.6032C20.4846 12.3845 20.2506 12.2486 19.9988 12.2487C19.747 12.2488 19.5131 12.3846 19.3885 12.6033L18.7006 13.8092C17.9811 15.071 16.8296 16.0298 15.4584 16.5091L12.4219 17.5705C12.3888 17.4339 12.3702 17.2925 12.3702 17.1453C12.3702 16.8367 12.4434 16.5511 12.5878 16.2915L15.0781 15.421C16.1866 15.0335 17.1176 14.2584 17.6995 13.2382L18.7936 11.3197C19.2051 10.5981 19.4226 9.77775 19.4226 8.94713V2.18166C19.4226 2.02252 19.486 1.87439 19.6012 1.76455C19.7162 1.65478 19.868 1.59853 20.0275 1.60595C20.3295 1.62017 20.5752 1.89314 20.5752 2.21447V8.94697C20.5752 9.77759 20.7927 10.5981 21.2043 11.3196L22.2985 13.2382C22.8802 14.2583 23.8111 15.0335 24.9198 15.421L27.4125 16.2923C27.5566 16.5517 27.6296 16.837 27.6296 17.1453C27.6296 17.2928 27.6109 17.4344 27.5777 17.5711L24.5395 16.5092C23.1684 16.0299 22.0169 15.071 21.2972 13.8092ZM25.0612 19.9717C24.0528 20.2877 23.3752 21.2099 23.3752 22.2667V31.8185C23.3752 32.1363 23.1166 32.3948 22.7989 32.3948C22.4812 32.3948 22.2226 32.1363 22.2226 31.8185V22.2667C22.2226 20.7034 23.2249 19.339 24.7168 18.8717L26.315 18.3712L26.9335 18.5874C26.6298 18.9121 26.3629 19.2627 26.1364 19.6349L25.0612 19.9717Z" fill="#C32C31"/>
</svg>
