<svg width="16" height="16" viewBox="0 0 16 16" fill="none" xmlns="http://www.w3.org/2000/svg">
<path d="M15.0725 12.2851L11.685 9.2051C11.5249 9.05981 11.3147 8.98235 11.0986 8.98903C10.8825 8.99572 10.6775 9.08603 10.5267 9.24094L8.53169 11.2918C8.05169 11.2001 7.0867 10.9001 6.09336 9.90844C5.10003 8.91427 4.7992 7.94677 4.71003 7.4701L6.76003 5.4751C6.91501 5.3243 7.0053 5.11916 7.01184 4.90302C7.01837 4.68687 6.94062 4.47665 6.79503 4.31677L3.7167 0.928437C3.57093 0.768144 3.36846 0.670925 3.15222 0.657391C2.93599 0.643856 2.72298 0.715071 2.55836 0.855937L0.748362 2.40844C0.604102 2.55324 0.518094 2.74602 0.506695 2.9501C0.493362 3.15844 0.255029 8.0926 4.0817 11.9209C7.42003 15.2584 11.6017 15.5026 12.7534 15.5026C12.9217 15.5026 13.025 15.4976 13.0534 15.4959C13.2567 15.4846 13.4487 15.3985 13.5925 15.2543L15.1425 13.4443C15.2842 13.2801 15.3561 13.0671 15.3429 12.8507C15.3296 12.6343 15.2323 12.4316 15.0717 12.2859L15.0725 12.2851Z" fill="#00040A"/>
</svg>
