<svg width="28" height="28" viewBox="0 0 28 28" fill="none" xmlns="http://www.w3.org/2000/svg">
<path d="M2.95446 14.5223C3.19742 14.9241 3.44881 15.3392 3.67273 15.7596C4.33607 16.9355 4.76827 18.2275 4.94648 19.566C5.081 21.0886 5.33719 22.5979 5.71246 24.0797C6.00113 25.1526 6.53938 27.1495 8.25456 27.1495C9.59989 27.1495 10.6405 24.5797 11.3463 19.5121C11.5841 17.8336 12.3098 17.6688 12.6746 17.6241C12.6891 17.6241 12.7009 17.63 12.7149 17.6322C12.7394 17.6999 12.763 17.7687 12.7889 17.8348C13.0042 18.344 13.263 18.8337 13.5623 19.2984C13.7116 19.5454 13.8618 19.7928 14.0001 20.0508C14.3976 20.7558 14.6568 21.5302 14.7639 22.3323C14.8409 23.1049 14.9595 23.8726 15.1191 24.6322C15.1217 24.6424 15.1191 24.6529 15.1231 24.6629C15.1269 24.6731 15.1301 24.6809 15.1335 24.6909C15.1676 24.8391 15.1989 24.9874 15.24 25.1346C15.4152 25.7885 15.782 27.1491 16.9672 27.1491C17.3485 27.1491 18.3614 27.1491 19.0364 22.3044C19.1607 21.4284 19.4904 21.3173 19.6871 21.2888L19.7414 21.2985C19.8727 21.3255 20.2232 21.3969 20.3545 22.3056C21.028 27.1495 22.0406 27.1495 22.4215 27.1495C23.6038 27.1495 23.9576 25.8396 24.1483 25.139C24.3814 24.2174 24.5412 23.2791 24.626 22.3323C24.734 21.5294 24.994 20.7544 25.3923 20.049C25.5303 19.7884 25.6814 19.5388 25.8302 19.2896C26.1277 18.8271 26.3845 18.3396 26.5975 17.8326C27.3323 15.9675 27.5285 13.4124 25.8763 11.8331C25.3719 11.359 24.7581 11.0172 24.0895 10.8382C24.986 7.54193 24.4233 4.53595 22.5431 2.73317C20.0137 0.304732 15.5044 0.254816 12.6865 2.54994C9.86831 0.254816 5.35944 0.304732 2.82797 2.73437C0.24938 5.20551 0.56391 9.23847 1.72039 12.1883C2.06419 13.0002 2.47695 13.7812 2.95446 14.5223ZM25.7843 17.5151C25.5888 17.9758 25.3545 18.4188 25.0836 18.8394C24.9243 19.1022 24.7647 19.365 24.6204 19.6396C24.1699 20.4423 23.8766 21.3235 23.7564 22.236C23.6758 23.1369 23.5248 24.03 23.3047 24.9072C23.1239 25.5682 22.8931 26.2736 22.4307 26.2736C22.2555 26.2197 21.6625 25.3519 21.2215 22.1817C21.0765 21.1744 20.6377 20.5872 19.9148 20.4397C19.8579 20.4272 19.8002 20.4176 19.7422 20.4112C19.7262 20.4118 19.71 20.4132 19.6941 20.4156C19.6773 20.413 19.6602 20.4114 19.6432 20.4108C18.8187 20.5026 18.3225 21.0982 18.1692 22.1817C17.7274 25.3541 17.1318 26.2215 16.9672 26.2736C16.4929 26.2736 16.2634 25.5686 16.0843 24.9046C15.865 24.0272 15.7145 23.1341 15.6341 22.2334C15.5152 21.3207 15.2223 20.4393 14.7713 19.637C14.627 19.3654 14.4688 19.104 14.3106 18.8434C14.0386 18.4214 13.8028 17.9772 13.606 17.5151C12.9781 15.9132 12.7827 13.7455 14.1188 12.466C15.4549 11.1864 17.9691 11.2082 19.3994 12.5123C19.5281 12.6376 21.18 14.2128 22.6606 14.2128C22.9024 14.2128 23.0984 14.0168 23.0984 13.7748C23.0984 13.533 22.9024 13.337 22.6606 13.337C21.9091 13.337 20.9575 12.6875 20.3807 12.2116C21.296 11.62 22.4014 11.3971 23.4743 11.5879C24.1485 11.6944 24.7753 12.0007 25.2737 12.4672C26.6124 13.7489 26.3861 15.9855 25.7843 17.5151ZM3.43437 3.36624C5.69883 1.19299 9.96654 1.22787 12.3896 3.43821C12.5604 3.60459 15.1901 6.12925 17.5036 6.12925C17.7454 6.12925 17.9415 5.9332 17.9415 5.69124C17.9415 5.44948 17.7454 5.25342 17.5036 5.25342C15.9661 5.25342 14.1216 3.79945 13.3564 3.1329C15.8245 1.23369 19.7861 1.29984 21.9397 3.36684C23.596 4.95513 24.0659 7.66943 23.2289 10.6774C21.9752 10.5437 20.7165 10.8821 19.6989 11.6268C17.8963 10.2482 15.0968 10.3132 13.512 11.8335C12.1574 13.1315 12.0488 15.0895 12.4609 16.7822C11.3682 16.9818 10.6996 17.8525 10.4819 19.3898C9.72037 24.8351 8.69218 26.2736 8.25456 26.2736C7.29113 26.2736 6.87396 25.0237 6.55682 23.8484C6.19659 22.4101 5.94921 20.9461 5.8167 19.4692C5.62726 18.0203 5.16178 16.6212 4.44552 15.3475C4.21078 14.906 3.95298 14.4804 3.70119 14.0687C3.24975 13.3699 2.85904 12.6338 2.53368 11.8682C1.48304 9.18274 1.16591 5.53888 3.43437 3.36624Z" fill="#C32C31"/>
<path d="M3.38082 10.034C3.51733 10.034 3.64603 9.97047 3.72902 9.86181C3.81182 9.75336 3.83928 9.61223 3.8034 9.48053C2.82553 5.8956 5.11043 4.71366 5.21427 4.66154C5.42476 4.55249 5.51036 4.29569 5.40712 4.08219C5.30388 3.8687 5.04949 3.77608 4.83339 3.87331C4.80392 3.88774 1.7823 5.39464 2.95803 9.71126C3.01015 9.90191 3.18316 10.034 3.38082 10.034Z" fill="#C32C31"/>
<path d="M6.99351 3.50154C6.99351 3.7435 6.79745 3.93955 6.55549 3.93955C6.31373 3.93955 6.11768 3.7435 6.11768 3.50154C6.11768 3.25978 6.31373 3.06372 6.55549 3.06372C6.79745 3.06372 6.99351 3.25978 6.99351 3.50154Z" fill="#C32C31"/>
<path d="M15.2786 12.9433C14.6068 13.3242 13.5366 14.6222 14.2963 16.8084C14.3474 16.9566 14.4737 17.066 14.6277 17.0957C14.7817 17.1252 14.9396 17.0703 15.0421 16.9516C15.1443 16.8329 15.1756 16.6685 15.1236 16.5206C14.423 14.5063 15.6535 13.7393 15.714 13.7034C15.9239 13.5834 15.9967 13.3157 15.8764 13.1057C15.7561 12.8958 15.4885 12.823 15.2786 12.9433Z" fill="#C32C31"/>
<path d="M17.0658 12.698C17.0658 12.9398 16.8697 13.1358 16.628 13.1358C16.386 13.1358 16.1899 12.9398 16.1899 12.698C16.1899 12.4561 16.386 12.26 16.628 12.26C16.8697 12.26 17.0658 12.4561 17.0658 12.698Z" fill="#C32C31"/>
</svg>
